<?xml version="1.0" encoding="UTF-8" standalone="no"?>
<!-- Created using Karbon14, part of koffice: http://www.koffice.org/karbon -->

<svg
   xmlns:dc="http://purl.org/dc/elements/1.1/"
   xmlns:cc="http://creativecommons.org/ns#"
   xmlns:rdf="http://www.w3.org/1999/02/22-rdf-syntax-ns#"
   xmlns:svg="http://www.w3.org/2000/svg"
   xmlns="http://www.w3.org/2000/svg"
   xmlns:sodipodi="http://sodipodi.sourceforge.net/DTD/sodipodi-0.dtd"
   xmlns:inkscape="http://www.inkscape.org/namespaces/inkscape"
   width="430.00000pt"
   height="400.00000px"
   id="svg2"
   sodipodi:version="0.32"
   inkscape:version="0.48.3.1 r9886"
   sodipodi:docname="Club_mate_logo_ohne_text.svg"
   version="1.1">
  <metadata
     id="metadata46">
    <rdf:RDF>
      <cc:Work
         rdf:about="">
        <dc:format>image/svg+xml</dc:format>
        <dc:type
           rdf:resource="http://purl.org/dc/dcmitype/StillImage" />
        <dc:title />
      </cc:Work>
    </rdf:RDF>
  </metadata>
  <sodipodi:namedview
     inkscape:window-height="886"
     inkscape:window-width="1680"
     inkscape:pageshadow="2"
     inkscape:pageopacity="0.0"
     borderopacity="1.0"
     bordercolor="#666666"
     pagecolor="#ffffff"
     id="base"
     inkscape:zoom="2.6498648"
     inkscape:cx="268.75"
     inkscape:cy="178.59034"
     inkscape:window-x="0"
     inkscape:window-y="27"
     inkscape:current-layer="svg2"
     showgrid="false"
     inkscape:window-maximized="1" />
  <defs
     id="defs4" />
  <g
     id="g17"
     transform="matrix(1,0,0,-1,-37.466,661.3)">
    <path
       inkscape:connector-curvature="0"
       d="m 300.672,550.008 c 59.4,0 107.784,-48.384 107.784,-107.712 0,-59.328 -48.384,-107.712 -107.784,-107.712 l 0,-5.4 5.616,-4.32 8.784,9.216 9.504,-6.696 6.048,10.656 12.312,-7.632 4.104,10.656 11.376,-4.896 0.216,13.68 12.312,-4.824 2.088,11.304 9.504,0 0,11.376 9.504,0.936 -0.72,12.24 11.808,2.088 -3.24,11.376 9.288,0.648 -5.112,9.504 9.936,2.808 -6.048,8.784 8.352,2.808 -7.128,8.28 7.848,5.976 -7.848,7.632 8.064,6.048 -6.264,6.048 8.352,5.328 -10.44,5.544 8.352,7.848 -11.808,5.112 7.2,8.352 -12.312,3.24 3.024,9.288 -9.288,3.456 4.464,9.936 -13.68,-0.648 0.648,12.96 -12.024,-1.656 0.504,11.808 -10.656,-3.024 -2.088,11.808 -11.592,-3.672 -0.936,9.288 -13.68,-3.528 -4.176,11.376 -12.024,-6.912 -4.392,10.152 -11.592,-8.568 -2.16,2.808 0,-3.168 z m 0,-215.424 c -59.256,0 -107.64,48.384 -107.64,107.712 0,59.328 48.384,107.712 107.64,107.712 l 0,3.168 -3.816,5.04 -7.128,-8.568 -10.008,7.92 -7.632,-11.16 -5.544,6.48 -5.832,-9.72 -10.872,4.392 -1.8,-10.872 -10.224,3.744 -1.152,-10.44 -10.872,0.936 -1.152,-10.872 -9.72,1.8 -0.504,-13.176 -11.808,-0.216 3.456,-12.312 -9,-0.432 2.304,-11.592 -8.352,-2.808 4.392,-8.568 -6.264,-1.8 4.68,-7.92 -8.352,-2.52 7.848,-8.136 -10.368,-6.48 9.72,-6.912 -8.136,-5.112 8.352,-5.112 -6.984,-7.848 8.352,-4.32 -6.696,-6.768 10.872,-1.584 -6.48,-9.072 10.44,-2.736 -4.68,-10.008 10.656,-1.152 -3.672,-10.368 11.808,-1.872 -4.176,-8.352 13.896,-1.368 0,-13.248 10.656,4.176 -0.216,-11.304 14.328,2.736 -0.864,-10.656 12.96,3.24 6.48,-9.72 9.504,5.112 7.416,-8.352 10.656,6.696 3.528,-2.808 0,5.4 z"
       id="path19"
       style="fill:#ff0000;fill-rule:evenodd" />
    <path
       style="fill:#0032fc;fill-rule:evenodd"
       d="M 263.5625 115.1875 C 258.8105 115.1875 253.9925 115.5395 249.3125 116.1875 C 248.5925 116.3315 247.87625 116.4185 247.15625 116.5625 C 245.42825 116.8505 243.69675 117.10875 241.96875 117.46875 C 240.81675 117.75675 239.67375 117.99325 238.59375 118.28125 C 234.92175 119.21725 231.3935 120.29775 227.9375 121.59375 C 218.7935 124.90575 210.223 129.59325 202.375 135.28125 C 176.383 154.28925 159.46875 184.9495 159.46875 219.4375 C 159.46875 253.8535 176.383 284.52325 202.375 303.53125 C 210.223 309.21925 218.7935 313.89725 227.9375 317.28125 C 231.3935 318.50525 234.92175 319.59525 238.59375 320.53125 C 239.67375 320.81925 240.81675 321.0245 241.96875 321.3125 C 243.69675 321.6725 245.42825 321.962 247.15625 322.25 C 247.87625 322.394 248.5925 322.481 249.3125 322.625 C 253.9925 323.273 258.8105 323.625 263.5625 323.625 C 272.4185 323.625 280.989 322.463 289.125 320.375 C 297.837 318.215 306.1085 314.90425 313.8125 310.65625 C 314.1725 310.44025 314.59925 310.1535 315.03125 309.9375 C 316.75925 308.9295 318.56275 307.86125 320.21875 306.78125 C 321.73075 305.77325 323.26925 304.7675 324.78125 303.6875 C 325.35725 303.2555 325.9865 302.7445 326.5625 302.3125 C 327.3545 301.6645 328.1455 301.0855 328.9375 300.4375 C 352.6255 281.2855 367.90625 252.0535 367.90625 219.4375 C 367.90625 186.8215 352.6255 157.527 328.9375 138.375 C 328.1455 137.727 327.3545 137.1385 326.5625 136.5625 C 325.9865 136.0585 325.35725 135.629 324.78125 135.125 C 323.26925 134.045 321.73075 133.03925 320.21875 132.03125 C 318.56275 130.95125 316.75925 129.883 315.03125 128.875 C 314.59925 128.659 314.1725 128.43475 313.8125 128.21875 C 306.1085 123.89875 297.837 120.56625 289.125 118.40625 C 280.989 116.31825 272.4185 115.1875 263.5625 115.1875 z M 271.90625 120.59375 C 277.81025 121.09775 283.581 122.09125 289.125 123.53125 C 297.909 125.90725 306.1805 129.37025 313.8125 133.90625 C 314.1725 134.12225 314.59925 134.409 315.03125 134.625 C 316.83125 135.705 318.56275 136.848 320.21875 138 C 321.80275 139.08 323.26925 140.1605 324.78125 141.3125 C 325.35725 141.8165 325.9865 142.3085 326.5625 142.8125 C 327.3545 143.4605 328.1455 144.12375 328.9375 144.84375 C 349.7455 163.05975 362.9375 189.7735 362.9375 219.4375 C 362.9375 249.0295 349.7455 275.81525 328.9375 294.03125 C 328.1455 294.67925 327.3545 295.39275 326.5625 295.96875 C 325.9865 296.47275 325.35725 296.96475 324.78125 297.46875 C 323.26925 298.62075 321.80275 299.70125 320.21875 300.78125 C 320.07475 300.92525 319.9565 301.01225 319.8125 301.15625 C 318.0845 297.98825 316.39925 295.679 315.03125 293.375 C 314.59925 292.655 314.1725 292.00125 313.8125 291.28125 C 312.3725 288.76125 311.14525 285.9505 310.28125 282.0625 C 311.64925 281.5585 312.7325 281.20375 313.8125 280.84375 C 314.2445 280.69975 314.59925 280.55025 315.03125 280.40625 C 316.39925 279.90225 317.78425 279.35175 319.65625 278.34375 C 319.87225 278.19975 320.07475 278.04075 320.21875 277.96875 C 321.65875 277.03275 322.8165 275.5105 322.3125 273.0625 C 321.8085 270.9745 322.61975 268.48075 323.84375 266.96875 C 324.20375 266.53675 324.49325 266.08825 324.78125 265.65625 C 325.42925 264.43225 325.6385 263.22125 325.0625 261.78125 C 324.4865 260.26925 324.9255 258.1575 326.4375 257.4375 C 326.5095 257.3655 326.5625 257.3845 326.5625 257.3125 C 328.7945 256.1605 328.6495 254.22525 328.9375 252.28125 C 329.0095 251.12925 329.29225 249.902 330.15625 248.75 C 332.17225 246.158 334.64225 243.13 331.90625 240.25 C 333.77825 231.97 334.77475 227.87375 336.71875 219.59375 C 336.14275 219.37775 335.79475 219.216 335.21875 219 C 333.27475 227.136 332.2565 231.18475 330.3125 239.96875 C 329.8085 240.11275 329.2975 240.32475 328.9375 240.46875 C 328.0015 240.90075 327.2825 241.38325 326.5625 242.03125 C 325.9865 242.60725 325.35725 243.261 324.78125 244.125 C 324.34925 244.557 323.97275 245.14275 323.46875 245.71875 C 322.53275 247.08675 321.44275 248.3045 320.21875 249.3125 C 318.70675 250.8245 316.97525 251.97025 315.03125 252.90625 C 314.59925 253.12225 314.2445 253.284 313.8125 253.5 C 311.7245 254.364 309.48875 254.92125 306.96875 255.28125 C 307.18475 250.88925 307.78025 242.275 310.15625 218.875 L 309.34375 218.71875 C 307.83175 229.80675 307.1995 235.33725 305.6875 246.28125 C 300.2155 251.39325 297.5345 253.93825 292.0625 258.90625 C 291.0545 257.53825 290.061 256.07725 289.125 254.78125 C 282.285 245.27725 276.81675 238.3075 268.96875 232.1875 C 271.48875 224.8435 272.715 221.17425 274.875 214.40625 C 271.779 214.55025 271.6395 221.89025 268.6875 223.90625 C 267.4635 224.77025 266.947 226.20275 266.875 228.21875 C 266.731 230.81075 266.66575 232.0955 266.59375 234.6875 C 266.37775 238.4315 262.345 238.74 261.625 235.5 C 260.905 232.116 260.5325 230.44925 259.8125 227.28125 C 251.4605 227.64125 248.0085 221.582 250.3125 215.75 C 253.6245 216.974 262.41425 217.9275 261.40625 214.6875 C 257.23025 214.8315 251.02875 215.12875 252.46875 212.96875 C 253.47675 211.88875 254.204 211.2865 255.5 210.0625 C 258.308 210.8545 260.62825 210.64 264.15625 211 C 265.16425 214.528 269.484 212.2345 271.5 208.5625 C 266.46 208.5625 262.8525 208.712 257.8125 209 C 257.5245 207.416 257.5205 206.11525 258.3125 204.53125 C 257.1605 204.74725 256.652 204.87775 255.5 205.09375 C 253.484 206.10175 253.049 204.535 253.625 202.375 C 254.633 198.991 254.2895 196.03475 254.9375 192.21875 C 255.4415 188.76275 258.5165 189.12125 259.8125 191.28125 C 262.5485 195.52925 268.96425 195.25625 275.15625 191.65625 C 276.95625 190.50425 278.55175 191.55725 279.34375 192.78125 C 280.78375 195.08525 282.5785 197.77625 280.5625 200.65625 C 278.9065 203.10425 278.6945 205.81975 280.0625 208.84375 C 282.7985 214.38775 286.461 215.40325 289.125 213.53125 C 292.437 211.22725 294.17875 204.5165 290.21875 196.8125 C 299.57875 194.3645 306.9005 192.57025 313.8125 189.90625 C 314.1725 189.76225 314.59925 189.61275 315.03125 189.46875 C 316.75925 188.74875 318.49075 187.9795 320.21875 187.1875 C 321.73075 186.4675 323.26925 185.6765 324.78125 184.8125 C 325.35725 184.4525 325.9865 184.07875 326.5625 183.71875 C 327.3545 183.28675 328.1455 182.78525 328.9375 182.28125 C 330.7375 181.12925 332.609 179.7525 334.625 178.3125 C 337.217 176.3685 340.97275 172.2855 331.46875 173.4375 C 330.60475 173.5095 329.7295 173.64675 328.9375 173.71875 C 328.1455 173.79075 327.3545 173.928 326.5625 174 C 325.9865 174.072 325.35725 174.14675 324.78125 174.21875 C 323.19725 174.43475 321.73075 174.63725 320.21875 174.78125 L 315.03125 175.65625 C 314.59925 175.72825 314.1725 175.7405 313.8125 175.8125 C 306.5405 177.1085 299.57875 178.75725 290.21875 181.78125 C 289.85875 181.85325 289.485 181.981 289.125 182.125 C 273.861 186.877 261.8405 188.69975 249.3125 188.84375 L 247.15625 188.84375 C 245.42825 188.84375 243.69675 188.822 241.96875 188.75 C 240.81675 188.678 239.67375 188.697 238.59375 188.625 C 235.13775 188.409 231.6815 188.1725 227.9375 187.8125 C 224.0495 187.4525 219.86075 187.09775 215.46875 186.59375 C 220.58075 184.86575 223.9775 183.72125 227.9375 182.28125 C 229.7375 181.70525 231.66475 180.9795 233.96875 180.1875 C 235.55275 180.2595 237.08175 180.34375 238.59375 180.34375 C 239.74575 180.34375 240.81675 180.40625 241.96875 180.40625 L 247.15625 180.40625 C 247.87625 180.33425 248.5925 180.34375 249.3125 180.34375 C 264.0725 179.98375 276.021 177.9615 289.125 174.9375 C 294.165 173.7135 299.42475 172.40875 304.96875 170.96875 C 298.48875 171.11275 294.669 171.25275 289.125 171.46875 L 285.03125 171.625 C 280.63925 150.889 278.09825 139.24175 271.90625 120.59375 z M 236.9375 123.96875 C 234.1295 143.55275 232.45525 155.43525 233.03125 176.53125 C 231.30325 176.89125 229.5935 177.18075 227.9375 177.46875 C 217.7855 179.34075 210.439 180.628 202.375 182.5 C 197.767 183.58 192.86325 184.80325 187.03125 186.53125 C 179.03925 188.83525 178.02275 191.7815 184.71875 193.4375 C 190.83875 195.0215 196.615 195.8085 202.375 196.3125 C 210.367 197.0325 218.4335 197.1835 227.9375 197.6875 L 228.71875 197.75 C 228.93475 199.766 229.159 200.71225 229.375 202.65625 C 228.871 203.01625 228.3695 203.39 227.9375 203.75 C 222.8255 208.286 224.5535 215.17425 227.9375 217.40625 C 230.8175 219.27825 234.768 218.083 237 209.875 C 237.576 210.667 238.08975 211.37375 238.59375 212.09375 C 240.24975 215.04575 240.87625 218.14325 240.15625 222.03125 C 239.94025 223.11125 239.45775 224.261 238.59375 225.125 C 237.51375 226.133 235.91275 226.54875 233.96875 225.46875 C 232.31275 224.53275 230.1695 223.75825 227.9375 224.40625 C 227.2895 224.62225 226.61675 224.96475 225.96875 225.46875 C 222.65675 227.98875 221.672 229.14725 218 232.53125 C 213.752 236.34725 208.76275 235.79025 203.21875 241.40625 L 202.375 242.25 C 192.439 252.474 187.326 258.3915 177.75 268.6875 C 169.182 254.1435 164.34375 237.3655 164.34375 219.4375 C 164.34375 187.9735 179.263 159.74725 202.375 141.53125 C 210.079 135.48325 218.7215 130.50625 227.9375 126.90625 C 230.8895 125.82625 233.9135 124.83275 236.9375 123.96875 z M 240.96875 193.5 C 241.28262 193.4865 241.62675 193.49525 241.96875 193.53125 C 242.11275 193.53125 242.32475 193.52175 242.46875 193.59375 C 244.70075 193.88175 245.28425 195.401 247.15625 196.625 L 247.1875 196.6875 C 247.1695 196.6965 247.15625 196.714 247.15625 196.75 C 244.56425 197.758 246.5705 200.4895 245.5625 202.9375 C 244.4825 205.3855 243.48075 205.3885 241.96875 204.8125 C 241.82475 204.7405 241.7595 204.7595 241.6875 204.6875 C 240.1755 204.0395 239.31375 203.24575 238.59375 202.09375 C 238.23375 201.58975 237.8505 200.99175 237.5625 200.34375 C 235.9785 197.46375 236.64975 195.17375 238.59375 194.09375 C 239.24175 193.76975 240.02713 193.5405 240.96875 193.5 z M 287.625 199.28125 C 288.345 200.07325 288.837 200.80175 289.125 201.59375 C 289.773 203.10575 289.716 204.82775 289.5 206.84375 C 289.428 207.34775 289.341 207.78675 289.125 208.21875 C 287.973 211.02675 284.311 212.3815 283.375 210.4375 C 282.295 208.2055 282.19975 206.25375 282.34375 204.09375 C 284.57575 204.09375 286.113 201.44125 287.625 199.28125 z M 250.90625 202.65625 C 252.13025 202.65625 251.398 204.54225 250.75 205.40625 C 250.39 205.98225 249.8885 206.462 249.3125 206.75 C 248.7365 207.11 248.148 207.28125 247.5 207.28125 C 247.356 207.28125 247.22825 207.2595 247.15625 207.1875 C 247.01225 207.0435 247.01225 206.75675 247.15625 206.46875 C 247.37225 205.89275 247.79625 205.2445 248.15625 204.8125 C 248.58825 204.1645 248.9525 203.6725 249.3125 203.3125 C 249.7445 202.8805 250.25825 202.65625 250.90625 202.65625 z M 229.9375 205.09375 C 231.8095 206.10175 233.25025 207.69175 234.90625 208.84375 C 234.25825 211.43575 233.6845 213.47175 231.8125 215.34375 C 230.6605 216.42375 229.0175 216.12075 227.9375 214.96875 C 227.7215 214.68075 227.5815 214.39125 227.4375 214.03125 C 226.5735 212.30325 226.4975 209.9385 227.9375 207.5625 C 228.4415 206.6985 229.0735 205.88575 229.9375 205.09375 z M 328.875 215.84375 C 328.083 215.84375 327.34375 216.61425 327.34375 217.40625 C 327.34375 218.34225 328.083 219 328.875 219 L 328.9375 219 C 329.8015 219 330.46875 218.27025 330.46875 217.40625 C 330.46875 216.61425 329.8015 215.91575 328.9375 215.84375 L 328.875 215.84375 z M 320.21875 216.0625 C 319.35475 216.1345 318.71875 216.7705 318.71875 217.5625 C 318.71875 218.4265 319.35475 219.15625 320.21875 219.15625 L 320.3125 219.15625 C 321.1045 219.15625 321.8125 218.4985 321.8125 217.5625 C 321.8125 216.7705 321.1045 216.0625 320.3125 216.0625 L 320.21875 216.0625 z M 315.03125 221.3125 C 314.52725 221.3125 314.125 221.6835 314.125 222.1875 C 314.125 222.7635 314.52725 223.1875 315.03125 223.1875 C 315.53525 223.1875 315.96875 222.7635 315.96875 222.1875 C 315.96875 221.6835 315.53525 221.3125 315.03125 221.3125 z M 321.03125 222.1875 C 320.74325 222.1875 320.43475 222.37775 320.21875 222.59375 C 320.07475 222.73775 320 223.0245 320 223.3125 C 320 223.5285 320.07475 223.82475 320.21875 223.96875 C 320.43475 224.18475 320.74325 224.34375 321.03125 224.34375 C 321.67925 224.34375 322.1875 223.8165 322.1875 223.3125 C 322.1875 222.7365 321.67925 222.1875 321.03125 222.1875 z M 326.5625 222.53125 C 325.9865 222.53125 325.5 223.049 325.5 223.625 C 325.5 224.201 325.9865 224.6875 326.5625 224.6875 C 327.2105 224.6155 327.65625 224.201 327.65625 223.625 C 327.65625 223.049 327.2105 222.53125 326.5625 222.53125 z M 313.8125 228.0625 C 313.1645 228.0625 312.75 228.58025 312.75 229.15625 C 312.75 229.73225 313.1645 230.25 313.8125 230.25 C 314.3885 230.25 314.84375 229.73225 314.84375 229.15625 C 314.84375 228.58025 314.3885 228.0625 313.8125 228.0625 z M 320.21875 228.59375 C 319.57075 228.73775 319.15625 229.2175 319.15625 229.9375 C 319.15625 230.5855 319.57075 231.106 320.21875 231.25 C 320.36275 231.322 320.44975 231.3125 320.59375 231.3125 C 321.31375 231.3125 321.96875 230.7295 321.96875 229.9375 C 321.96875 229.1455 321.31375 228.59375 320.59375 228.59375 L 320.21875 228.59375 z M 324.78125 232.03125 C 324.13325 232.10325 323.6875 232.6115 323.6875 233.1875 C 323.6875 233.6915 324.13325 234.1875 324.78125 234.1875 C 325.28525 234.1875 325.84375 233.6915 325.84375 233.1875 C 325.84375 232.5395 325.28525 232.03125 324.78125 232.03125 z M 316.125 232.40625 C 315.693 232.40625 315.31925 232.61825 315.03125 232.90625 C 314.74325 233.19425 314.625 233.54625 314.625 233.90625 C 314.625 234.33825 314.74325 234.712 315.03125 235 C 315.31925 235.288 315.693 235.5 316.125 235.5 C 316.917 235.5 317.71875 234.84225 317.71875 233.90625 C 317.71875 233.11425 316.917 232.40625 316.125 232.40625 z M 320.71875 235.78125 C 320.57475 235.78125 320.36275 235.84375 320.21875 235.84375 C 319.78675 236.05975 319.5 236.496 319.5 237 C 319.5 237.504 319.78675 237.94025 320.21875 238.15625 C 320.36275 238.22825 320.57475 238.21875 320.71875 238.21875 C 321.36675 238.21875 321.96875 237.648 321.96875 237 C 321.96875 236.28 321.36675 235.78125 320.71875 235.78125 z M 315.03125 237.9375 C 314.52725 237.9375 314.0285 238.21475 313.8125 238.71875 C 313.6685 238.86275 313.6875 239.0965 313.6875 239.3125 C 313.6875 239.5285 313.6685 239.75275 313.8125 239.96875 C 314.0285 240.40075 314.52725 240.59375 315.03125 240.59375 C 315.82325 240.59375 316.40625 240.1045 316.40625 239.3125 C 316.40625 238.5205 315.82325 237.9375 315.03125 237.9375 z M 320 241.25 C 319.208 241.25 318.71875 241.75825 318.71875 242.40625 C 318.71875 243.19825 319.208 243.6875 320 243.6875 L 320.21875 243.6875 C 320.79475 243.5435 321.15625 243.05425 321.15625 242.40625 C 321.15625 241.83025 320.79475 241.394 320.21875 241.25 L 320 241.25 z M 330.375 241.5 C 331.84987 241.45275 333.14275 242.141 331.46875 244.625 C 330.60475 246.065 329.7295 247.507 328.9375 248.875 C 328.1455 250.099 327.4265 251.3385 326.5625 252.5625 C 325.9865 253.4265 325.42925 254.29225 324.78125 255.15625 C 323.48525 256.66825 322.01875 258.17275 320.21875 259.46875 C 319.71475 259.90075 319.1385 260.265 318.5625 260.625 C 317.1225 261.561 315.76375 263.50575 316.84375 265.59375 C 318.28375 267.96975 319.57075 269.033 320.21875 271.625 L 320.3125 271.78125 C 320.6725 273.22125 320.72275 274.52325 320.21875 275.53125 C 319.93075 276.32325 319.28925 276.89 318.28125 277.25 C 317.20125 277.682 316.11125 278.10875 315.03125 278.46875 C 314.59925 278.61275 314.1725 278.76225 313.8125 278.90625 C 309.3485 280.49025 304.60375 281.924 298.84375 282.5 C 295.31575 282.86 294.243 285.53425 292.875 287.40625 C 291.219 289.63825 290.493 291.09 289.125 293.25 C 288.981 293.466 288.92525 293.659 288.78125 293.875 C 286.76525 297.043 284.2255 296.40575 283.9375 293.09375 C 283.1455 285.53375 282.72425 280.647 283.15625 273.375 C 285.60425 270.063 287.181 267.88275 289.125 265.21875 L 291.78125 261.625 C 293.00525 259.897 293.51925 258.96175 295.03125 257.59375 C 298.70325 254.06575 300.506 252.278 304.25 248.75 C 304.898 248.174 306.322 248.814 306.25 249.75 C 306.034 251.838 305.9035 252.9025 305.6875 255.0625 C 305.5435 255.9985 304.44825 255.64 303.65625 256 C 303.08025 256.288 303.674 257.80975 304.25 257.59375 C 308.138 256.15375 310.5725 255.29875 313.8125 254.21875 L 315.03125 253.78125 C 315.75125 253.49325 316.55175 253.26625 317.34375 252.90625 C 318.42375 252.04225 319.35475 251.4075 320.21875 250.6875 C 321.15475 250.0395 321.94575 249.3015 322.59375 248.4375 C 323.38575 247.3575 324.06125 246.4265 324.78125 245.5625 C 325.28525 244.7705 325.9145 244.12625 326.5625 243.40625 C 326.9945 242.97425 327.424 242.6195 328 242.1875 C 328.144 242.0435 328.5055 241.894 328.9375 241.75 C 329.3695 241.606 329.88338 241.51575 330.375 241.5 z M 315.6875 245.4375 C 315.3995 245.4375 315.17525 245.51225 315.03125 245.65625 C 314.88725 245.80025 314.75 246.06525 314.75 246.28125 C 314.75 246.56925 314.88725 246.7935 315.03125 246.9375 C 315.17525 247.0815 315.3995 247.21875 315.6875 247.21875 C 316.1915 247.21875 316.5625 246.78525 316.5625 246.28125 C 316.5625 245.77725 316.1915 245.4375 315.6875 245.4375 z "
       transform="matrix(1,0,0,-1,37.466,661.3)"
       id="path23" />
  </g>
</svg>
