  0
SECTION
  2
HEADER
  9
$ACADVER
  1
AC1014
  9
$HANDSEED
  5
FFFF
  9
$MEASUREMENT
 70
     1
  0
ENDSEC
  0
SECTION
  2
TABLES
  0
TABLE
  2
VPORT
  5
8
330
0
100
AcDbSymbolTable
 70
     4
  0
VPORT
  5
2E
330
8
100
AcDbSymbolTableRecord
100
AcDbViewportTableRecord
  2
*ACTIVE
 70
     0
 10
0.0
 20
0.0
 11
1.0
 21
1.0
 12
210.0
 22
148.5
 13
0.0
 23
0.0
 14
10.0
 24
10.0
 15
10.0
 25
10.0
 16
0.0
 26
0.0
 36
1.0
 17
0.0
 27
0.0
 37
0.0
 40
341.0
 41
1.24
 42
50.0
 43
0.0
 44
0.0
 50
0.0
 51
0.0
 71
     0
 72
   100
 73
     1
 74
     3
 75
     0
 76
     0
 77
     0
 78
     0
  0
ENDTAB
  0
TABLE
  2
LTYPE
  5
5
330
0
100
AcDbSymbolTable
 70
     1
  0
LTYPE
  5
14
330
5
100
AcDbSymbolTableRecord
100
AcDbLinetypeTableRecord
  2
BYBLOCK
 70
     0
  3

 72
    65
 73
     0
 40
0.0
  0
LTYPE
  5
15
330
5
100
AcDbSymbolTableRecord
100
AcDbLinetypeTableRecord
  2
BYLAYER
 70
     0
  3

 72
    65
 73
     0
 40
0.0
  0
LTYPE
  5
16
330
5
100
AcDbSymbolTableRecord
100
AcDbLinetypeTableRecord
  2
CONTINUOUS
 70
     0
  3
Solid line
 72
    65
 73
     0
 40
0.0
  0
ENDTAB
  0
TABLE
  2
LAYER
  5
2
100
AcDbSymbolTable
 70
1
  0
LAYER
  5
50
100
AcDbSymbolTableRecord
100
AcDbLayerTableRecord
  2
0
 70
0
  6
CONTINUOUS
  0
ENDTAB
  0
TABLE
  2
STYLE
  5
3
330
0
100
AcDbSymbolTable
 70
     1
  0
STYLE
  5
11
330
3
100
AcDbSymbolTableRecord
100
AcDbTextStyleTableRecord
  2
STANDARD
 70
     0
 40
0.0
 41
1.0
 50
0.0
 71
     0
 42
2.5
  3
txt
  4

  0
ENDTAB
  0
TABLE
  2
VIEW
  5
6
330
0
100
AcDbSymbolTable
 70
     0
  0
ENDTAB
  0
TABLE
  2
UCS
  5
7
330
0
100
AcDbSymbolTable
 70
     0
  0
ENDTAB
  0
TABLE
  2
APPID
  5
9
330
0
100
AcDbSymbolTable
 70
     2
  0
APPID
  5
12
330
9
100
AcDbSymbolTableRecord
100
AcDbRegAppTableRecord
  2
ACAD
 70
     0
  0
ENDTAB
  0
TABLE
  2
DIMSTYLE
  5
A
330
0
100
AcDbSymbolTable
 70
     1
  0
DIMSTYLE
105
27
330
A
100
AcDbSymbolTableRecord
100
AcDbDimStyleTableRecord
  2
ISO-25
 70
     0
  3

  4

  5

  6

  7

 40
1.0
 41
2.5
 42
0.625
 43
3.75
 44
1.25
 45
0.0
 46
0.0
 47
0.0
 48
0.0
140
2.5
141
2.5
142
0.0
143
0.03937007874016
144
1.0
145
0.0
146
1.0
147
0.625
 71
     0
 72
     0
 73
     0
 74
     0
 75
     0
 76
     0
 77
     1
 78
     8
170
     0
171
     3
172
     1
173
     0
174
     0
175
     0
176
     0
177
     0
178
     0
270
     2
271
     2
272
     2
273
     2
274
     3
340
11
275
     0
280
     0
281
     0
282
     0
283
     0
284
     8
285
     0
286
     0
287
     3
288
     0
  0
ENDTAB
  0
TABLE
  2
BLOCK_RECORD
  5
1
330
0
100
AcDbSymbolTable
 70
     1
  0
BLOCK_RECORD
  5
1F
330
1
100
AcDbSymbolTableRecord
100
AcDbBlockTableRecord
  2
*MODEL_SPACE
  0
BLOCK_RECORD
  5
1B
330
1
100
AcDbSymbolTableRecord
100
AcDbBlockTableRecord
  2
*PAPER_SPACE
  0
ENDTAB
  0
ENDSEC
  0
SECTION
  2
BLOCKS
  0
BLOCK
  5
20
330
1F
100
AcDbEntity
  8
0
100
AcDbBlockBegin
  2
*MODEL_SPACE
 70
     0
 10
0.0
 20
0.0
 30
0.0
  3
*MODEL_SPACE
  1

  0
ENDBLK
  5
21
330
1F
100
AcDbEntity
  8
0
100
AcDbBlockEnd
  0
BLOCK
  5
1C
330
1B
100
AcDbEntity
 67
     1
  8
0
100
AcDbBlockBegin
  2
*PAPER_SPACE
  1

  0
ENDBLK
  5
1D
330
1B
100
AcDbEntity
 67
     1
  8
0
100
AcDbBlockEnd
  0
ENDSEC
  0
SECTION
  2
ENTITIES
  0
SPLINE
  5
100
100
AcDbEntity
  8
0
 62
7
100
AcDbSpline
 70
8
 71
3
 72
8
 73
4
 74
0
 40
0
 40
0
 40
0
 40
0
 40
1
 40
1
 40
1
 40
1
 10
74.282582
 20
81.479813
 30
0.0
 10
91.046582
 20
81.479813
 30
0.0
 10
104.701622
 20
67.824773
 30
0.0
 10
104.701622
 20
51.081093
 30
0.0
  0
SPLINE
  5
101
100
AcDbEntity
  8
0
 62
7
100
AcDbSpline
 70
8
 71
3
 72
8
 73
4
 74
0
 40
0
 40
0
 40
0
 40
0
 40
1
 40
1
 40
1
 40
1
 10
104.701622
 20
51.081093
 30
0.0
 10
104.701622
 20
34.337413
 30
0.0
 10
91.046582
 20
20.682373
 30
0.0
 10
74.282582
 20
20.682373
 30
0.0
  0
SPLINE
  5
102
100
AcDbEntity
  8
0
 62
7
100
AcDbSpline
 70
8
 71
3
 72
8
 73
4
 74
0
 40
0
 40
0
 40
0
 40
0
 40
1
 40
1
 40
1
 40
1
 10
74.282582
 20
20.682373
 30
0.0
 10
57.559222
 20
20.682373
 30
0.0
 10
43.904182
 20
34.337413
 30
0.0
 10
43.904182
 20
51.081093
 30
0.0
  0
SPLINE
  5
103
100
AcDbEntity
  8
0
 62
7
100
AcDbSpline
 70
8
 71
3
 72
8
 73
4
 74
0
 40
0
 40
0
 40
0
 40
0
 40
1
 40
1
 40
1
 40
1
 10
43.904182
 20
51.081093
 30
0.0
 10
43.904182
 20
67.824773
 30
0.0
 10
57.559222
 20
81.479813
 30
0.0
 10
74.282582
 20
81.479813
 30
0.0
  0
SPLINE
  5
104
100
AcDbEntity
  8
0
 62
7
100
AcDbSpline
 70
8
 71
3
 72
8
 73
4
 74
0
 40
0
 40
0
 40
0
 40
0
 40
1
 40
1
 40
1
 40
1
 10
74.383194
 20
80.380417
 30
0.0
 10
73.042074
 20
80.380417
 30
0.0
 10
71.682328
 20
80.281074
 30
0.0
 10
70.361528
 20
80.098194
 30
0.0
  0
SPLINE
  5
105
100
AcDbEntity
  8
0
 62
7
100
AcDbSpline
 70
8
 71
3
 72
8
 73
4
 74
0
 40
0
 40
0
 40
0
 40
0
 40
1
 40
1
 40
1
 40
1
 10
70.361528
 20
80.098194
 30
0.0
 10
70.158328
 20
80.057554
 30
0.0
 10
69.956186
 20
80.033001
 30
0.0
 10
69.752986
 20
79.992361
 30
0.0
  0
SPLINE
  5
106
100
AcDbEntity
  8
0
 62
7
100
AcDbSpline
 70
8
 71
3
 72
8
 73
4
 74
0
 40
0
 40
0
 40
0
 40
0
 40
1
 40
1
 40
1
 40
1
 10
69.752986
 20
79.992361
 30
0.0
 10
69.265306
 20
79.911081
 30
0.0
 10
68.776638
 20
79.838197
 30
0.0
 10
68.288958
 20
79.736597
 30
0.0
  0
SPLINE
  5
107
100
AcDbEntity
  8
0
 62
7
100
AcDbSpline
 70
8
 71
3
 72
8
 73
4
 74
0
 40
0
 40
0
 40
0
 40
0
 40
1
 40
1
 40
1
 40
1
 10
68.288958
 20
79.736597
 30
0.0
 10
67.963838
 20
79.655317
 30
0.0
 10
67.641258
 20
79.588572
 30
0.0
 10
67.336458
 20
79.507292
 30
0.0
  0
SPLINE
  5
108
100
AcDbEntity
  8
0
 62
7
100
AcDbSpline
 70
8
 71
3
 72
8
 73
4
 74
0
 40
0
 40
0
 40
0
 40
0
 40
1
 40
1
 40
1
 40
1
 10
67.336458
 20
79.507292
 30
0.0
 10
66.300138
 20
79.243132
 30
0.0
 10
65.304388
 20
78.938191
 30
0.0
 10
64.329028
 20
78.572431
 30
0.0
  0
SPLINE
  5
109
100
AcDbEntity
  8
0
 62
7
100
AcDbSpline
 70
8
 71
3
 72
8
 73
4
 74
0
 40
0
 40
0
 40
0
 40
0
 40
1
 40
1
 40
1
 40
1
 10
64.329028
 20
78.572431
 30
0.0
 10
61.748388
 20
77.637711
 30
0.0
 10
59.329602
 20
76.314794
 30
0.0
 10
57.114722
 20
74.709514
 30
0.0
  0
SPLINE
  5
10a
100
AcDbEntity
  8
0
 62
7
100
AcDbSpline
 70
8
 71
3
 72
8
 73
4
 74
0
 40
0
 40
0
 40
0
 40
0
 40
1
 40
1
 40
1
 40
1
 10
57.114722
 20
74.709514
 30
0.0
 10
49.779202
 20
69.345034
 30
0.0
 10
45.005625
 20
60.692030
 30
0.0
 10
45.005625
 20
50.958750
 30
0.0
  0
SPLINE
  5
10b
100
AcDbEntity
  8
0
 62
7
100
AcDbSpline
 70
8
 71
3
 72
8
 73
4
 74
0
 40
0
 40
0
 40
0
 40
0
 40
1
 40
1
 40
1
 40
1
 10
45.005625
 20
50.958750
 30
0.0
 10
45.005625
 20
41.245790
 30
0.0
 10
49.779202
 20
32.590105
 30
0.0
 10
57.114722
 20
27.225625
 30
0.0
  0
SPLINE
  5
10c
100
AcDbEntity
  8
0
 62
7
100
AcDbSpline
 70
8
 71
3
 72
8
 73
4
 74
0
 40
0
 40
0
 40
0
 40
0
 40
1
 40
1
 40
1
 40
1
 10
57.114722
 20
27.225625
 30
0.0
 10
59.329602
 20
25.620345
 30
0.0
 10
61.748388
 20
24.300109
 30
0.0
 10
64.329028
 20
23.345069
 30
0.0
  0
SPLINE
  5
10d
100
AcDbEntity
  8
0
 62
7
100
AcDbSpline
 70
8
 71
3
 72
8
 73
4
 74
0
 40
0
 40
0
 40
0
 40
0
 40
1
 40
1
 40
1
 40
1
 10
64.329028
 20
23.345069
 30
0.0
 10
65.304388
 20
22.999629
 30
0.0
 10
66.300138
 20
22.692007
 30
0.0
 10
67.336458
 20
22.427847
 30
0.0
  0
SPLINE
  5
10e
100
AcDbEntity
  8
0
 62
7
100
AcDbSpline
 70
8
 71
3
 72
8
 73
4
 74
0
 40
0
 40
0
 40
0
 40
0
 40
1
 40
1
 40
1
 40
1
 10
67.336458
 20
22.427847
 30
0.0
 10
67.641258
 20
22.346567
 30
0.0
 10
67.963838
 20
22.288641
 30
0.0
 10
68.288958
 20
22.207361
 30
0.0
  0
SPLINE
  5
10f
100
AcDbEntity
  8
0
 62
7
100
AcDbSpline
 70
8
 71
3
 72
8
 73
4
 74
0
 40
0
 40
0
 40
0
 40
0
 40
1
 40
1
 40
1
 40
1
 10
68.288958
 20
22.207361
 30
0.0
 10
68.776638
 20
22.105761
 30
0.0
 10
69.265306
 20
22.024058
 30
0.0
 10
69.752986
 20
21.942778
 30
0.0
  0
SPLINE
  5
110
100
AcDbEntity
  8
0
 62
7
100
AcDbSpline
 70
8
 71
3
 72
8
 73
4
 74
0
 40
0
 40
0
 40
0
 40
0
 40
1
 40
1
 40
1
 40
1
 10
69.752986
 20
21.942778
 30
0.0
 10
69.956186
 20
21.902138
 30
0.0
 10
70.158328
 20
21.877584
 30
0.0
 10
70.361528
 20
21.836944
 30
0.0
  0
SPLINE
  5
111
100
AcDbEntity
  8
0
 62
7
100
AcDbSpline
 70
8
 71
3
 72
8
 73
4
 74
0
 40
0
 40
0
 40
0
 40
0
 40
1
 40
1
 40
1
 40
1
 10
70.361528
 20
21.836944
 30
0.0
 10
71.682328
 20
21.654064
 30
0.0
 10
73.042074
 20
21.554722
 30
0.0
 10
74.383194
 20
21.554722
 30
0.0
  0
SPLINE
  5
112
100
AcDbEntity
  8
0
 62
7
100
AcDbSpline
 70
8
 71
3
 72
8
 73
4
 74
0
 40
0
 40
0
 40
0
 40
0
 40
1
 40
1
 40
1
 40
1
 10
74.383194
 20
21.554722
 30
0.0
 10
76.882554
 20
21.554722
 30
0.0
 10
79.301340
 20
21.882664
 30
0.0
 10
81.597500
 20
22.471944
 30
0.0
  0
SPLINE
  5
113
100
AcDbEntity
  8
0
 62
7
100
AcDbSpline
 70
8
 71
3
 72
8
 73
4
 74
0
 40
0
 40
0
 40
0
 40
0
 40
1
 40
1
 40
1
 40
1
 10
81.597500
 20
22.471944
 30
0.0
 10
84.056220
 20
23.081544
 30
0.0
 10
86.390621
 20
24.015912
 30
0.0
 10
88.564861
 20
25.214792
 30
0.0
  0
SPLINE
  5
114
100
AcDbEntity
  8
0
 62
7
100
AcDbSpline
 70
8
 71
3
 72
8
 73
4
 74
0
 40
0
 40
0
 40
0
 40
0
 40
1
 40
1
 40
1
 40
1
 10
88.564861
 20
25.214792
 30
0.0
 10
88.666461
 20
25.275752
 30
0.0
 10
88.786899
 20
25.356679
 30
0.0
 10
88.908819
 20
25.417639
 30
0.0
  0
SPLINE
  5
115
100
AcDbEntity
  8
0
 62
7
100
AcDbSpline
 70
8
 71
3
 72
8
 73
4
 74
0
 40
0
 40
0
 40
0
 40
0
 40
1
 40
1
 40
1
 40
1
 10
88.908819
 20
25.417639
 30
0.0
 10
89.396499
 20
25.702119
 30
0.0
 10
89.905487
 20
26.003603
 30
0.0
 10
90.372847
 20
26.308403
 30
0.0
  0
SPLINE
  5
116
100
AcDbEntity
  8
0
 62
7
100
AcDbSpline
 70
8
 71
3
 72
8
 73
4
 74
0
 40
0
 40
0
 40
0
 40
0
 40
1
 40
1
 40
1
 40
1
 10
90.372847
 20
26.308403
 30
0.0
 10
90.799567
 20
26.592883
 30
0.0
 10
91.233766
 20
26.876728
 30
0.0
 10
91.660486
 20
27.181528
 30
0.0
  0
SPLINE
  5
117
100
AcDbEntity
  8
0
 62
7
100
AcDbSpline
 70
8
 71
3
 72
8
 73
4
 74
0
 40
0
 40
0
 40
0
 40
0
 40
1
 40
1
 40
1
 40
1
 10
91.660486
 20
27.181528
 30
0.0
 10
91.823046
 20
27.303448
 30
0.0
 10
92.000634
 20
27.447663
 30
0.0
 10
92.163194
 20
27.569583
 30
0.0
  0
SPLINE
  5
118
100
AcDbEntity
  8
0
 62
7
100
AcDbSpline
 70
8
 71
3
 72
8
 73
4
 74
0
 40
0
 40
0
 40
0
 40
0
 40
1
 40
1
 40
1
 40
1
 10
92.163194
 20
27.569583
 30
0.0
 10
92.386714
 20
27.752463
 30
0.0
 10
92.609952
 20
27.915870
 30
0.0
 10
92.833472
 20
28.098750
 30
0.0
  0
SPLINE
  5
119
100
AcDbEntity
  8
0
 62
7
100
AcDbSpline
 70
8
 71
3
 72
8
 73
4
 74
0
 40
0
 40
0
 40
0
 40
0
 40
1
 40
1
 40
1
 40
1
 10
92.833472
 20
28.098750
 30
0.0
 10
99.518752
 20
33.503870
 30
0.0
 10
103.831319
 20
41.753790
 30
0.0
 10
103.831319
 20
50.958750
 30
0.0
  0
SPLINE
  5
11a
100
AcDbEntity
  8
0
 62
7
100
AcDbSpline
 70
8
 71
3
 72
8
 73
4
 74
0
 40
0
 40
0
 40
0
 40
0
 40
1
 40
1
 40
1
 40
1
 10
103.831319
 20
50.958750
 30
0.0
 10
103.831319
 20
60.163710
 30
0.0
 10
99.518752
 20
68.431269
 30
0.0
 10
92.833472
 20
73.836389
 30
0.0
  0
SPLINE
  5
11b
100
AcDbEntity
  8
0
 62
7
100
AcDbSpline
 70
8
 71
3
 72
8
 73
4
 74
0
 40
0
 40
0
 40
0
 40
0
 40
1
 40
1
 40
1
 40
1
 10
92.833472
 20
73.836389
 30
0.0
 10
92.609952
 20
74.019269
 30
0.0
 10
92.386714
 20
74.185357
 30
0.0
 10
92.163194
 20
74.347917
 30
0.0
  0
SPLINE
  5
11c
100
AcDbEntity
  8
0
 62
7
100
AcDbSpline
 70
8
 71
3
 72
8
 73
4
 74
0
 40
0
 40
0
 40
0
 40
0
 40
1
 40
1
 40
1
 40
1
 10
92.163194
 20
74.347917
 30
0.0
 10
92.000634
 20
74.490157
 30
0.0
 10
91.823046
 20
74.611371
 30
0.0
 10
91.660486
 20
74.753611
 30
0.0
  0
SPLINE
  5
11d
100
AcDbEntity
  8
0
 62
7
100
AcDbSpline
 70
8
 71
3
 72
8
 73
4
 74
0
 40
0
 40
0
 40
0
 40
0
 40
1
 40
1
 40
1
 40
1
 10
91.660486
 20
74.753611
 30
0.0
 10
91.233766
 20
75.058411
 30
0.0
 10
90.799567
 20
75.342256
 30
0.0
 10
90.372847
 20
75.626736
 30
0.0
  0
SPLINE
  5
11e
100
AcDbEntity
  8
0
 62
7
100
AcDbSpline
 70
8
 71
3
 72
8
 73
4
 74
0
 40
0
 40
0
 40
0
 40
0
 40
1
 40
1
 40
1
 40
1
 10
90.372847
 20
75.626736
 30
0.0
 10
89.905487
 20
75.931536
 30
0.0
 10
89.396499
 20
76.233020
 30
0.0
 10
88.908819
 20
76.517500
 30
0.0
  0
SPLINE
  5
11f
100
AcDbEntity
  8
0
 62
7
100
AcDbSpline
 70
8
 71
3
 72
8
 73
4
 74
0
 40
0
 40
0
 40
0
 40
0
 40
1
 40
1
 40
1
 40
1
 10
88.908819
 20
76.517500
 30
0.0
 10
88.786899
 20
76.578460
 30
0.0
 10
88.666461
 20
76.641748
 30
0.0
 10
88.564861
 20
76.702708
 30
0.0
  0
SPLINE
  5
120
100
AcDbEntity
  8
0
 62
7
100
AcDbSpline
 70
8
 71
3
 72
8
 73
4
 74
0
 40
0
 40
0
 40
0
 40
0
 40
1
 40
1
 40
1
 40
1
 10
88.564861
 20
76.702708
 30
0.0
 10
86.390621
 20
77.921908
 30
0.0
 10
84.056220
 20
78.862414
 30
0.0
 10
81.597500
 20
79.472014
 30
0.0
  0
SPLINE
  5
121
100
AcDbEntity
  8
0
 62
7
100
AcDbSpline
 70
8
 71
3
 72
8
 73
4
 74
0
 40
0
 40
0
 40
0
 40
0
 40
1
 40
1
 40
1
 40
1
 10
81.597500
 20
79.472014
 30
0.0
 10
79.301340
 20
80.061294
 30
0.0
 10
76.882554
 20
80.380417
 30
0.0
 10
74.383194
 20
80.380417
 30
0.0
  0
LWPOLYLINE
  5
122
100
AcDbEntity
  8
0
 62
7
100
AcDbPolyline
 90
107
 70
0
 10
74.282582
 20
20.682373
 30
0.0
 10
74.282582
 20
19.158373
 30
0.0
 10
75.867542
 20
17.939173
 30
0.0
 10
78.346582
 20
20.540133
 30
0.0
 10
81.028822
 20
18.650373
 30
0.0
 10
82.735702
 20
21.657733
 30
0.0
 10
86.210422
 20
19.503813
 30
0.0
 10
87.368662
 20
22.511173
 30
0.0
 10
90.579222
 20
21.129413
 30
0.0
 10
90.640182
 20
24.990213
 30
0.0
 10
94.114902
 20
23.628773
 30
0.0
 10
94.704182
 20
26.819013
 30
0.0
 10
97.386422
 20
26.819013
 30
0.0
 10
97.386422
 20
30.029573
 30
0.0
 10
100.068662
 20
30.293733
 30
0.0
 10
99.865462
 20
33.748133
 30
0.0
 10
103.197942
 20
34.337413
 30
0.0
 10
102.283542
 20
37.547973
 30
0.0
 10
104.904822
 20
37.730853
 30
0.0
 10
103.462102
 20
40.413093
 30
0.0
 10
106.266262
 20
41.205573
 30
0.0
 10
104.559382
 20
43.684613
 30
0.0
 10
106.916502
 20
44.477093
 30
0.0
 10
104.904822
 20
46.813893
 30
0.0
 10
107.119702
 20
48.500453
 30
0.0
 10
104.904822
 20
50.654373
 30
0.0
 10
107.180662
 20
52.361253
 30
0.0
 10
105.412822
 20
54.068133
 30
0.0
 10
107.769942
 20
55.571813
 30
0.0
 10
104.823542
 20
57.136453
 30
0.0
 10
107.180662
 20
59.351333
 30
0.0
 10
103.848182
 20
60.794053
 30
0.0
 10
105.880182
 20
63.151173
 30
0.0
 10
102.405462
 20
64.065573
 30
0.0
 10
103.258902
 20
66.686853
 30
0.0
 10
100.637622
 20
67.662213
 30
0.0
 10
101.897462
 20
70.466373
 30
0.0
 10
98.036662
 20
70.283493
 30
0.0
 10
98.219542
 20
73.941093
 30
0.0
 10
94.826102
 20
73.473733
 30
0.0
 10
94.968342
 20
76.806213
 30
0.0
 10
91.960982
 20
75.952773
 30
0.0
 10
91.371702
 20
79.285253
 30
0.0
 10
88.100182
 20
78.248933
 30
0.0
 10
87.836022
 20
80.870213
 30
0.0
 10
83.975222
 20
79.874533
 30
0.0
 10
82.796662
 20
83.085093
 30
0.0
 10
79.403222
 20
81.134373
 30
0.0
 10
78.163702
 20
83.999493
 30
0.0
 10
74.892182
 20
81.581413
 30
0.0
 10
74.282582
 20
82.373893
 30
0.0
 10
74.282582
 20
81.479813
 30
0.0
 10
74.282582
 20
81.479813
 30
0.0
 10
74.282582
 20
82.373893
 30
0.0
 10
73.205622
 20
83.796293
 30
0.0
 10
71.193942
 20
81.378213
 30
0.0
 10
68.369462
 20
83.613413
 30
0.0
 10
66.215542
 20
80.463813
 30
0.0
 10
64.650902
 20
82.292613
 30
0.0
 10
63.004982
 20
79.549413
 30
0.0
 10
59.936662
 20
80.788933
 30
0.0
 10
59.428662
 20
77.720613
 30
0.0
 10
56.543222
 20
78.777253
 30
0.0
 10
56.218102
 20
75.830853
 30
0.0
 10
53.149782
 20
76.095013
 30
0.0
 10
52.824662
 20
73.026693
 30
0.0
 10
50.081462
 20
73.534693
 30
0.0
 10
49.939222
 20
69.816133
 30
0.0
 10
46.606742
 20
69.755173
 30
0.0
 10
47.582102
 20
66.280453
 30
0.0
 10
45.042102
 20
66.158533
 30
0.0
 10
45.692342
 20
62.887013
 30
0.0
 10
43.335222
 20
62.094533
 30
0.0
 10
44.574742
 20
59.676453
 30
0.0
 10
42.806902
 20
59.168453
 30
0.0
 10
44.127702
 20
56.933253
 30
0.0
 10
41.770582
 20
56.222053
 30
0.0
 10
43.985462
 20
53.925893
 30
0.0
 10
41.059382
 20
52.097093
 30
0.0
 10
43.802582
 20
50.146373
 30
0.0
 10
41.506422
 20
48.703653
 30
0.0
 10
43.863542
 20
47.260933
 30
0.0
 10
41.892502
 20
45.046053
 30
0.0
 10
44.249622
 20
43.826853
 30
0.0
 10
42.359862
 20
41.916773
 30
0.0
 10
45.428182
 20
41.469733
 30
0.0
 10
43.599382
 20
38.909413
 30
0.0
 10
46.545782
 20
38.137253
 30
0.0
 10
45.224982
 20
35.312773
 30
0.0
 10
48.232342
 20
34.987653
 30
0.0
 10
47.196022
 20
32.061573
 30
0.0
 10
50.528502
 20
31.533253
 30
0.0
 10
49.349942
 20
29.176133
 30
0.0
 10
53.271702
 20
28.790053
 30
0.0
 10
53.271702
 20
25.051173
 30
0.0
 10
56.279062
 20
26.229733
 30
0.0
 10
56.218102
 20
23.039493
 30
0.0
 10
60.261782
 20
23.811653
 30
0.0
 10
60.017942
 20
20.804293
 30
0.0
 10
63.675542
 20
21.718693
 30
0.0
 10
65.504342
 20
18.975493
 30
0.0
 10
68.186582
 20
20.418213
 30
0.0
 10
70.279542
 20
18.061093
 30
0.0
 10
73.286902
 20
19.950853
 30
0.0
 10
74.282582
 20
19.158373
 30
0.0
 10
74.282582
 20
20.682373
 30
0.0
 10
74.282582
 20
20.682373
 30
0.0
  0
SPLINE
  5
123
100
AcDbEntity
  8
0
 62
7
100
AcDbSpline
 70
8
 71
3
 72
8
 73
4
 74
0
 40
0
 40
0
 40
0
 40
0
 40
1
 40
1
 40
1
 40
1
 10
76.737986
 20
78.854653
 30
0.0
 10
78.404226
 20
78.712413
 30
0.0
 10
80.032860
 20
78.432025
 30
0.0
 10
81.597500
 20
78.025625
 30
0.0
  0
SPLINE
  5
124
100
AcDbEntity
  8
0
 62
7
100
AcDbSpline
 70
8
 71
3
 72
8
 73
4
 74
0
 40
0
 40
0
 40
0
 40
0
 40
1
 40
1
 40
1
 40
1
 10
81.597500
 20
78.025625
 30
0.0
 10
84.076540
 20
77.355065
 30
0.0
 10
86.410941
 20
76.377729
 30
0.0
 10
88.564861
 20
75.097569
 30
0.0
  0
SPLINE
  5
125
100
AcDbEntity
  8
0
 62
7
100
AcDbSpline
 70
8
 71
3
 72
8
 73
4
 74
0
 40
0
 40
0
 40
0
 40
0
 40
1
 40
1
 40
1
 40
1
 10
88.564861
 20
75.097569
 30
0.0
 10
88.666461
 20
75.036609
 30
0.0
 10
88.786899
 20
74.955682
 30
0.0
 10
88.908819
 20
74.894722
 30
0.0
  0
SPLINE
  5
126
100
AcDbEntity
  8
0
 62
7
100
AcDbSpline
 70
8
 71
3
 72
8
 73
4
 74
0
 40
0
 40
0
 40
0
 40
0
 40
1
 40
1
 40
1
 40
1
 10
88.908819
 20
74.894722
 30
0.0
 10
89.416819
 20
74.589922
 30
0.0
 10
89.905487
 20
74.267342
 30
0.0
 10
90.372847
 20
73.942222
 30
0.0
  0
SPLINE
  5
127
100
AcDbEntity
  8
0
 62
7
100
AcDbSpline
 70
8
 71
3
 72
8
 73
4
 74
0
 40
0
 40
0
 40
0
 40
0
 40
1
 40
1
 40
1
 40
1
 10
90.372847
 20
73.942222
 30
0.0
 10
90.819887
 20
73.637422
 30
0.0
 10
91.233766
 20
73.332481
 30
0.0
 10
91.660486
 20
73.007361
 30
0.0
  0
SPLINE
  5
128
100
AcDbEntity
  8
0
 62
7
100
AcDbSpline
 70
8
 71
3
 72
8
 73
4
 74
0
 40
0
 40
0
 40
0
 40
0
 40
1
 40
1
 40
1
 40
1
 10
91.660486
 20
73.007361
 30
0.0
 10
91.823046
 20
72.865121
 30
0.0
 10
92.000634
 20
72.726268
 30
0.0
 10
92.163194
 20
72.584028
 30
0.0
  0
SPLINE
  5
129
100
AcDbEntity
  8
0
 62
7
100
AcDbSpline
 70
8
 71
3
 72
8
 73
4
 74
0
 40
0
 40
0
 40
0
 40
0
 40
1
 40
1
 40
1
 40
1
 10
92.163194
 20
72.584028
 30
0.0
 10
92.386714
 20
72.401148
 30
0.0
 10
92.609952
 20
72.213964
 30
0.0
 10
92.833472
 20
72.010764
 30
0.0
  0
SPLINE
  5
12a
100
AcDbEntity
  8
0
 62
7
100
AcDbSpline
 70
8
 71
3
 72
8
 73
4
 74
0
 40
0
 40
0
 40
0
 40
0
 40
1
 40
1
 40
1
 40
1
 10
92.833472
 20
72.010764
 30
0.0
 10
98.705952
 20
66.869804
 30
0.0
 10
102.429028
 20
59.330590
 30
0.0
 10
102.429028
 20
50.958750
 30
0.0
  0
SPLINE
  5
12b
100
AcDbEntity
  8
0
 62
7
100
AcDbSpline
 70
8
 71
3
 72
8
 73
4
 74
0
 40
0
 40
0
 40
0
 40
0
 40
1
 40
1
 40
1
 40
1
 10
102.429028
 20
50.958750
 30
0.0
 10
102.429028
 20
42.607230
 30
0.0
 10
98.705952
 20
35.047696
 30
0.0
 10
92.833472
 20
29.906736
 30
0.0
  0
SPLINE
  5
12c
100
AcDbEntity
  8
0
 62
7
100
AcDbSpline
 70
8
 71
3
 72
8
 73
4
 74
0
 40
0
 40
0
 40
0
 40
0
 40
1
 40
1
 40
1
 40
1
 10
92.833472
 20
29.906736
 30
0.0
 10
92.609952
 20
29.723856
 30
0.0
 10
92.386714
 20
29.522491
 30
0.0
 10
92.163194
 20
29.359931
 30
0.0
  0
SPLINE
  5
12d
100
AcDbEntity
  8
0
 62
7
100
AcDbSpline
 70
8
 71
3
 72
8
 73
4
 74
0
 40
0
 40
0
 40
0
 40
0
 40
1
 40
1
 40
1
 40
1
 10
92.163194
 20
29.359931
 30
0.0
 10
92.000634
 20
29.217691
 30
0.0
 10
91.823046
 20
29.078837
 30
0.0
 10
91.660486
 20
28.936597
 30
0.0
  0
SPLINE
  5
12e
100
AcDbEntity
  8
0
 62
7
100
AcDbSpline
 70
8
 71
3
 72
8
 73
4
 74
0
 40
0
 40
0
 40
0
 40
0
 40
1
 40
1
 40
1
 40
1
 10
91.660486
 20
28.936597
 30
0.0
 10
91.233766
 20
28.611477
 30
0.0
 10
90.819887
 20
28.306536
 30
0.0
 10
90.372847
 20
28.001736
 30
0.0
  0
SPLINE
  5
12f
100
AcDbEntity
  8
0
 62
7
100
AcDbSpline
 70
8
 71
3
 72
8
 73
4
 74
0
 40
0
 40
0
 40
0
 40
0
 40
1
 40
1
 40
1
 40
1
 10
90.372847
 20
28.001736
 30
0.0
 10
90.332207
 20
27.961096
 30
0.0
 10
90.298834
 20
27.936543
 30
0.0
 10
90.258194
 20
27.895903
 30
0.0
  0
SPLINE
  5
130
100
AcDbEntity
  8
0
 62
7
100
AcDbSpline
 70
8
 71
3
 72
8
 73
4
 74
0
 40
0
 40
0
 40
0
 40
0
 40
1
 40
1
 40
1
 40
1
 10
90.258194
 20
27.895903
 30
0.0
 10
89.770514
 20
28.789983
 30
0.0
 10
89.294899
 20
29.441704
 30
0.0
 10
88.908819
 20
30.091944
 30
0.0
  0
SPLINE
  5
131
100
AcDbEntity
  8
0
 62
7
100
AcDbSpline
 70
8
 71
3
 72
8
 73
4
 74
0
 40
0
 40
0
 40
0
 40
0
 40
1
 40
1
 40
1
 40
1
 10
88.908819
 20
30.091944
 30
0.0
 10
88.786899
 20
30.295144
 30
0.0
 10
88.666461
 20
30.479647
 30
0.0
 10
88.564861
 20
30.682847
 30
0.0
  0
SPLINE
  5
132
100
AcDbEntity
  8
0
 62
7
100
AcDbSpline
 70
8
 71
3
 72
8
 73
4
 74
0
 40
0
 40
0
 40
0
 40
0
 40
1
 40
1
 40
1
 40
1
 10
88.564861
 20
30.682847
 30
0.0
 10
88.158461
 20
31.394047
 30
0.0
 10
87.812104
 20
32.187303
 30
0.0
 10
87.568264
 20
33.284583
 30
0.0
  0
SPLINE
  5
133
100
AcDbEntity
  8
0
 62
7
100
AcDbSpline
 70
8
 71
3
 72
8
 73
4
 74
0
 40
0
 40
0
 40
0
 40
0
 40
1
 40
1
 40
1
 40
1
 10
87.568264
 20
33.284583
 30
0.0
 10
87.954344
 20
33.426823
 30
0.0
 10
88.260061
 20
33.526942
 30
0.0
 10
88.564861
 20
33.628542
 30
0.0
  0
SPLINE
  5
134
100
AcDbEntity
  8
0
 62
7
100
AcDbSpline
 70
8
 71
3
 72
8
 73
4
 74
0
 40
0
 40
0
 40
0
 40
0
 40
1
 40
1
 40
1
 40
1
 10
88.564861
 20
33.628542
 30
0.0
 10
88.686781
 20
33.669182
 30
0.0
 10
88.786899
 20
33.711374
 30
0.0
 10
88.908819
 20
33.752014
 30
0.0
  0
SPLINE
  5
135
100
AcDbEntity
  8
0
 62
7
100
AcDbSpline
 70
8
 71
3
 72
8
 73
4
 74
0
 40
0
 40
0
 40
0
 40
0
 40
1
 40
1
 40
1
 40
1
 10
88.908819
 20
33.752014
 30
0.0
 10
89.294899
 20
33.894254
 30
0.0
 10
89.685777
 20
34.049617
 30
0.0
 10
90.214097
 20
34.334097
 30
0.0
  0
SPLINE
  5
136
100
AcDbEntity
  8
0
 62
7
100
AcDbSpline
 70
8
 71
3
 72
8
 73
4
 74
0
 40
0
 40
0
 40
0
 40
0
 40
1
 40
1
 40
1
 40
1
 10
90.214097
 20
34.334097
 30
0.0
 10
90.275057
 20
34.374737
 30
0.0
 10
90.332207
 20
34.419611
 30
0.0
 10
90.372847
 20
34.439931
 30
0.0
  0
SPLINE
  5
137
100
AcDbEntity
  8
0
 62
7
100
AcDbSpline
 70
8
 71
3
 72
8
 73
4
 74
0
 40
0
 40
0
 40
0
 40
0
 40
1
 40
1
 40
1
 40
1
 10
90.372847
 20
34.439931
 30
0.0
 10
90.779247
 20
34.704091
 30
0.0
 10
91.105990
 20
35.133703
 30
0.0
 10
90.963750
 20
35.824583
 30
0.0
  0
SPLINE
  5
138
100
AcDbEntity
  8
0
 62
7
100
AcDbSpline
 70
8
 71
3
 72
8
 73
4
 74
0
 40
0
 40
0
 40
0
 40
0
 40
1
 40
1
 40
1
 40
1
 10
90.963750
 20
35.824583
 30
0.0
 10
90.821510
 20
36.413863
 30
0.0
 10
91.050463
 20
37.117655
 30
0.0
 10
91.395903
 20
37.544375
 30
0.0
  0
SPLINE
  5
139
100
AcDbEntity
  8
0
 62
7
100
AcDbSpline
 70
8
 71
3
 72
8
 73
4
 74
0
 40
0
 40
0
 40
0
 40
0
 40
1
 40
1
 40
1
 40
1
 10
91.395903
 20
37.544375
 30
0.0
 10
91.497503
 20
37.666295
 30
0.0
 10
91.579206
 20
37.792872
 30
0.0
 10
91.660486
 20
37.914792
 30
0.0
  0
SPLINE
  5
13a
100
AcDbEntity
  8
0
 62
7
100
AcDbSpline
 70
8
 71
3
 72
8
 73
4
 74
0
 40
0
 40
0
 40
0
 40
0
 40
1
 40
1
 40
1
 40
1
 10
91.660486
 20
37.914792
 30
0.0
 10
91.843366
 20
38.260232
 30
0.0
 10
91.902421
 20
38.602003
 30
0.0
 10
91.739861
 20
39.008403
 30
0.0
  0
SPLINE
  5
13b
100
AcDbEntity
  8
0
 62
7
100
AcDbSpline
 70
8
 71
3
 72
8
 73
4
 74
0
 40
0
 40
0
 40
0
 40
0
 40
1
 40
1
 40
1
 40
1
 10
91.739861
 20
39.008403
 30
0.0
 10
91.577301
 20
39.435123
 30
0.0
 10
91.701197
 20
40.031106
 30
0.0
 10
92.127917
 20
40.234306
 30
0.0
  0
SPLINE
  5
13c
100
AcDbEntity
  8
0
 62
7
100
AcDbSpline
 70
8
 71
3
 72
8
 73
4
 74
0
 40
0
 40
0
 40
0
 40
0
 40
1
 40
1
 40
1
 40
1
 10
92.127917
 20
40.234306
 30
0.0
 10
92.148237
 20
40.254626
 30
0.0
 10
92.163194
 20
40.249263
 30
0.0
 10
92.163194
 20
40.269583
 30
0.0
  0
SPLINE
  5
13d
100
AcDbEntity
  8
0
 62
7
100
AcDbSpline
 70
8
 71
3
 72
8
 73
4
 74
0
 40
0
 40
0
 40
0
 40
0
 40
1
 40
1
 40
1
 40
1
 10
92.163194
 20
40.269583
 30
0.0
 10
92.793114
 20
40.594703
 30
0.0
 10
92.752192
 20
41.140874
 30
0.0
 10
92.833472
 20
41.689514
 30
0.0
  0
SPLINE
  5
13e
100
AcDbEntity
  8
0
 62
7
100
AcDbSpline
 70
8
 71
3
 72
8
 73
4
 74
0
 40
0
 40
0
 40
0
 40
0
 40
1
 40
1
 40
1
 40
1
 10
92.833472
 20
41.689514
 30
0.0
 10
92.853792
 20
42.014634
 30
0.0
 10
92.933591
 20
42.360991
 30
0.0
 10
93.177431
 20
42.686111
 30
0.0
  0
SPLINE
  5
13f
100
AcDbEntity
  8
0
 62
7
100
AcDbSpline
 70
8
 71
3
 72
8
 73
4
 74
0
 40
0
 40
0
 40
0
 40
0
 40
1
 40
1
 40
1
 40
1
 10
93.177431
 20
42.686111
 30
0.0
 10
93.746391
 20
43.417631
 30
0.0
 10
94.443479
 20
44.272200
 30
0.0
 10
93.671319
 20
45.085000
 30
0.0
  0
SPLINE
  5
140
100
AcDbEntity
  8
0
 62
7
100
AcDbSpline
 70
8
 71
3
 72
8
 73
4
 74
0
 40
0
 40
0
 40
0
 40
0
 40
1
 40
1
 40
1
 40
1
 10
93.671319
 20
45.085000
 30
0.0
 10
94.199639
 20
47.421800
 30
0.0
 10
94.480874
 20
48.577853
 30
0.0
 10
95.029514
 20
50.914653
 30
0.0
  0
SPLINE
  5
141
100
AcDbEntity
  8
0
 62
7
100
AcDbSpline
 70
8
 71
3
 72
8
 73
4
 74
0
 40
0
 40
0
 40
0
 40
0
 40
1
 40
1
 40
1
 40
1
 10
95.029514
 20
50.914653
 30
0.0
 10
94.866954
 20
50.975613
 30
0.0
 10
94.768741
 20
51.021262
 30
0.0
 10
94.606181
 20
51.082222
 30
0.0
  0
SPLINE
  5
142
100
AcDbEntity
  8
0
 62
7
100
AcDbSpline
 70
8
 71
3
 72
8
 73
4
 74
0
 40
0
 40
0
 40
0
 40
0
 40
1
 40
1
 40
1
 40
1
 10
94.606181
 20
51.082222
 30
0.0
 10
94.057541
 20
48.786062
 30
0.0
 10
93.770168
 20
47.643415
 30
0.0
 10
93.221528
 20
45.164375
 30
0.0
  0
SPLINE
  5
143
100
AcDbEntity
  8
0
 62
7
100
AcDbSpline
 70
8
 71
3
 72
8
 73
4
 74
0
 40
0
 40
0
 40
0
 40
0
 40
1
 40
1
 40
1
 40
1
 10
93.221528
 20
45.164375
 30
0.0
 10
93.079288
 20
45.123735
 30
0.0
 10
92.935072
 20
45.063904
 30
0.0
 10
92.833472
 20
45.023264
 30
0.0
  0
SPLINE
  5
144
100
AcDbEntity
  8
0
 62
7
100
AcDbSpline
 70
8
 71
3
 72
8
 73
4
 74
0
 40
0
 40
0
 40
0
 40
0
 40
1
 40
1
 40
1
 40
1
 10
92.833472
 20
45.023264
 30
0.0
 10
92.569312
 20
44.901344
 30
0.0
 10
92.366394
 20
44.765172
 30
0.0
 10
92.163194
 20
44.582292
 30
0.0
  0
SPLINE
  5
145
100
AcDbEntity
  8
0
 62
7
100
AcDbSpline
 70
8
 71
3
 72
8
 73
4
 74
0
 40
0
 40
0
 40
0
 40
0
 40
1
 40
1
 40
1
 40
1
 10
92.163194
 20
44.582292
 30
0.0
 10
92.000634
 20
44.419732
 30
0.0
 10
91.823046
 20
44.235229
 30
0.0
 10
91.660486
 20
43.991389
 30
0.0
  0
SPLINE
  5
146
100
AcDbEntity
  8
0
 62
7
100
AcDbSpline
 70
8
 71
3
 72
8
 73
4
 74
0
 40
0
 40
0
 40
0
 40
0
 40
1
 40
1
 40
1
 40
1
 10
91.660486
 20
43.991389
 30
0.0
 10
91.538566
 20
43.869469
 30
0.0
 10
91.432309
 20
43.704157
 30
0.0
 10
91.290069
 20
43.541597
 30
0.0
  0
SPLINE
  5
147
100
AcDbEntity
  8
0
 62
7
100
AcDbSpline
 70
8
 71
3
 72
8
 73
4
 74
0
 40
0
 40
0
 40
0
 40
0
 40
1
 40
1
 40
1
 40
1
 10
91.290069
 20
43.541597
 30
0.0
 10
91.025909
 20
43.155517
 30
0.0
 10
90.718287
 20
42.811841
 30
0.0
 10
90.372847
 20
42.527361
 30
0.0
  0
SPLINE
  5
148
100
AcDbEntity
  8
0
 62
7
100
AcDbSpline
 70
8
 71
3
 72
8
 73
4
 74
0
 40
0
 40
0
 40
0
 40
0
 40
1
 40
1
 40
1
 40
1
 10
90.372847
 20
42.527361
 30
0.0
 10
89.946127
 20
42.100641
 30
0.0
 10
89.457459
 20
41.777285
 30
0.0
 10
88.908819
 20
41.513125
 30
0.0
  0
SPLINE
  5
149
100
AcDbEntity
  8
0
 62
7
100
AcDbSpline
 70
8
 71
3
 72
8
 73
4
 74
0
 40
0
 40
0
 40
0
 40
0
 40
1
 40
1
 40
1
 40
1
 10
88.908819
 20
41.513125
 30
0.0
 10
88.786899
 20
41.452165
 30
0.0
 10
88.686781
 20
41.406516
 30
0.0
 10
88.564861
 20
41.345556
 30
0.0
  0
SPLINE
  5
14a
100
AcDbEntity
  8
0
 62
7
100
AcDbSpline
 70
8
 71
3
 72
8
 73
4
 74
0
 40
0
 40
0
 40
0
 40
0
 40
1
 40
1
 40
1
 40
1
 10
88.564861
 20
41.345556
 30
0.0
 10
87.975581
 20
41.101716
 30
0.0
 10
87.344603
 20
40.944447
 30
0.0
 10
86.633403
 20
40.842847
 30
0.0
  0
SPLINE
  5
14b
100
AcDbEntity
  8
0
 62
7
100
AcDbSpline
 70
8
 71
3
 72
8
 73
4
 74
0
 40
0
 40
0
 40
0
 40
0
 40
1
 40
1
 40
1
 40
1
 10
86.633403
 20
40.842847
 30
0.0
 10
86.694363
 20
42.082367
 30
0.0
 10
86.862426
 20
44.513500
 30
0.0
 10
87.532986
 20
51.117500
 30
0.0
  0
LWPOLYLINE
  5
14c
100
AcDbEntity
  8
0
 62
7
100
AcDbPolyline
 90
2
 70
0
 10
74.383194
 20
80.380417
 30
0.0
 10
74.383194
 20
80.380417
 30
0.0
  0
SPLINE
  5
14d
100
AcDbEntity
  8
0
 62
7
100
AcDbSpline
 70
8
 71
3
 72
8
 73
4
 74
0
 40
0
 40
0
 40
0
 40
0
 40
1
 40
1
 40
1
 40
1
 10
87.303681
 20
51.161597
 30
0.0
 10
86.876961
 20
48.032317
 30
0.0
 10
86.698526
 20
46.471487
 30
0.0
 10
86.271806
 20
43.382847
 30
0.0
  0
SPLINE
  5
14e
100
AcDbEntity
  8
0
 62
7
100
AcDbSpline
 70
8
 71
3
 72
8
 73
4
 74
0
 40
0
 40
0
 40
0
 40
0
 40
1
 40
1
 40
1
 40
1
 10
86.271806
 20
43.382847
 30
0.0
 10
84.727486
 20
41.940127
 30
0.0
 10
83.970848
 20
41.221872
 30
0.0
 10
82.426528
 20
39.819792
 30
0.0
  0
SPLINE
  5
14f
100
AcDbEntity
  8
0
 62
7
100
AcDbSpline
 70
8
 71
3
 72
8
 73
4
 74
0
 40
0
 40
0
 40
0
 40
0
 40
1
 40
1
 40
1
 40
1
 10
82.426528
 20
39.819792
 30
0.0
 10
82.142048
 20
40.205872
 30
0.0
 10
81.861660
 20
40.618198
 30
0.0
 10
81.597500
 20
40.983958
 30
0.0
  0
SPLINE
  5
150
100
AcDbEntity
  8
0
 62
7
100
AcDbSpline
 70
8
 71
3
 72
8
 73
4
 74
0
 40
0
 40
0
 40
0
 40
0
 40
1
 40
1
 40
1
 40
1
 10
81.597500
 20
40.983958
 30
0.0
 10
79.667100
 20
43.666198
 30
0.0
 10
78.123838
 20
45.633217
 30
0.0
 10
75.908958
 20
47.360417
 30
0.0
  0
SPLINE
  5
151
100
AcDbEntity
  8
0
 62
7
100
AcDbSpline
 70
8
 71
3
 72
8
 73
4
 74
0
 40
0
 40
0
 40
0
 40
0
 40
1
 40
1
 40
1
 40
1
 10
75.908958
 20
47.360417
 30
0.0
 10
76.620158
 20
49.433057
 30
0.0
 10
76.966233
 20
50.468601
 30
0.0
 10
77.575833
 20
52.378681
 30
0.0
  0
SPLINE
  5
152
100
AcDbEntity
  8
0
 62
7
100
AcDbSpline
 70
8
 71
3
 72
8
 73
4
 74
0
 40
0
 40
0
 40
0
 40
0
 40
1
 40
1
 40
1
 40
1
 10
77.575833
 20
52.378681
 30
0.0
 10
76.702073
 20
52.338041
 30
0.0
 10
76.662703
 20
50.266529
 30
0.0
 10
75.829583
 20
49.697569
 30
0.0
  0
SPLINE
  5
153
100
AcDbEntity
  8
0
 62
7
100
AcDbSpline
 70
8
 71
3
 72
8
 73
4
 74
0
 40
0
 40
0
 40
0
 40
0
 40
1
 40
1
 40
1
 40
1
 10
75.829583
 20
49.697569
 30
0.0
 10
75.484143
 20
49.453729
 30
0.0
 10
75.338376
 20
49.049446
 30
0.0
 10
75.318056
 20
48.480486
 30
0.0
  0
SPLINE
  5
154
100
AcDbEntity
  8
0
 62
7
100
AcDbSpline
 70
8
 71
3
 72
8
 73
4
 74
0
 40
0
 40
0
 40
0
 40
0
 40
1
 40
1
 40
1
 40
1
 10
75.318056
 20
48.480486
 30
0.0
 10
75.277416
 20
47.748966
 30
0.0
 10
75.259001
 20
47.386381
 30
0.0
 10
75.238681
 20
46.654861
 30
0.0
  0
SPLINE
  5
155
100
AcDbEntity
  8
0
 62
7
100
AcDbSpline
 70
8
 71
3
 72
8
 73
4
 74
0
 40
0
 40
0
 40
0
 40
0
 40
1
 40
1
 40
1
 40
1
 10
75.238681
 20
46.654861
 30
0.0
 10
75.177721
 20
45.598221
 30
0.0
 10
74.039589
 20
45.511156
 30
0.0
 10
73.836389
 20
46.425556
 30
0.0
  0
SPLINE
  5
156
100
AcDbEntity
  8
0
 62
7
100
AcDbSpline
 70
8
 71
3
 72
8
 73
4
 74
0
 40
0
 40
0
 40
0
 40
0
 40
1
 40
1
 40
1
 40
1
 10
73.836389
 20
46.425556
 30
0.0
 10
73.633189
 20
47.380596
 30
0.0
 10
73.528061
 20
47.850989
 30
0.0
 10
73.324861
 20
48.745069
 30
0.0
  0
SPLINE
  5
157
100
AcDbEntity
  8
0
 62
7
100
AcDbSpline
 70
8
 71
3
 72
8
 73
4
 74
0
 40
0
 40
0
 40
0
 40
0
 40
1
 40
1
 40
1
 40
1
 10
73.324861
 20
48.745069
 30
0.0
 10
70.967741
 20
48.643469
 30
0.0
 10
69.993510
 20
50.353524
 30
0.0
 10
70.643750
 20
51.999444
 30
0.0
  0
SPLINE
  5
158
100
AcDbEntity
  8
0
 62
7
100
AcDbSpline
 70
8
 71
3
 72
8
 73
4
 74
0
 40
0
 40
0
 40
0
 40
0
 40
1
 40
1
 40
1
 40
1
 10
70.643750
 20
51.999444
 30
0.0
 10
71.578470
 20
51.654004
 30
0.0
 10
74.059133
 20
51.384906
 30
0.0
 10
73.774653
 20
52.299306
 30
0.0
  0
SPLINE
  5
159
100
AcDbEntity
  8
0
 62
7
100
AcDbSpline
 70
8
 71
3
 72
8
 73
4
 74
0
 40
0
 40
0
 40
0
 40
0
 40
1
 40
1
 40
1
 40
1
 10
73.774653
 20
52.299306
 30
0.0
 10
72.596093
 20
52.258666
 30
0.0
 10
70.845892
 20
52.174775
 30
0.0
 10
71.252292
 20
52.784375
 30
0.0
  0
SPLINE
  5
15a
100
AcDbEntity
  8
0
 62
7
100
AcDbSpline
 70
8
 71
3
 72
8
 73
4
 74
0
 40
0
 40
0
 40
0
 40
0
 40
1
 40
1
 40
1
 40
1
 10
71.252292
 20
52.784375
 30
0.0
 10
71.536772
 20
53.089175
 30
0.0
 10
71.742018
 20
53.259143
 30
0.0
 10
72.107778
 20
53.604583
 30
0.0
  0
SPLINE
  5
15b
100
AcDbEntity
  8
0
 62
7
100
AcDbSpline
 70
8
 71
3
 72
8
 73
4
 74
0
 40
0
 40
0
 40
0
 40
0
 40
1
 40
1
 40
1
 40
1
 10
72.107778
 20
53.604583
 30
0.0
 10
72.900258
 20
53.381063
 30
0.0
 10
73.555084
 20
53.441600
 30
0.0
 10
74.550764
 20
53.340000
 30
0.0
  0
SPLINE
  5
15c
100
AcDbEntity
  8
0
 62
7
100
AcDbSpline
 70
8
 71
3
 72
8
 73
4
 74
0
 40
0
 40
0
 40
0
 40
0
 40
1
 40
1
 40
1
 40
1
 10
74.550764
 20
53.340000
 30
0.0
 10
74.835244
 20
52.344320
 30
0.0
 10
76.054373
 20
52.991597
 30
0.0
 10
76.623333
 20
54.027917
 30
0.0
  0
SPLINE
  5
15d
100
AcDbEntity
  8
0
 62
7
100
AcDbSpline
 70
8
 71
3
 72
8
 73
4
 74
0
 40
0
 40
0
 40
0
 40
0
 40
1
 40
1
 40
1
 40
1
 10
76.623333
 20
54.027917
 30
0.0
 10
75.200933
 20
54.027917
 30
0.0
 10
74.182817
 20
53.985724
 30
0.0
 10
72.760417
 20
53.904444
 30
0.0
  0
SPLINE
  5
15e
100
AcDbEntity
  8
0
 62
7
100
AcDbSpline
 70
8
 71
3
 72
8
 73
4
 74
0
 40
0
 40
0
 40
0
 40
0
 40
1
 40
1
 40
1
 40
1
 10
72.760417
 20
53.904444
 30
0.0
 10
72.679137
 20
54.351484
 30
0.0
 10
72.678008
 20
54.718585
 30
0.0
 10
72.901528
 20
55.165625
 30
0.0
  0
SPLINE
  5
15f
100
AcDbEntity
  8
0
 62
7
100
AcDbSpline
 70
8
 71
3
 72
8
 73
4
 74
0
 40
0
 40
0
 40
0
 40
0
 40
1
 40
1
 40
1
 40
1
 10
72.901528
 20
55.165625
 30
0.0
 10
72.576408
 20
55.104665
 30
0.0
 10
72.432898
 20
55.067835
 30
0.0
 10
72.107778
 20
55.006875
 30
0.0
  0
SPLINE
  5
160
100
AcDbEntity
  8
0
 62
7
100
AcDbSpline
 70
8
 71
3
 72
8
 73
4
 74
0
 40
0
 40
0
 40
0
 40
0
 40
1
 40
1
 40
1
 40
1
 10
72.107778
 20
55.006875
 30
0.0
 10
71.538818
 20
54.722395
 30
0.0
 10
71.416051
 20
55.164567
 30
0.0
 10
71.578611
 20
55.774167
 30
0.0
  0
SPLINE
  5
161
100
AcDbEntity
  8
0
 62
7
100
AcDbSpline
 70
8
 71
3
 72
8
 73
4
 74
0
 40
0
 40
0
 40
0
 40
0
 40
1
 40
1
 40
1
 40
1
 10
71.578611
 20
55.774167
 30
0.0
 10
71.863091
 20
56.729207
 30
0.0
 10
71.766148
 20
57.563526
 30
0.0
 10
71.949028
 20
58.640486
 30
0.0
  0
SPLINE
  5
162
100
AcDbEntity
  8
0
 62
7
100
AcDbSpline
 70
8
 71
3
 72
8
 73
4
 74
0
 40
0
 40
0
 40
0
 40
0
 40
1
 40
1
 40
1
 40
1
 10
71.949028
 20
58.640486
 30
0.0
 10
72.091268
 20
59.615846
 30
0.0
 10
72.959101
 20
59.514669
 30
0.0
 10
73.324861
 20
58.905069
 30
0.0
  0
SPLINE
  5
163
100
AcDbEntity
  8
0
 62
7
100
AcDbSpline
 70
8
 71
3
 72
8
 73
4
 74
0
 40
0
 40
0
 40
0
 40
0
 40
1
 40
1
 40
1
 40
1
 10
73.324861
 20
58.905069
 30
0.0
 10
74.097021
 20
57.706189
 30
0.0
 10
75.907688
 20
57.783236
 30
0.0
 10
77.655208
 20
58.799236
 30
0.0
  0
SPLINE
  5
164
100
AcDbEntity
  8
0
 62
7
100
AcDbSpline
 70
8
 71
3
 72
8
 73
4
 74
0
 40
0
 40
0
 40
0
 40
0
 40
1
 40
1
 40
1
 40
1
 10
77.655208
 20
58.799236
 30
0.0
 10
78.163208
 20
59.124356
 30
0.0
 10
78.613494
 20
58.827176
 30
0.0
 10
78.837014
 20
58.481736
 30
0.0
  0
SPLINE
  5
165
100
AcDbEntity
  8
0
 62
7
100
AcDbSpline
 70
8
 71
3
 72
8
 73
4
 74
0
 40
0
 40
0
 40
0
 40
0
 40
1
 40
1
 40
1
 40
1
 10
78.837014
 20
58.481736
 30
0.0
 10
79.243414
 20
57.831496
 30
0.0
 10
79.749932
 20
57.072036
 30
0.0
 10
79.180972
 20
56.259236
 30
0.0
  0
SPLINE
  5
166
100
AcDbEntity
  8
0
 62
7
100
AcDbSpline
 70
8
 71
3
 72
8
 73
4
 74
0
 40
0
 40
0
 40
0
 40
0
 40
1
 40
1
 40
1
 40
1
 10
79.180972
 20
56.259236
 30
0.0
 10
78.713612
 20
55.568356
 30
0.0
 10
78.653781
 20
54.801982
 30
0.0
 10
79.039861
 20
53.948542
 30
0.0
  0
SPLINE
  5
167
100
AcDbEntity
  8
0
 62
7
100
AcDbSpline
 70
8
 71
3
 72
8
 73
4
 74
0
 40
0
 40
0
 40
0
 40
0
 40
1
 40
1
 40
1
 40
1
 10
79.039861
 20
53.948542
 30
0.0
 10
79.812021
 20
52.383902
 30
0.0
 10
80.845660
 20
52.097305
 30
0.0
 10
81.597500
 20
52.625625
 30
0.0
  0
SPLINE
  5
168
100
AcDbEntity
  8
0
 62
7
100
AcDbSpline
 70
8
 71
3
 72
8
 73
4
 74
0
 40
0
 40
0
 40
0
 40
0
 40
1
 40
1
 40
1
 40
1
 10
81.597500
 20
52.625625
 30
0.0
 10
82.532220
 20
53.275865
 30
0.0
 10
83.023781
 20
55.169788
 30
0.0
 10
81.906181
 20
57.344028
 30
0.0
  0
SPLINE
  5
169
100
AcDbEntity
  8
0
 62
7
100
AcDbSpline
 70
8
 71
3
 72
8
 73
4
 74
0
 40
0
 40
0
 40
0
 40
0
 40
1
 40
1
 40
1
 40
1
 10
81.906181
 20
57.344028
 30
0.0
 10
84.547781
 20
58.034908
 30
0.0
 10
86.614141
 20
58.541285
 30
0.0
 10
88.564861
 20
59.293125
 30
0.0
  0
SPLINE
  5
16a
100
AcDbEntity
  8
0
 62
7
100
AcDbSpline
 70
8
 71
3
 72
8
 73
4
 74
0
 40
0
 40
0
 40
0
 40
0
 40
1
 40
1
 40
1
 40
1
 10
88.564861
 20
59.293125
 30
0.0
 10
88.666461
 20
59.333765
 30
0.0
 10
88.786899
 20
59.375957
 30
0.0
 10
88.908819
 20
59.416597
 30
0.0
  0
SPLINE
  5
16b
100
AcDbEntity
  8
0
 62
7
100
AcDbSpline
 70
8
 71
3
 72
8
 73
4
 74
0
 40
0
 40
0
 40
0
 40
0
 40
1
 40
1
 40
1
 40
1
 10
88.908819
 20
59.416597
 30
0.0
 10
89.396499
 20
59.619797
 30
0.0
 10
89.885167
 20
59.836897
 30
0.0
 10
90.372847
 20
60.060417
 30
0.0
  0
SPLINE
  5
16c
100
AcDbEntity
  8
0
 62
7
100
AcDbSpline
 70
8
 71
3
 72
8
 73
4
 74
0
 40
0
 40
0
 40
0
 40
0
 40
1
 40
1
 40
1
 40
1
 10
90.372847
 20
60.060417
 30
0.0
 10
90.799567
 20
60.263617
 30
0.0
 10
91.233766
 20
60.486854
 30
0.0
 10
91.660486
 20
60.730694
 30
0.0
  0
SPLINE
  5
16d
100
AcDbEntity
  8
0
 62
7
100
AcDbSpline
 70
8
 71
3
 72
8
 73
4
 74
0
 40
0
 40
0
 40
0
 40
0
 40
1
 40
1
 40
1
 40
1
 10
91.660486
 20
60.730694
 30
0.0
 10
91.823046
 20
60.832294
 30
0.0
 10
92.000634
 20
60.937775
 30
0.0
 10
92.163194
 20
61.039375
 30
0.0
  0
SPLINE
  5
16e
100
AcDbEntity
  8
0
 62
7
100
AcDbSpline
 70
8
 71
3
 72
8
 73
4
 74
0
 40
0
 40
0
 40
0
 40
0
 40
1
 40
1
 40
1
 40
1
 10
92.163194
 20
61.039375
 30
0.0
 10
92.386714
 20
61.161295
 30
0.0
 10
92.609952
 20
61.302829
 30
0.0
 10
92.833472
 20
61.445069
 30
0.0
  0
SPLINE
  5
16f
100
AcDbEntity
  8
0
 62
7
100
AcDbSpline
 70
8
 71
3
 72
8
 73
4
 74
0
 40
0
 40
0
 40
0
 40
0
 40
1
 40
1
 40
1
 40
1
 10
92.833472
 20
61.445069
 30
0.0
 10
93.341472
 20
61.770189
 30
0.0
 10
93.869651
 20
62.158739
 30
0.0
 10
94.438611
 20
62.565139
 30
0.0
  0
SPLINE
  5
170
100
AcDbEntity
  8
0
 62
7
100
AcDbSpline
 70
8
 71
3
 72
8
 73
4
 74
0
 40
0
 40
0
 40
0
 40
0
 40
1
 40
1
 40
1
 40
1
 10
94.438611
 20
62.565139
 30
0.0
 10
95.170131
 20
63.113779
 30
0.0
 10
96.230087
 20
64.266092
 30
0.0
 10
93.547847
 20
63.940972
 30
0.0
  0
SPLINE
  5
171
100
AcDbEntity
  8
0
 62
7
100
AcDbSpline
 70
8
 71
3
 72
8
 73
4
 74
0
 40
0
 40
0
 40
0
 40
0
 40
1
 40
1
 40
1
 40
1
 10
93.547847
 20
63.940972
 30
0.0
 10
93.304007
 20
63.920652
 30
0.0
 10
93.056992
 20
63.881917
 30
0.0
 10
92.833472
 20
63.861597
 30
0.0
  0
SPLINE
  5
172
100
AcDbEntity
  8
0
 62
7
100
AcDbSpline
 70
8
 71
3
 72
8
 73
4
 74
0
 40
0
 40
0
 40
0
 40
0
 40
1
 40
1
 40
1
 40
1
 10
92.833472
 20
63.861597
 30
0.0
 10
92.609952
 20
63.841277
 30
0.0
 10
92.386714
 20
63.802542
 30
0.0
 10
92.163194
 20
63.782222
 30
0.0
  0
SPLINE
  5
173
100
AcDbEntity
  8
0
 62
7
100
AcDbSpline
 70
8
 71
3
 72
8
 73
4
 74
0
 40
0
 40
0
 40
0
 40
0
 40
1
 40
1
 40
1
 40
1
 10
92.163194
 20
63.782222
 30
0.0
 10
92.000634
 20
63.761902
 30
0.0
 10
91.823046
 20
63.740806
 30
0.0
 10
91.660486
 20
63.720486
 30
0.0
  0
SPLINE
  5
174
100
AcDbEntity
  8
0
 62
7
100
AcDbSpline
 70
8
 71
3
 72
8
 73
4
 74
0
 40
0
 40
0
 40
0
 40
0
 40
1
 40
1
 40
1
 40
1
 10
91.660486
 20
63.720486
 30
0.0
 10
91.213446
 20
63.659526
 30
0.0
 10
90.799567
 20
63.602376
 30
0.0
 10
90.372847
 20
63.561736
 30
0.0
  0
LWPOLYLINE
  5
175
100
AcDbEntity
  8
0
 62
7
100
AcDbPolyline
 90
2
 70
0
 10
87.532986
 20
51.117500
 30
0.0
 10
87.303681
 20
51.161597
 30
0.0
  0
SPLINE
  5
176
100
AcDbEntity
  8
0
 62
7
100
AcDbSpline
 70
8
 71
3
 72
8
 73
4
 74
0
 40
0
 40
0
 40
0
 40
0
 40
1
 40
1
 40
1
 40
1
 10
88.908819
 20
63.314792
 30
0.0
 10
88.786899
 20
63.294472
 30
0.0
 10
88.666461
 20
63.291014
 30
0.0
 10
88.564861
 20
63.270694
 30
0.0
  0
SPLINE
  5
177
100
AcDbEntity
  8
0
 62
7
100
AcDbSpline
 70
8
 71
3
 72
8
 73
4
 74
0
 40
0
 40
0
 40
0
 40
0
 40
1
 40
1
 40
1
 40
1
 10
88.564861
 20
63.270694
 30
0.0
 10
86.512541
 20
62.904934
 30
0.0
 10
84.547781
 20
62.439621
 30
0.0
 10
81.906181
 20
61.586181
 30
0.0
  0
SPLINE
  5
178
100
AcDbEntity
  8
0
 62
7
100
AcDbSpline
 70
8
 71
3
 72
8
 73
4
 74
0
 40
0
 40
0
 40
0
 40
0
 40
1
 40
1
 40
1
 40
1
 10
81.906181
 20
61.586181
 30
0.0
 10
81.804581
 20
61.565861
 30
0.0
 10
81.699100
 20
61.529807
 30
0.0
 10
81.597500
 20
61.489167
 30
0.0
  0
SPLINE
  5
179
100
AcDbEntity
  8
0
 62
7
100
AcDbSpline
 70
8
 71
3
 72
8
 73
4
 74
0
 40
0
 40
0
 40
0
 40
0
 40
1
 40
1
 40
1
 40
1
 10
81.597500
 20
61.489167
 30
0.0
 10
77.289660
 20
60.148047
 30
0.0
 10
73.897208
 20
59.633626
 30
0.0
 10
70.361528
 20
59.592986
 30
0.0
  0
LWPOLYLINE
  5
17a
100
AcDbEntity
  8
0
 62
7
100
AcDbPolyline
 90
2
 70
0
 10
90.372847
 20
63.561736
 30
0.0
 10
88.908819
 20
63.314792
 30
0.0
  0
SPLINE
  5
17b
100
AcDbEntity
  8
0
 62
7
100
AcDbSpline
 70
8
 71
3
 72
8
 73
4
 74
0
 40
0
 40
0
 40
0
 40
0
 40
1
 40
1
 40
1
 40
1
 10
69.752986
 20
59.592986
 30
0.0
 10
69.265306
 20
59.592986
 30
0.0
 10
68.776638
 20
59.599124
 30
0.0
 10
68.288958
 20
59.619444
 30
0.0
  0
SPLINE
  5
17c
100
AcDbEntity
  8
0
 62
7
100
AcDbSpline
 70
8
 71
3
 72
8
 73
4
 74
0
 40
0
 40
0
 40
0
 40
0
 40
1
 40
1
 40
1
 40
1
 10
68.288958
 20
59.619444
 30
0.0
 10
67.963838
 20
59.639764
 30
0.0
 10
67.641258
 20
59.634402
 30
0.0
 10
67.336458
 20
59.654722
 30
0.0
  0
SPLINE
  5
17d
100
AcDbEntity
  8
0
 62
7
100
AcDbSpline
 70
8
 71
3
 72
8
 73
4
 74
0
 40
0
 40
0
 40
0
 40
0
 40
1
 40
1
 40
1
 40
1
 10
67.336458
 20
59.654722
 30
0.0
 10
66.361098
 20
59.715682
 30
0.0
 10
65.385668
 20
59.782428
 30
0.0
 10
64.329028
 20
59.884028
 30
0.0
  0
SPLINE
  5
17e
100
AcDbEntity
  8
0
 62
7
100
AcDbSpline
 70
8
 71
3
 72
8
 73
4
 74
0
 40
0
 40
0
 40
0
 40
0
 40
1
 40
1
 40
1
 40
1
 10
64.329028
 20
59.884028
 30
0.0
 10
63.231748
 20
59.985628
 30
0.0
 10
62.049589
 20
60.085746
 30
0.0
 10
60.810069
 20
60.227986
 30
0.0
  0
SPLINE
  5
17f
100
AcDbEntity
  8
0
 62
7
100
AcDbSpline
 70
8
 71
3
 72
8
 73
4
 74
0
 40
0
 40
0
 40
0
 40
0
 40
1
 40
1
 40
1
 40
1
 10
60.810069
 20
60.227986
 30
0.0
 10
62.252789
 20
60.715666
 30
0.0
 10
63.211428
 20
61.038669
 30
0.0
 10
64.329028
 20
61.445069
 30
0.0
  0
SPLINE
  5
180
100
AcDbEntity
  8
0
 62
7
100
AcDbSpline
 70
8
 71
3
 72
8
 73
4
 74
0
 40
0
 40
0
 40
0
 40
0
 40
1
 40
1
 40
1
 40
1
 10
64.329028
 20
61.445069
 30
0.0
 10
64.837028
 20
61.607629
 30
0.0
 10
65.380941
 20
61.812452
 30
0.0
 10
66.031181
 20
62.035972
 30
0.0
  0
SPLINE
  5
181
100
AcDbEntity
  8
0
 62
7
100
AcDbSpline
 70
8
 71
3
 72
8
 73
4
 74
0
 40
0
 40
0
 40
0
 40
0
 40
1
 40
1
 40
1
 40
1
 10
66.031181
 20
62.035972
 30
0.0
 10
66.478221
 20
62.015652
 30
0.0
 10
66.909738
 20
61.991875
 30
0.0
 10
67.336458
 20
61.991875
 30
0.0
  0
SPLINE
  5
182
100
AcDbEntity
  8
0
 62
7
100
AcDbSpline
 70
8
 71
3
 72
8
 73
4
 74
0
 40
0
 40
0
 40
0
 40
0
 40
1
 40
1
 40
1
 40
1
 10
67.336458
 20
61.991875
 30
0.0
 10
67.661578
 20
61.991875
 30
0.0
 10
67.963838
 20
61.974236
 30
0.0
 10
68.288958
 20
61.974236
 30
0.0
  0
LWPOLYLINE
  5
183
100
AcDbEntity
  8
0
 62
7
100
AcDbPolyline
 90
2
 70
0
 10
70.361528
 20
59.592986
 30
0.0
 10
69.752986
 20
59.592986
 30
0.0
  0
SPLINE
  5
184
100
AcDbEntity
  8
0
 62
7
100
AcDbSpline
 70
8
 71
3
 72
8
 73
4
 74
0
 40
0
 40
0
 40
0
 40
0
 40
1
 40
1
 40
1
 40
1
 10
69.752986
 20
61.974236
 30
0.0
 10
69.956186
 20
61.994556
 30
0.0
 10
70.158328
 20
61.991875
 30
0.0
 10
70.361528
 20
61.991875
 30
0.0
  0
SPLINE
  5
185
100
AcDbEntity
  8
0
 62
7
100
AcDbSpline
 70
8
 71
3
 72
8
 73
4
 74
0
 40
0
 40
0
 40
0
 40
0
 40
1
 40
1
 40
1
 40
1
 10
70.361528
 20
61.991875
 30
0.0
 10
74.527128
 20
62.093475
 30
0.0
 10
77.899260
 20
62.664199
 30
0.0
 10
81.597500
 20
63.517639
 30
0.0
  0
SPLINE
  5
186
100
AcDbEntity
  8
0
 62
7
100
AcDbSpline
 70
8
 71
3
 72
8
 73
4
 74
0
 40
0
 40
0
 40
0
 40
0
 40
1
 40
1
 40
1
 40
1
 10
81.597500
 20
63.517639
 30
0.0
 10
83.019900
 20
63.863079
 30
0.0
 10
84.504318
 20
64.231308
 30
0.0
 10
86.068958
 20
64.637708
 30
0.0
  0
SPLINE
  5
187
100
AcDbEntity
  8
0
 62
7
100
AcDbSpline
 70
8
 71
3
 72
8
 73
4
 74
0
 40
0
 40
0
 40
0
 40
0
 40
1
 40
1
 40
1
 40
1
 10
86.068958
 20
64.637708
 30
0.0
 10
84.240158
 20
64.597068
 30
0.0
 10
83.162140
 20
64.557557
 30
0.0
 10
81.597500
 20
64.496597
 30
0.0
  0
LWPOLYLINE
  5
188
100
AcDbEntity
  8
0
 62
7
100
AcDbPolyline
 90
2
 70
0
 10
68.288958
 20
61.974236
 30
0.0
 10
69.752986
 20
61.974236
 30
0.0
  0
SPLINE
  5
189
100
AcDbEntity
  8
0
 62
7
100
AcDbSpline
 70
8
 71
3
 72
8
 73
4
 74
0
 40
0
 40
0
 40
0
 40
0
 40
1
 40
1
 40
1
 40
1
 10
80.442153
 20
64.452500
 30
0.0
 10
79.202633
 20
70.304660
 30
0.0
 10
78.485506
 20
73.591773
 30
0.0
 10
76.737986
 20
78.854653
 30
0.0
  0
LWPOLYLINE
  5
18a
100
AcDbEntity
  8
0
 62
7
100
AcDbPolyline
 90
2
 70
0
 10
81.597500
 20
64.496597
 30
0.0
 10
80.442153
 20
64.452500
 30
0.0
  0
SPLINE
  5
18b
100
AcDbEntity
  8
0
 62
7
100
AcDbSpline
 70
8
 71
3
 72
8
 73
4
 74
0
 40
0
 40
0
 40
0
 40
0
 40
1
 40
1
 40
1
 40
1
 10
66.869028
 20
77.902153
 30
0.0
 10
66.076548
 20
72.375113
 30
0.0
 10
65.604037
 20
69.021607
 30
0.0
 10
65.766597
 20
63.067847
 30
0.0
  0
SPLINE
  5
18c
100
AcDbEntity
  8
0
 62
7
100
AcDbSpline
 70
8
 71
3
 72
8
 73
4
 74
0
 40
0
 40
0
 40
0
 40
0
 40
1
 40
1
 40
1
 40
1
 10
65.766597
 20
63.067847
 30
0.0
 10
65.278917
 20
62.966247
 30
0.0
 10
64.796388
 20
62.884544
 30
0.0
 10
64.329028
 20
62.803264
 30
0.0
  0
SPLINE
  5
18d
100
AcDbEntity
  8
0
 62
7
100
AcDbSpline
 70
8
 71
3
 72
8
 73
4
 74
0
 40
0
 40
0
 40
0
 40
0
 40
1
 40
1
 40
1
 40
1
 10
64.329028
 20
62.803264
 30
0.0
 10
61.463908
 20
62.274944
 30
0.0
 10
59.390562
 20
61.911653
 30
0.0
 10
57.114722
 20
61.383333
 30
0.0
  0
SPLINE
  5
18e
100
AcDbEntity
  8
0
 62
7
100
AcDbSpline
 70
8
 71
3
 72
8
 73
4
 74
0
 40
0
 40
0
 40
0
 40
0
 40
1
 40
1
 40
1
 40
1
 10
57.114722
 20
61.383333
 30
0.0
 10
55.814242
 20
61.078533
 30
0.0
 10
54.430295
 20
60.733305
 30
0.0
 10
52.784375
 20
60.245625
 30
0.0
  0
SPLINE
  5
18f
100
AcDbEntity
  8
0
 62
7
100
AcDbSpline
 70
8
 71
3
 72
8
 73
4
 74
0
 40
0
 40
0
 40
0
 40
0
 40
1
 40
1
 40
1
 40
1
 10
52.784375
 20
60.245625
 30
0.0
 10
50.528855
 20
59.595385
 30
0.0
 10
50.241976
 20
58.763888
 30
0.0
 10
52.131736
 20
58.296528
 30
0.0
  0
SPLINE
  5
190
100
AcDbEntity
  8
0
 62
7
100
AcDbSpline
 70
8
 71
3
 72
8
 73
4
 74
0
 40
0
 40
0
 40
0
 40
0
 40
1
 40
1
 40
1
 40
1
 10
52.131736
 20
58.296528
 30
0.0
 10
53.858936
 20
57.849488
 30
0.0
 10
55.489122
 20
57.627379
 30
0.0
 10
57.114722
 20
57.485139
 30
0.0
  0
SPLINE
  5
191
100
AcDbEntity
  8
0
 62
7
100
AcDbSpline
 70
8
 71
3
 72
8
 73
4
 74
0
 40
0
 40
0
 40
0
 40
0
 40
1
 40
1
 40
1
 40
1
 10
57.114722
 20
57.485139
 30
0.0
 10
59.370242
 20
57.281939
 30
0.0
 10
61.646788
 20
57.239323
 30
0.0
 10
64.329028
 20
57.097083
 30
0.0
  0
LWPOLYLINE
  5
192
100
AcDbEntity
  8
0
 62
7
100
AcDbPolyline
 90
2
 70
0
 10
76.737986
 20
78.854653
 30
0.0
 10
76.737986
 20
78.854653
 30
0.0
  0
SPLINE
  5
193
100
AcDbEntity
  8
0
 62
7
100
AcDbSpline
 70
8
 71
3
 72
8
 73
4
 74
0
 40
0
 40
0
 40
0
 40
0
 40
1
 40
1
 40
1
 40
1
 10
64.549514
 20
57.079444
 30
0.0
 10
64.610474
 20
56.510484
 30
0.0
 10
64.673762
 20
56.243432
 30
0.0
 10
64.734722
 20
55.694792
 30
0.0
  0
SPLINE
  5
194
100
AcDbEntity
  8
0
 62
7
100
AcDbSpline
 70
8
 71
3
 72
8
 73
4
 74
0
 40
0
 40
0
 40
0
 40
0
 40
1
 40
1
 40
1
 40
1
 10
64.734722
 20
55.694792
 30
0.0
 10
64.592482
 20
55.593192
 30
0.0
 10
64.450948
 20
55.487711
 30
0.0
 10
64.329028
 20
55.386111
 30
0.0
  0
SPLINE
  5
195
100
AcDbEntity
  8
0
 62
7
100
AcDbSpline
 70
8
 71
3
 72
8
 73
4
 74
0
 40
0
 40
0
 40
0
 40
0
 40
1
 40
1
 40
1
 40
1
 10
64.329028
 20
55.386111
 30
0.0
 10
62.886308
 20
54.105951
 30
0.0
 10
63.373988
 20
52.161934
 30
0.0
 10
64.329028
 20
51.532014
 30
0.0
  0
SPLINE
  5
196
100
AcDbEntity
  8
0
 62
7
100
AcDbSpline
 70
8
 71
3
 72
8
 73
4
 74
0
 40
0
 40
0
 40
0
 40
0
 40
1
 40
1
 40
1
 40
1
 10
64.329028
 20
51.532014
 30
0.0
 10
65.141828
 20
51.003694
 30
0.0
 10
66.256747
 20
51.341020
 30
0.0
 10
66.886667
 20
53.657500
 30
0.0
  0
SPLINE
  5
197
100
AcDbEntity
  8
0
 62
7
100
AcDbSpline
 70
8
 71
3
 72
8
 73
4
 74
0
 40
0
 40
0
 40
0
 40
0
 40
1
 40
1
 40
1
 40
1
 10
66.886667
 20
53.657500
 30
0.0
 10
67.049227
 20
53.433980
 30
0.0
 10
67.194218
 20
53.234519
 30
0.0
 10
67.336458
 20
53.031319
 30
0.0
  0
SPLINE
  5
198
100
AcDbEntity
  8
0
 62
7
100
AcDbSpline
 70
8
 71
3
 72
8
 73
4
 74
0
 40
0
 40
0
 40
0
 40
0
 40
1
 40
1
 40
1
 40
1
 10
67.336458
 20
53.031319
 30
0.0
 10
67.803818
 20
52.198199
 30
0.0
 10
67.980631
 20
51.324016
 30
0.0
 10
67.777431
 20
50.226736
 30
0.0
  0
SPLINE
  5
199
100
AcDbEntity
  8
0
 62
7
100
AcDbSpline
 70
8
 71
3
 72
8
 73
4
 74
0
 40
0
 40
0
 40
0
 40
0
 40
1
 40
1
 40
1
 40
1
 10
67.777431
 20
50.226736
 30
0.0
 10
67.716471
 20
49.921936
 30
0.0
 10
67.580298
 20
49.597451
 30
0.0
 10
67.336458
 20
49.353611
 30
0.0
  0
SPLINE
  5
19a
100
AcDbEntity
  8
0
 62
7
100
AcDbSpline
 70
8
 71
3
 72
8
 73
4
 74
0
 40
0
 40
0
 40
0
 40
0
 40
1
 40
1
 40
1
 40
1
 10
67.336458
 20
49.353611
 30
0.0
 10
67.031658
 20
49.069131
 30
0.0
 10
66.579821
 20
48.951797
 30
0.0
 10
66.031181
 20
49.256597
 30
0.0
  0
SPLINE
  5
19b
100
AcDbEntity
  8
0
 62
7
100
AcDbSpline
 70
8
 71
3
 72
8
 73
4
 74
0
 40
0
 40
0
 40
0
 40
0
 40
1
 40
1
 40
1
 40
1
 10
66.031181
 20
49.256597
 30
0.0
 10
65.563821
 20
49.520757
 30
0.0
 10
64.958948
 20
49.739338
 30
0.0
 10
64.329028
 20
49.556458
 30
0.0
  0
SPLINE
  5
19c
100
AcDbEntity
  8
0
 62
7
100
AcDbSpline
 70
8
 71
3
 72
8
 73
4
 74
0
 40
0
 40
0
 40
0
 40
0
 40
1
 40
1
 40
1
 40
1
 10
64.329028
 20
49.556458
 30
0.0
 10
64.146148
 20
49.495498
 30
0.0
 10
63.956283
 20
49.398837
 30
0.0
 10
63.773403
 20
49.256597
 30
0.0
  0
SPLINE
  5
19d
100
AcDbEntity
  8
0
 62
7
100
AcDbSpline
 70
8
 71
3
 72
8
 73
4
 74
0
 40
0
 40
0
 40
0
 40
0
 40
1
 40
1
 40
1
 40
1
 10
63.773403
 20
49.256597
 30
0.0
 10
62.838683
 20
48.545397
 30
0.0
 10
62.560764
 20
48.218443
 30
0.0
 10
61.524444
 20
47.263403
 30
0.0
  0
SPLINE
  5
19e
100
AcDbEntity
  8
0
 62
7
100
AcDbSpline
 70
8
 71
3
 72
8
 73
4
 74
0
 40
0
 40
0
 40
0
 40
0
 40
1
 40
1
 40
1
 40
1
 10
61.524444
 20
47.263403
 30
0.0
 10
60.325564
 20
46.186443
 30
0.0
 10
58.917487
 20
46.343641
 30
0.0
 10
57.352847
 20
44.758681
 30
0.0
  0
LWPOLYLINE
  5
19f
100
AcDbEntity
  8
0
 62
7
100
AcDbPolyline
 90
2
 70
0
 10
64.329028
 20
57.097083
 30
0.0
 10
64.549514
 20
57.079444
 30
0.0
  0
SPLINE
  5
1a0
100
AcDbEntity
  8
0
 62
7
100
AcDbSpline
 70
8
 71
3
 72
8
 73
4
 74
0
 40
0
 40
0
 40
0
 40
0
 40
1
 40
1
 40
1
 40
1
 10
57.114722
 20
44.520556
 30
0.0
 10
54.310562
 20
41.635116
 30
0.0
 10
52.867560
 20
39.965066
 30
0.0
 10
50.165000
 20
37.059306
 30
0.0
  0
SPLINE
  5
1a1
100
AcDbEntity
  8
0
 62
7
100
AcDbSpline
 70
8
 71
3
 72
8
 73
4
 74
0
 40
0
 40
0
 40
0
 40
0
 40
1
 40
1
 40
1
 40
1
 10
50.165000
 20
37.059306
 30
0.0
 10
47.746920
 20
41.163946
 30
0.0
 10
46.381458
 20
45.899070
 30
0.0
 10
46.381458
 20
50.958750
 30
0.0
  0
SPLINE
  5
1a2
100
AcDbEntity
  8
0
 62
7
100
AcDbSpline
 70
8
 71
3
 72
8
 73
4
 74
0
 40
0
 40
0
 40
0
 40
0
 40
1
 40
1
 40
1
 40
1
 10
46.381458
 20
50.958750
 30
0.0
 10
46.381458
 20
59.838590
 30
0.0
 10
50.592002
 20
67.804665
 30
0.0
 10
57.114722
 20
72.945625
 30
0.0
  0
SPLINE
  5
1a3
100
AcDbEntity
  8
0
 62
7
100
AcDbSpline
 70
8
 71
3
 72
8
 73
4
 74
0
 40
0
 40
0
 40
0
 40
0
 40
1
 40
1
 40
1
 40
1
 10
57.114722
 20
72.945625
 30
0.0
 10
59.288962
 20
74.652505
 30
0.0
 10
61.728068
 20
76.057125
 30
0.0
 10
64.329028
 20
77.073125
 30
0.0
  0
SPLINE
  5
1a4
100
AcDbEntity
  8
0
 62
7
100
AcDbSpline
 70
8
 71
3
 72
8
 73
4
 74
0
 40
0
 40
0
 40
0
 40
0
 40
1
 40
1
 40
1
 40
1
 10
64.329028
 20
77.073125
 30
0.0
 10
65.162148
 20
77.377925
 30
0.0
 10
66.015588
 20
77.658313
 30
0.0
 10
66.869028
 20
77.902153
 30
0.0
  0
LWPOLYLINE
  5
1a5
100
AcDbEntity
  8
0
 62
7
100
AcDbPolyline
 90
2
 70
0
 10
57.352847
 20
44.758681
 30
0.0
 10
57.114722
 20
44.520556
 30
0.0
  0
SPLINE
  5
1a6
100
AcDbEntity
  8
0
 62
7
100
AcDbSpline
 70
8
 71
3
 72
8
 73
4
 74
0
 40
0
 40
0
 40
0
 40
0
 40
1
 40
1
 40
1
 40
1
 10
68.006736
 20
58.278889
 30
0.0
 10
68.095317
 20
58.282699
 30
0.0
 10
68.192438
 20
58.280229
 30
0.0
 10
68.288958
 20
58.270069
 30
0.0
  0
SPLINE
  5
1a7
100
AcDbEntity
  8
0
 62
7
100
AcDbSpline
 70
8
 71
3
 72
8
 73
4
 74
0
 40
0
 40
0
 40
0
 40
0
 40
1
 40
1
 40
1
 40
1
 10
68.288958
 20
58.270069
 30
0.0
 10
68.329598
 20
58.270069
 30
0.0
 10
68.389429
 20
58.272751
 30
0.0
 10
68.430069
 20
58.252431
 30
0.0
  0
SPLINE
  5
1a8
100
AcDbEntity
  8
0
 62
7
100
AcDbSpline
 70
8
 71
3
 72
8
 73
4
 74
0
 40
0
 40
0
 40
0
 40
0
 40
1
 40
1
 40
1
 40
1
 10
68.430069
 20
58.252431
 30
0.0
 10
69.059989
 20
58.171151
 30
0.0
 10
69.224666
 20
57.742384
 30
0.0
 10
69.752986
 20
57.396944
 30
0.0
  0
LWPOLYLINE
  5
1a9
100
AcDbEntity
  8
0
 62
7
100
AcDbPolyline
 90
2
 70
0
 10
66.869028
 20
77.902153
 30
0.0
 10
66.869028
 20
77.902153
 30
0.0
  0
SPLINE
  5
1aa
100
AcDbEntity
  8
0
 62
7
100
AcDbSpline
 70
8
 71
3
 72
8
 73
4
 74
0
 40
0
 40
0
 40
0
 40
0
 40
1
 40
1
 40
1
 40
1
 10
69.761806
 20
57.379306
 30
0.0
 10
69.756726
 20
57.376766
 30
0.0
 10
69.752986
 20
57.371827
 30
0.0
 10
69.752986
 20
57.361667
 30
0.0
  0
SPLINE
  5
1ab
100
AcDbEntity
  8
0
 62
7
100
AcDbSpline
 70
8
 71
3
 72
8
 73
4
 74
0
 40
0
 40
0
 40
0
 40
0
 40
1
 40
1
 40
1
 40
1
 10
69.752986
 20
57.361667
 30
0.0
 10
69.021466
 20
57.077187
 30
0.0
 10
69.587674
 20
56.306297
 30
0.0
 10
69.303194
 20
55.615417
 30
0.0
  0
SPLINE
  5
1ac
100
AcDbEntity
  8
0
 62
7
100
AcDbSpline
 70
8
 71
3
 72
8
 73
4
 74
0
 40
0
 40
0
 40
0
 40
0
 40
1
 40
1
 40
1
 40
1
 10
69.303194
 20
55.615417
 30
0.0
 10
68.998394
 20
54.924537
 30
0.0
 10
68.715678
 20
54.923690
 30
0.0
 10
68.288958
 20
55.086250
 30
0.0
  0
SPLINE
  5
1ad
100
AcDbEntity
  8
0
 62
7
100
AcDbSpline
 70
8
 71
3
 72
8
 73
4
 74
0
 40
0
 40
0
 40
0
 40
0
 40
1
 40
1
 40
1
 40
1
 10
68.288958
 20
55.086250
 30
0.0
 10
68.248318
 20
55.106570
 30
0.0
 10
68.229903
 20
55.101208
 30
0.0
 10
68.209583
 20
55.121528
 30
0.0
  0
SPLINE
  5
1ae
100
AcDbEntity
  8
0
 62
7
100
AcDbSpline
 70
8
 71
3
 72
8
 73
4
 74
0
 40
0
 40
0
 40
0
 40
0
 40
1
 40
1
 40
1
 40
1
 10
68.209583
 20
55.121528
 30
0.0
 10
67.782863
 20
55.304408
 30
0.0
 10
67.539658
 20
55.528422
 30
0.0
 10
67.336458
 20
55.853542
 30
0.0
  0
SPLINE
  5
1af
100
AcDbEntity
  8
0
 62
7
100
AcDbSpline
 70
8
 71
3
 72
8
 73
4
 74
0
 40
0
 40
0
 40
0
 40
0
 40
1
 40
1
 40
1
 40
1
 10
67.336458
 20
55.853542
 30
0.0
 10
67.234858
 20
55.995782
 30
0.0
 10
67.126697
 20
56.164551
 30
0.0
 10
67.045417
 20
56.347431
 30
0.0
  0
SPLINE
  5
1b0
100
AcDbEntity
  8
0
 62
7
100
AcDbSpline
 70
8
 71
3
 72
8
 73
4
 74
0
 40
0
 40
0
 40
0
 40
0
 40
1
 40
1
 40
1
 40
1
 10
67.045417
 20
56.347431
 30
0.0
 10
66.598377
 20
57.160231
 30
0.0
 10
66.787818
 20
57.806519
 30
0.0
 10
67.336458
 20
58.111319
 30
0.0
  0
SPLINE
  5
1b1
100
AcDbEntity
  8
0
 62
7
100
AcDbSpline
 70
8
 71
3
 72
8
 73
4
 74
0
 40
0
 40
0
 40
0
 40
0
 40
1
 40
1
 40
1
 40
1
 10
67.336458
 20
58.111319
 30
0.0
 10
67.519338
 20
58.202759
 30
0.0
 10
67.740990
 20
58.267459
 30
0.0
 10
68.006736
 20
58.278889
 30
0.0
  0
LWPOLYLINE
  5
1b2
100
AcDbEntity
  8
0
 62
7
100
AcDbPolyline
 90
2
 70
0
 10
69.752986
 20
57.396944
 30
0.0
 10
69.761806
 20
57.379306
 30
0.0
  0
SPLINE
  5
1b3
100
AcDbEntity
  8
0
 62
7
100
AcDbSpline
 70
8
 71
3
 72
8
 73
4
 74
0
 40
0
 40
0
 40
0
 40
0
 40
1
 40
1
 40
1
 40
1
 10
81.174167
 20
56.647292
 30
0.0
 10
81.377367
 20
56.423772
 30
0.0
 10
81.516220
 20
56.218173
 30
0.0
 10
81.597500
 20
55.994653
 30
0.0
  0
SPLINE
  5
1b4
100
AcDbEntity
  8
0
 62
7
100
AcDbSpline
 70
8
 71
3
 72
8
 73
4
 74
0
 40
0
 40
0
 40
0
 40
0
 40
1
 40
1
 40
1
 40
1
 10
81.597500
 20
55.994653
 30
0.0
 10
81.780380
 20
55.567933
 30
0.0
 10
81.764293
 20
55.081946
 30
0.0
 10
81.703333
 20
54.512986
 30
0.0
  0
SPLINE
  5
1b5
100
AcDbEntity
  8
0
 62
7
100
AcDbSpline
 70
8
 71
3
 72
8
 73
4
 74
0
 40
0
 40
0
 40
0
 40
0
 40
1
 40
1
 40
1
 40
1
 10
81.703333
 20
54.512986
 30
0.0
 10
81.683013
 20
54.370746
 30
0.0
 10
81.658460
 20
54.246851
 30
0.0
 10
81.597500
 20
54.124931
 30
0.0
  0
SPLINE
  5
1b6
100
AcDbEntity
  8
0
 62
7
100
AcDbSpline
 70
8
 71
3
 72
8
 73
4
 74
0
 40
0
 40
0
 40
0
 40
0
 40
1
 40
1
 40
1
 40
1
 10
81.597500
 20
54.124931
 30
0.0
 10
81.272380
 20
53.332451
 30
0.0
 10
80.238882
 20
52.950110
 30
0.0
 10
79.974722
 20
53.498750
 30
0.0
  0
SPLINE
  5
1b7
100
AcDbEntity
  8
0
 62
7
100
AcDbSpline
 70
8
 71
3
 72
8
 73
4
 74
0
 40
0
 40
0
 40
0
 40
0
 40
1
 40
1
 40
1
 40
1
 10
79.974722
 20
53.498750
 30
0.0
 10
79.669922
 20
54.128670
 30
0.0
 10
79.643041
 20
54.679497
 30
0.0
 10
79.683681
 20
55.289097
 30
0.0
  0
SPLINE
  5
1b8
100
AcDbEntity
  8
0
 62
7
100
AcDbSpline
 70
8
 71
3
 72
8
 73
4
 74
0
 40
0
 40
0
 40
0
 40
0
 40
1
 40
1
 40
1
 40
1
 10
79.683681
 20
55.289097
 30
0.0
 10
80.313601
 20
55.289097
 30
0.0
 10
80.747447
 20
56.037692
 30
0.0
 10
81.174167
 20
56.647292
 30
0.0
  0
LWPOLYLINE
  5
1b9
100
AcDbEntity
  8
0
 62
7
100
AcDbPolyline
 90
2
 70
0
 10
68.006736
 20
58.278889
 30
0.0
 10
68.006736
 20
58.278889
 30
0.0
  0
SPLINE
  5
1ba
100
AcDbEntity
  8
0
 62
7
100
AcDbSpline
 70
8
 71
3
 72
8
 73
4
 74
0
 40
0
 40
0
 40
0
 40
0
 40
1
 40
1
 40
1
 40
1
 10
70.811319
 20
55.694792
 30
0.0
 10
71.156759
 20
55.694792
 30
0.0
 10
70.950102
 20
55.162521
 30
0.0
 10
70.767222
 20
54.918681
 30
0.0
  0
SPLINE
  5
1bb
100
AcDbEntity
  8
0
 62
7
100
AcDbSpline
 70
8
 71
3
 72
8
 73
4
 74
0
 40
0
 40
0
 40
0
 40
0
 40
1
 40
1
 40
1
 40
1
 10
70.767222
 20
54.918681
 30
0.0
 10
70.665622
 20
54.756121
 30
0.0
 10
70.524088
 20
54.620724
 30
0.0
 10
70.361528
 20
54.539444
 30
0.0
  0
SPLINE
  5
1bc
100
AcDbEntity
  8
0
 62
7
100
AcDbSpline
 70
8
 71
3
 72
8
 73
4
 74
0
 40
0
 40
0
 40
0
 40
0
 40
1
 40
1
 40
1
 40
1
 10
70.361528
 20
54.539444
 30
0.0
 10
70.198968
 20
54.437844
 30
0.0
 10
70.032880
 20
54.389514
 30
0.0
 10
69.850000
 20
54.389514
 30
0.0
  0
SPLINE
  5
1bd
100
AcDbEntity
  8
0
 62
7
100
AcDbSpline
 70
8
 71
3
 72
8
 73
4
 74
0
 40
0
 40
0
 40
0
 40
0
 40
1
 40
1
 40
1
 40
1
 10
69.850000
 20
54.389514
 30
0.0
 10
69.809360
 20
54.389514
 30
0.0
 10
69.773306
 20
54.395652
 30
0.0
 10
69.752986
 20
54.415972
 30
0.0
  0
SPLINE
  5
1be
100
AcDbEntity
  8
0
 62
7
100
AcDbSpline
 70
8
 71
3
 72
8
 73
4
 74
0
 40
0
 40
0
 40
0
 40
0
 40
1
 40
1
 40
1
 40
1
 10
69.752986
 20
54.415972
 30
0.0
 10
69.712346
 20
54.456612
 30
0.0
 10
69.712346
 20
54.537539
 30
0.0
 10
69.752986
 20
54.618819
 30
0.0
  0
SPLINE
  5
1bf
100
AcDbEntity
  8
0
 62
7
100
AcDbSpline
 70
8
 71
3
 72
8
 73
4
 74
0
 40
0
 40
0
 40
0
 40
0
 40
1
 40
1
 40
1
 40
1
 10
69.752986
 20
54.618819
 30
0.0
 10
69.813946
 20
54.781379
 30
0.0
 10
69.933608
 20
54.964330
 30
0.0
 10
70.035208
 20
55.086250
 30
0.0
  0
SPLINE
  5
1c0
100
AcDbEntity
  8
0
 62
7
100
AcDbSpline
 70
8
 71
3
 72
8
 73
4
 74
0
 40
0
 40
0
 40
0
 40
0
 40
1
 40
1
 40
1
 40
1
 10
70.035208
 20
55.086250
 30
0.0
 10
70.157128
 20
55.269130
 30
0.0
 10
70.259928
 20
55.407983
 30
0.0
 10
70.361528
 20
55.509583
 30
0.0
  0
SPLINE
  5
1c1
100
AcDbEntity
  8
0
 62
7
100
AcDbSpline
 70
8
 71
3
 72
8
 73
4
 74
0
 40
0
 40
0
 40
0
 40
0
 40
1
 40
1
 40
1
 40
1
 10
70.361528
 20
55.509583
 30
0.0
 10
70.483448
 20
55.631503
 30
0.0
 10
70.628439
 20
55.694792
 30
0.0
 10
70.811319
 20
55.694792
 30
0.0
  0
LWPOLYLINE
  5
1c2
100
AcDbEntity
  8
0
 62
7
100
AcDbPolyline
 90
2
 70
0
 10
81.174167
 20
56.647292
 30
0.0
 10
81.174167
 20
56.647292
 30
0.0
  0
SPLINE
  5
1c3
100
AcDbEntity
  8
0
 62
7
100
AcDbSpline
 70
8
 71
3
 72
8
 73
4
 74
0
 40
0
 40
0
 40
0
 40
0
 40
1
 40
1
 40
1
 40
1
 10
64.893472
 20
55.006875
 30
0.0
 10
65.421792
 20
54.722395
 30
0.0
 10
65.828404
 20
54.273662
 30
0.0
 10
66.295764
 20
53.948542
 30
0.0
  0
SPLINE
  5
1c4
100
AcDbEntity
  8
0
 62
7
100
AcDbSpline
 70
8
 71
3
 72
8
 73
4
 74
0
 40
0
 40
0
 40
0
 40
0
 40
1
 40
1
 40
1
 40
1
 10
66.295764
 20
53.948542
 30
0.0
 10
66.112884
 20
53.217022
 30
0.0
 10
65.950959
 20
52.642417
 30
0.0
 10
65.422639
 20
52.114097
 30
0.0
  0
SPLINE
  5
1c5
100
AcDbEntity
  8
0
 62
7
100
AcDbSpline
 70
8
 71
3
 72
8
 73
4
 74
0
 40
0
 40
0
 40
0
 40
0
 40
1
 40
1
 40
1
 40
1
 10
65.422639
 20
52.114097
 30
0.0
 10
65.097519
 20
51.809297
 30
0.0
 10
64.633828
 20
51.894811
 30
0.0
 10
64.329028
 20
52.219931
 30
0.0
  0
SPLINE
  5
1c6
100
AcDbEntity
  8
0
 62
7
100
AcDbSpline
 70
8
 71
3
 72
8
 73
4
 74
0
 40
0
 40
0
 40
0
 40
0
 40
1
 40
1
 40
1
 40
1
 10
64.329028
 20
52.219931
 30
0.0
 10
64.268068
 20
52.301211
 30
0.0
 10
64.228557
 20
52.382914
 30
0.0
 10
64.187917
 20
52.484514
 30
0.0
  0
SPLINE
  5
1c7
100
AcDbEntity
  8
0
 62
7
100
AcDbSpline
 70
8
 71
3
 72
8
 73
4
 74
0
 40
0
 40
0
 40
0
 40
0
 40
1
 40
1
 40
1
 40
1
 10
64.187917
 20
52.484514
 30
0.0
 10
63.944077
 20
52.972194
 30
0.0
 10
63.922628
 20
53.639579
 30
0.0
 10
64.329028
 20
54.310139
 30
0.0
  0
SPLINE
  5
1c8
100
AcDbEntity
  8
0
 62
7
100
AcDbSpline
 70
8
 71
3
 72
8
 73
4
 74
0
 40
0
 40
0
 40
0
 40
0
 40
1
 40
1
 40
1
 40
1
 10
64.329028
 20
54.310139
 30
0.0
 10
64.471268
 20
54.553979
 30
0.0
 10
64.649632
 20
54.783355
 30
0.0
 10
64.893472
 20
55.006875
 30
0.0
  0
LWPOLYLINE
  5
1c9
100
AcDbEntity
  8
0
 62
7
100
AcDbPolyline
 90
2
 70
0
 10
70.811319
 20
55.694792
 30
0.0
 10
70.811319
 20
55.694792
 30
0.0
  0
SPLINE
  5
1ca
100
AcDbEntity
  8
0
 62
7
100
AcDbSpline
 70
8
 71
3
 72
8
 73
4
 74
0
 40
0
 40
0
 40
0
 40
0
 40
1
 40
1
 40
1
 40
1
 10
92.815833
 20
51.972986
 30
0.0
 10
92.592313
 20
51.972986
 30
0.0
 10
92.383681
 20
51.755534
 30
0.0
 10
92.383681
 20
51.532014
 30
0.0
  0
SPLINE
  5
1cb
100
AcDbEntity
  8
0
 62
7
100
AcDbSpline
 70
8
 71
3
 72
8
 73
4
 74
0
 40
0
 40
0
 40
0
 40
0
 40
1
 40
1
 40
1
 40
1
 10
92.383681
 20
51.532014
 30
0.0
 10
92.383681
 20
51.267854
 30
0.0
 10
92.592313
 20
51.082222
 30
0.0
 10
92.815833
 20
51.082222
 30
0.0
  0
LWPOLYLINE
  5
1cc
100
AcDbEntity
  8
0
 62
7
100
AcDbPolyline
 90
2
 70
0
 10
64.893472
 20
55.006875
 30
0.0
 10
64.893472
 20
55.006875
 30
0.0
  0
SPLINE
  5
1cd
100
AcDbEntity
  8
0
 62
7
100
AcDbSpline
 70
8
 71
3
 72
8
 73
4
 74
0
 40
0
 40
0
 40
0
 40
0
 40
1
 40
1
 40
1
 40
1
 10
92.833472
 20
51.082222
 30
0.0
 10
93.077312
 20
51.082222
 30
0.0
 10
93.265625
 20
51.288174
 30
0.0
 10
93.265625
 20
51.532014
 30
0.0
  0
SPLINE
  5
1ce
100
AcDbEntity
  8
0
 62
7
100
AcDbSpline
 70
8
 71
3
 72
8
 73
4
 74
0
 40
0
 40
0
 40
0
 40
0
 40
1
 40
1
 40
1
 40
1
 10
93.265625
 20
51.532014
 30
0.0
 10
93.265625
 20
51.755534
 30
0.0
 10
93.077312
 20
51.952666
 30
0.0
 10
92.833472
 20
51.972986
 30
0.0
  0
LWPOLYLINE
  5
1cf
100
AcDbEntity
  8
0
 62
7
100
AcDbPolyline
 90
2
 70
0
 10
92.815833
 20
51.082222
 30
0.0
 10
92.833472
 20
51.082222
 30
0.0
  0
SPLINE
  5
1d0
100
AcDbEntity
  8
0
 62
7
100
AcDbSpline
 70
8
 71
3
 72
8
 73
4
 74
0
 40
0
 40
0
 40
0
 40
0
 40
1
 40
1
 40
1
 40
1
 10
90.372847
 20
51.911250
 30
0.0
 10
90.129007
 20
51.890930
 30
0.0
 10
89.949514
 20
51.711437
 30
0.0
 10
89.949514
 20
51.487917
 30
0.0
  0
SPLINE
  5
1d1
100
AcDbEntity
  8
0
 62
7
100
AcDbSpline
 70
8
 71
3
 72
8
 73
4
 74
0
 40
0
 40
0
 40
0
 40
0
 40
1
 40
1
 40
1
 40
1
 10
89.949514
 20
51.487917
 30
0.0
 10
89.949514
 20
51.244077
 30
0.0
 10
90.129007
 20
51.038125
 30
0.0
 10
90.372847
 20
51.038125
 30
0.0
  0
LWPOLYLINE
  5
1d2
100
AcDbEntity
  8
0
 62
7
100
AcDbPolyline
 90
3
 70
0
 10
92.833472
 20
51.972986
 30
0.0
 10
92.815833
 20
51.972986
 30
0.0
 10
92.815833
 20
51.972986
 30
0.0
  0
SPLINE
  5
1d3
100
AcDbEntity
  8
0
 62
7
100
AcDbSpline
 70
8
 71
3
 72
8
 73
4
 74
0
 40
0
 40
0
 40
0
 40
0
 40
1
 40
1
 40
1
 40
1
 10
90.399306
 20
51.038125
 30
0.0
 10
90.622826
 20
51.038125
 30
0.0
 10
90.822639
 20
51.223757
 30
0.0
 10
90.822639
 20
51.487917
 30
0.0
  0
SPLINE
  5
1d4
100
AcDbEntity
  8
0
 62
7
100
AcDbSpline
 70
8
 71
3
 72
8
 73
4
 74
0
 40
0
 40
0
 40
0
 40
0
 40
1
 40
1
 40
1
 40
1
 10
90.822639
 20
51.487917
 30
0.0
 10
90.822639
 20
51.711437
 30
0.0
 10
90.622826
 20
51.911250
 30
0.0
 10
90.399306
 20
51.911250
 30
0.0
  0
LWPOLYLINE
  5
1d5
100
AcDbEntity
  8
0
 62
7
100
AcDbPolyline
 90
2
 70
0
 10
90.372847
 20
51.038125
 30
0.0
 10
90.399306
 20
51.038125
 30
0.0
  0
SPLINE
  5
1d6
100
AcDbEntity
  8
0
 62
7
100
AcDbSpline
 70
8
 71
3
 72
8
 73
4
 74
0
 40
0
 40
0
 40
0
 40
0
 40
1
 40
1
 40
1
 40
1
 10
88.908819
 20
50.429583
 30
0.0
 10
88.766579
 20
50.429583
 30
0.0
 10
88.653056
 20
50.324879
 30
0.0
 10
88.653056
 20
50.182639
 30
0.0
  0
SPLINE
  5
1d7
100
AcDbEntity
  8
0
 62
7
100
AcDbSpline
 70
8
 71
3
 72
8
 73
4
 74
0
 40
0
 40
0
 40
0
 40
0
 40
1
 40
1
 40
1
 40
1
 10
88.653056
 20
50.182639
 30
0.0
 10
88.653056
 20
50.020079
 30
0.0
 10
88.766579
 20
49.900417
 30
0.0
 10
88.908819
 20
49.900417
 30
0.0
  0
SPLINE
  5
1d8
100
AcDbEntity
  8
0
 62
7
100
AcDbSpline
 70
8
 71
3
 72
8
 73
4
 74
0
 40
0
 40
0
 40
0
 40
0
 40
1
 40
1
 40
1
 40
1
 10
88.908819
 20
49.900417
 30
0.0
 10
89.051059
 20
49.900417
 30
0.0
 10
89.173403
 20
50.020079
 30
0.0
 10
89.173403
 20
50.182639
 30
0.0
  0
SPLINE
  5
1d9
100
AcDbEntity
  8
0
 62
7
100
AcDbSpline
 70
8
 71
3
 72
8
 73
4
 74
0
 40
0
 40
0
 40
0
 40
0
 40
1
 40
1
 40
1
 40
1
 10
89.173403
 20
50.182639
 30
0.0
 10
89.173403
 20
50.324879
 30
0.0
 10
89.051059
 20
50.429583
 30
0.0
 10
88.908819
 20
50.429583
 30
0.0
  0
LWPOLYLINE
  5
1da
100
AcDbEntity
  8
0
 62
7
100
AcDbPolyline
 90
3
 70
0
 10
90.399306
 20
51.911250
 30
0.0
 10
90.372847
 20
51.911250
 30
0.0
 10
90.372847
 20
51.911250
 30
0.0
  0
SPLINE
  5
1db
100
AcDbEntity
  8
0
 62
7
100
AcDbSpline
 70
8
 71
3
 72
8
 73
4
 74
0
 40
0
 40
0
 40
0
 40
0
 40
1
 40
1
 40
1
 40
1
 10
90.602153
 20
50.182639
 30
0.0
 10
90.520873
 20
50.182639
 30
0.0
 10
90.433807
 20
50.128946
 30
0.0
 10
90.372847
 20
50.067986
 30
0.0
  0
SPLINE
  5
1dc
100
AcDbEntity
  8
0
 62
7
100
AcDbSpline
 70
8
 71
3
 72
8
 73
4
 74
0
 40
0
 40
0
 40
0
 40
0
 40
1
 40
1
 40
1
 40
1
 10
90.372847
 20
50.067986
 30
0.0
 10
90.332207
 20
50.027346
 30
0.0
 10
90.311111
 20
49.946419
 30
0.0
 10
90.311111
 20
49.865139
 30
0.0
  0
SPLINE
  5
1dd
100
AcDbEntity
  8
0
 62
7
100
AcDbSpline
 70
8
 71
3
 72
8
 73
4
 74
0
 40
0
 40
0
 40
0
 40
0
 40
1
 40
1
 40
1
 40
1
 10
90.311111
 20
49.865139
 30
0.0
 10
90.311111
 20
49.804179
 30
0.0
 10
90.332207
 20
49.720571
 30
0.0
 10
90.372847
 20
49.679931
 30
0.0
  0
SPLINE
  5
1de
100
AcDbEntity
  8
0
 62
7
100
AcDbSpline
 70
8
 71
3
 72
8
 73
4
 74
0
 40
0
 40
0
 40
0
 40
0
 40
1
 40
1
 40
1
 40
1
 10
90.372847
 20
49.679931
 30
0.0
 10
90.433807
 20
49.618971
 30
0.0
 10
90.520873
 20
49.574097
 30
0.0
 10
90.602153
 20
49.574097
 30
0.0
  0
SPLINE
  5
1df
100
AcDbEntity
  8
0
 62
7
100
AcDbSpline
 70
8
 71
3
 72
8
 73
4
 74
0
 40
0
 40
0
 40
0
 40
0
 40
1
 40
1
 40
1
 40
1
 10
90.602153
 20
49.574097
 30
0.0
 10
90.785033
 20
49.574097
 30
0.0
 10
90.928472
 20
49.722899
 30
0.0
 10
90.928472
 20
49.865139
 30
0.0
  0
SPLINE
  5
1e0
100
AcDbEntity
  8
0
 62
7
100
AcDbSpline
 70
8
 71
3
 72
8
 73
4
 74
0
 40
0
 40
0
 40
0
 40
0
 40
1
 40
1
 40
1
 40
1
 10
90.928472
 20
49.865139
 30
0.0
 10
90.928472
 20
50.027699
 30
0.0
 10
90.785033
 20
50.182639
 30
0.0
 10
90.602153
 20
50.182639
 30
0.0
  0
LWPOLYLINE
  5
1e1
100
AcDbEntity
  8
0
 62
7
100
AcDbPolyline
 90
2
 70
0
 10
88.908819
 20
50.429583
 30
0.0
 10
88.908819
 20
50.429583
 30
0.0
  0
SPLINE
  5
1e2
100
AcDbEntity
  8
0
 62
7
100
AcDbSpline
 70
8
 71
3
 72
8
 73
4
 74
0
 40
0
 40
0
 40
0
 40
0
 40
1
 40
1
 40
1
 40
1
 10
92.163194
 20
50.085625
 30
0.0
 10
92.000634
 20
50.085625
 30
0.0
 10
91.863333
 20
49.939504
 30
0.0
 10
91.863333
 20
49.776944
 30
0.0
  0
SPLINE
  5
1e3
100
AcDbEntity
  8
0
 62
7
100
AcDbSpline
 70
8
 71
3
 72
8
 73
4
 74
0
 40
0
 40
0
 40
0
 40
0
 40
1
 40
1
 40
1
 40
1
 10
91.863333
 20
49.776944
 30
0.0
 10
91.863333
 20
49.614384
 30
0.0
 10
92.000634
 20
49.477083
 30
0.0
 10
92.163194
 20
49.477083
 30
0.0
  0
SPLINE
  5
1e4
100
AcDbEntity
  8
0
 62
7
100
AcDbSpline
 70
8
 71
3
 72
8
 73
4
 74
0
 40
0
 40
0
 40
0
 40
0
 40
1
 40
1
 40
1
 40
1
 10
92.163194
 20
49.477083
 30
0.0
 10
92.346074
 20
49.497403
 30
0.0
 10
92.471875
 20
49.614384
 30
0.0
 10
92.471875
 20
49.776944
 30
0.0
  0
SPLINE
  5
1e5
100
AcDbEntity
  8
0
 62
7
100
AcDbSpline
 70
8
 71
3
 72
8
 73
4
 74
0
 40
0
 40
0
 40
0
 40
0
 40
1
 40
1
 40
1
 40
1
 10
92.471875
 20
49.776944
 30
0.0
 10
92.471875
 20
49.939504
 30
0.0
 10
92.346074
 20
50.085625
 30
0.0
 10
92.163194
 20
50.085625
 30
0.0
  0
LWPOLYLINE
  5
1e6
100
AcDbEntity
  8
0
 62
7
100
AcDbPolyline
 90
2
 70
0
 10
90.602153
 20
50.182639
 30
0.0
 10
90.602153
 20
50.182639
 30
0.0
  0
SPLINE
  5
1e7
100
AcDbEntity
  8
0
 62
7
100
AcDbSpline
 70
8
 71
3
 72
8
 73
4
 74
0
 40
0
 40
0
 40
0
 40
0
 40
1
 40
1
 40
1
 40
1
 10
88.564861
 20
48.524583
 30
0.0
 10
88.381981
 20
48.524583
 30
0.0
 10
88.265000
 20
48.378463
 30
0.0
 10
88.265000
 20
48.215903
 30
0.0
  0
SPLINE
  5
1e8
100
AcDbEntity
  8
0
 62
7
100
AcDbSpline
 70
8
 71
3
 72
8
 73
4
 74
0
 40
0
 40
0
 40
0
 40
0
 40
1
 40
1
 40
1
 40
1
 10
88.265000
 20
48.215903
 30
0.0
 10
88.265000
 20
48.053343
 30
0.0
 10
88.381981
 20
47.907222
 30
0.0
 10
88.564861
 20
47.907222
 30
0.0
  0
SPLINE
  5
1e9
100
AcDbEntity
  8
0
 62
7
100
AcDbSpline
 70
8
 71
3
 72
8
 73
4
 74
0
 40
0
 40
0
 40
0
 40
0
 40
1
 40
1
 40
1
 40
1
 10
88.564861
 20
47.907222
 30
0.0
 10
88.727421
 20
47.907222
 30
0.0
 10
88.855903
 20
48.053343
 30
0.0
 10
88.855903
 20
48.215903
 30
0.0
  0
SPLINE
  5
1ea
100
AcDbEntity
  8
0
 62
7
100
AcDbSpline
 70
8
 71
3
 72
8
 73
4
 74
0
 40
0
 40
0
 40
0
 40
0
 40
1
 40
1
 40
1
 40
1
 10
88.855903
 20
48.215903
 30
0.0
 10
88.855903
 20
48.378463
 30
0.0
 10
88.727421
 20
48.524583
 30
0.0
 10
88.564861
 20
48.524583
 30
0.0
  0
LWPOLYLINE
  5
1eb
100
AcDbEntity
  8
0
 62
7
100
AcDbPolyline
 90
2
 70
0
 10
92.163194
 20
50.085625
 30
0.0
 10
92.163194
 20
50.085625
 30
0.0
  0
SPLINE
  5
1ec
100
AcDbEntity
  8
0
 62
7
100
AcDbSpline
 70
8
 71
3
 72
8
 73
4
 74
0
 40
0
 40
0
 40
0
 40
0
 40
1
 40
1
 40
1
 40
1
 10
90.372847
 20
48.374653
 30
0.0
 10
90.189967
 20
48.334013
 30
0.0
 10
90.072986
 20
48.198617
 30
0.0
 10
90.072986
 20
47.995417
 30
0.0
  0
SPLINE
  5
1ed
100
AcDbEntity
  8
0
 62
7
100
AcDbSpline
 70
8
 71
3
 72
8
 73
4
 74
0
 40
0
 40
0
 40
0
 40
0
 40
1
 40
1
 40
1
 40
1
 10
90.072986
 20
47.995417
 30
0.0
 10
90.072986
 20
47.812537
 30
0.0
 10
90.189967
 20
47.665640
 30
0.0
 10
90.372847
 20
47.625000
 30
0.0
  0
SPLINE
  5
1ee
100
AcDbEntity
  8
0
 62
7
100
AcDbSpline
 70
8
 71
3
 72
8
 73
4
 74
0
 40
0
 40
0
 40
0
 40
0
 40
1
 40
1
 40
1
 40
1
 10
90.372847
 20
47.625000
 30
0.0
 10
90.413487
 20
47.604680
 30
0.0
 10
90.438041
 20
47.607361
 30
0.0
 10
90.478681
 20
47.607361
 30
0.0
  0
SPLINE
  5
1ef
100
AcDbEntity
  8
0
 62
7
100
AcDbSpline
 70
8
 71
3
 72
8
 73
4
 74
0
 40
0
 40
0
 40
0
 40
0
 40
1
 40
1
 40
1
 40
1
 10
90.478681
 20
47.607361
 30
0.0
 10
90.681881
 20
47.607361
 30
0.0
 10
90.866736
 20
47.771897
 30
0.0
 10
90.866736
 20
47.995417
 30
0.0
  0
SPLINE
  5
1f0
100
AcDbEntity
  8
0
 62
7
100
AcDbSpline
 70
8
 71
3
 72
8
 73
4
 74
0
 40
0
 40
0
 40
0
 40
0
 40
1
 40
1
 40
1
 40
1
 10
90.866736
 20
47.995417
 30
0.0
 10
90.866736
 20
48.218937
 30
0.0
 10
90.681881
 20
48.374653
 30
0.0
 10
90.478681
 20
48.374653
 30
0.0
  0
LWPOLYLINE
  5
1f1
100
AcDbEntity
  8
0
 62
7
100
AcDbPolyline
 90
2
 70
0
 10
88.564861
 20
48.524583
 30
0.0
 10
88.564861
 20
48.524583
 30
0.0
  0
SPLINE
  5
1f2
100
AcDbEntity
  8
0
 62
7
100
AcDbSpline
 70
8
 71
3
 72
8
 73
4
 74
0
 40
0
 40
0
 40
0
 40
0
 40
1
 40
1
 40
1
 40
1
 10
91.660486
 20
47.404514
 30
0.0
 10
91.477606
 20
47.384194
 30
0.0
 10
91.351806
 20
47.240754
 30
0.0
 10
91.351806
 20
47.078194
 30
0.0
  0
SPLINE
  5
1f3
100
AcDbEntity
  8
0
 62
7
100
AcDbSpline
 70
8
 71
3
 72
8
 73
4
 74
0
 40
0
 40
0
 40
0
 40
0
 40
1
 40
1
 40
1
 40
1
 10
91.351806
 20
47.078194
 30
0.0
 10
91.351806
 20
46.935954
 30
0.0
 10
91.477606
 20
46.795972
 30
0.0
 10
91.660486
 20
46.795972
 30
0.0
  0
SPLINE
  5
1f4
100
AcDbEntity
  8
0
 62
7
100
AcDbSpline
 70
8
 71
3
 72
8
 73
4
 74
0
 40
0
 40
0
 40
0
 40
0
 40
1
 40
1
 40
1
 40
1
 10
91.660486
 20
46.795972
 30
0.0
 10
91.802726
 20
46.795972
 30
0.0
 10
91.960347
 20
46.935954
 30
0.0
 10
91.960347
 20
47.078194
 30
0.0
  0
SPLINE
  5
1f5
100
AcDbEntity
  8
0
 62
7
100
AcDbSpline
 70
8
 71
3
 72
8
 73
4
 74
0
 40
0
 40
0
 40
0
 40
0
 40
1
 40
1
 40
1
 40
1
 10
91.960347
 20
47.078194
 30
0.0
 10
91.960347
 20
47.261074
 30
0.0
 10
91.802726
 20
47.404514
 30
0.0
 10
91.660486
 20
47.404514
 30
0.0
  0
LWPOLYLINE
  5
1f6
100
AcDbEntity
  8
0
 62
7
100
AcDbPolyline
 90
3
 70
0
 10
90.478681
 20
48.374653
 30
0.0
 10
90.372847
 20
48.374653
 30
0.0
 10
90.372847
 20
48.374653
 30
0.0
  0
SPLINE
  5
1f7
100
AcDbEntity
  8
0
 62
7
100
AcDbSpline
 70
8
 71
3
 72
8
 73
4
 74
0
 40
0
 40
0
 40
0
 40
0
 40
1
 40
1
 40
1
 40
1
 10
89.217500
 20
47.298681
 30
0.0
 10
89.095580
 20
47.298681
 30
0.0
 10
88.990099
 20
47.238849
 30
0.0
 10
88.908819
 20
47.157569
 30
0.0
  0
SPLINE
  5
1f8
100
AcDbEntity
  8
0
 62
7
100
AcDbSpline
 70
8
 71
3
 72
8
 73
4
 74
0
 40
0
 40
0
 40
0
 40
0
 40
1
 40
1
 40
1
 40
1
 10
88.908819
 20
47.157569
 30
0.0
 10
88.827539
 20
47.076289
 30
0.0
 10
88.794167
 20
46.976947
 30
0.0
 10
88.794167
 20
46.875347
 30
0.0
  0
SPLINE
  5
1f9
100
AcDbEntity
  8
0
 62
7
100
AcDbSpline
 70
8
 71
3
 72
8
 73
4
 74
0
 40
0
 40
0
 40
0
 40
0
 40
1
 40
1
 40
1
 40
1
 10
88.794167
 20
46.875347
 30
0.0
 10
88.794167
 20
46.753427
 30
0.0
 10
88.827539
 20
46.647947
 30
0.0
 10
88.908819
 20
46.566667
 30
0.0
  0
SPLINE
  5
1fa
100
AcDbEntity
  8
0
 62
7
100
AcDbSpline
 70
8
 71
3
 72
8
 73
4
 74
0
 40
0
 40
0
 40
0
 40
0
 40
1
 40
1
 40
1
 40
1
 10
88.908819
 20
46.566667
 30
0.0
 10
88.990099
 20
46.485387
 30
0.0
 10
89.095580
 20
46.425556
 30
0.0
 10
89.217500
 20
46.425556
 30
0.0
  0
SPLINE
  5
1fb
100
AcDbEntity
  8
0
 62
7
100
AcDbSpline
 70
8
 71
3
 72
8
 73
4
 74
0
 40
0
 40
0
 40
0
 40
0
 40
1
 40
1
 40
1
 40
1
 10
89.217500
 20
46.425556
 30
0.0
 10
89.441020
 20
46.425556
 30
0.0
 10
89.667292
 20
46.611187
 30
0.0
 10
89.667292
 20
46.875347
 30
0.0
  0
SPLINE
  5
1fc
100
AcDbEntity
  8
0
 62
7
100
AcDbSpline
 70
8
 71
3
 72
8
 73
4
 74
0
 40
0
 40
0
 40
0
 40
0
 40
1
 40
1
 40
1
 40
1
 10
89.667292
 20
46.875347
 30
0.0
 10
89.667292
 20
47.098867
 30
0.0
 10
89.441020
 20
47.298681
 30
0.0
 10
89.217500
 20
47.298681
 30
0.0
  0
LWPOLYLINE
  5
1fd
100
AcDbEntity
  8
0
 62
7
100
AcDbPolyline
 90
2
 70
0
 10
91.660486
 20
47.404514
 30
0.0
 10
91.660486
 20
47.404514
 30
0.0
  0
SPLINE
  5
1fe
100
AcDbEntity
  8
0
 62
7
100
AcDbSpline
 70
8
 71
3
 72
8
 73
4
 74
0
 40
0
 40
0
 40
0
 40
0
 40
1
 40
1
 40
1
 40
1
 10
90.513958
 20
46.346181
 30
0.0
 10
90.473318
 20
46.346181
 30
0.0
 10
90.413487
 20
46.328542
 30
0.0
 10
90.372847
 20
46.328542
 30
0.0
  0
SPLINE
  5
1ff
100
AcDbEntity
  8
0
 62
7
100
AcDbSpline
 70
8
 71
3
 72
8
 73
4
 74
0
 40
0
 40
0
 40
0
 40
0
 40
1
 40
1
 40
1
 40
1
 10
90.372847
 20
46.328542
 30
0.0
 10
90.250927
 20
46.267582
 30
0.0
 10
90.170000
 20
46.144462
 30
0.0
 10
90.170000
 20
46.002222
 30
0.0
  0
SPLINE
  5
200
100
AcDbEntity
  8
0
 62
7
100
AcDbSpline
 70
8
 71
3
 72
8
 73
4
 74
0
 40
0
 40
0
 40
0
 40
0
 40
1
 40
1
 40
1
 40
1
 10
90.170000
 20
46.002222
 30
0.0
 10
90.170000
 20
45.859982
 30
0.0
 10
90.250927
 20
45.736863
 30
0.0
 10
90.372847
 20
45.675903
 30
0.0
  0
SPLINE
  5
201
100
AcDbEntity
  8
0
 62
7
100
AcDbSpline
 70
8
 71
3
 72
8
 73
4
 74
0
 40
0
 40
0
 40
0
 40
0
 40
1
 40
1
 40
1
 40
1
 10
90.372847
 20
45.675903
 30
0.0
 10
90.413487
 20
45.655583
 30
0.0
 10
90.473318
 20
45.658264
 30
0.0
 10
90.513958
 20
45.658264
 30
0.0
  0
SPLINE
  5
202
100
AcDbEntity
  8
0
 62
7
100
AcDbSpline
 70
8
 71
3
 72
8
 73
4
 74
0
 40
0
 40
0
 40
0
 40
0
 40
1
 40
1
 40
1
 40
1
 10
90.513958
 20
45.658264
 30
0.0
 10
90.696838
 20
45.658264
 30
0.0
 10
90.866736
 20
45.819342
 30
0.0
 10
90.866736
 20
46.002222
 30
0.0
  0
SPLINE
  5
203
100
AcDbEntity
  8
0
 62
7
100
AcDbSpline
 70
8
 71
3
 72
8
 73
4
 74
0
 40
0
 40
0
 40
0
 40
0
 40
1
 40
1
 40
1
 40
1
 10
90.866736
 20
46.002222
 30
0.0
 10
90.866736
 20
46.205422
 30
0.0
 10
90.696838
 20
46.346181
 30
0.0
 10
90.513958
 20
46.346181
 30
0.0
  0
LWPOLYLINE
  5
204
100
AcDbEntity
  8
0
 62
7
100
AcDbPolyline
 90
2
 70
0
 10
89.217500
 20
47.298681
 30
0.0
 10
89.217500
 20
47.298681
 30
0.0
  0
SPLINE
  5
205
100
AcDbEntity
  8
0
 62
7
100
AcDbSpline
 70
8
 71
3
 72
8
 73
4
 74
0
 40
0
 40
0
 40
0
 40
0
 40
1
 40
1
 40
1
 40
1
 10
88.908819
 20
45.737639
 30
0.0
 10
88.766579
 20
45.737639
 30
0.0
 10
88.625821
 20
45.659393
 30
0.0
 10
88.564861
 20
45.517153
 30
0.0
  0
SPLINE
  5
206
100
AcDbEntity
  8
0
 62
7
100
AcDbSpline
 70
8
 71
3
 72
8
 73
4
 74
0
 40
0
 40
0
 40
0
 40
0
 40
1
 40
1
 40
1
 40
1
 10
88.564861
 20
45.517153
 30
0.0
 10
88.524221
 20
45.476513
 30
0.0
 10
88.529583
 20
45.410543
 30
0.0
 10
88.529583
 20
45.349583
 30
0.0
  0
SPLINE
  5
207
100
AcDbEntity
  8
0
 62
7
100
AcDbSpline
 70
8
 71
3
 72
8
 73
4
 74
0
 40
0
 40
0
 40
0
 40
0
 40
1
 40
1
 40
1
 40
1
 10
88.529583
 20
45.349583
 30
0.0
 10
88.529583
 20
45.288623
 30
0.0
 10
88.524221
 20
45.225335
 30
0.0
 10
88.564861
 20
45.164375
 30
0.0
  0
SPLINE
  5
208
100
AcDbEntity
  8
0
 62
7
100
AcDbSpline
 70
8
 71
3
 72
8
 73
4
 74
0
 40
0
 40
0
 40
0
 40
0
 40
1
 40
1
 40
1
 40
1
 10
88.564861
 20
45.164375
 30
0.0
 10
88.625821
 20
45.042455
 30
0.0
 10
88.766579
 20
44.987986
 30
0.0
 10
88.908819
 20
44.987986
 30
0.0
  0
SPLINE
  5
209
100
AcDbEntity
  8
0
 62
7
100
AcDbSpline
 70
8
 71
3
 72
8
 73
4
 74
0
 40
0
 40
0
 40
0
 40
0
 40
1
 40
1
 40
1
 40
1
 10
88.908819
 20
44.987986
 30
0.0
 10
89.132339
 20
44.987986
 30
0.0
 10
89.296875
 20
45.126063
 30
0.0
 10
89.296875
 20
45.349583
 30
0.0
  0
SPLINE
  5
20a
100
AcDbEntity
  8
0
 62
7
100
AcDbSpline
 70
8
 71
3
 72
8
 73
4
 74
0
 40
0
 40
0
 40
0
 40
0
 40
1
 40
1
 40
1
 40
1
 10
89.296875
 20
45.349583
 30
0.0
 10
89.296875
 20
45.573103
 30
0.0
 10
89.132339
 20
45.737639
 30
0.0
 10
88.908819
 20
45.737639
 30
0.0
  0
LWPOLYLINE
  5
20b
100
AcDbEntity
  8
0
 62
7
100
AcDbPolyline
 90
2
 70
0
 10
90.513958
 20
46.346181
 30
0.0
 10
90.513958
 20
46.346181
 30
0.0
  0
SPLINE
  5
20c
100
AcDbEntity
  8
0
 62
7
100
AcDbSpline
 70
8
 71
3
 72
8
 73
4
 74
0
 40
0
 40
0
 40
0
 40
0
 40
1
 40
1
 40
1
 40
1
 10
90.311111
 20
44.802778
 30
0.0
 10
90.087591
 20
44.802778
 30
0.0
 10
89.949514
 20
44.659338
 30
0.0
 10
89.949514
 20
44.476458
 30
0.0
  0
SPLINE
  5
20d
100
AcDbEntity
  8
0
 62
7
100
AcDbSpline
 70
8
 71
3
 72
8
 73
4
 74
0
 40
0
 40
0
 40
0
 40
0
 40
1
 40
1
 40
1
 40
1
 10
89.949514
 20
44.476458
 30
0.0
 10
89.949514
 20
44.252938
 30
0.0
 10
90.087591
 20
44.114861
 30
0.0
 10
90.311111
 20
44.114861
 30
0.0
  0
LWPOLYLINE
  5
20e
100
AcDbEntity
  8
0
 62
7
100
AcDbPolyline
 90
2
 70
0
 10
88.908819
 20
45.737639
 30
0.0
 10
88.908819
 20
45.737639
 30
0.0
  0
SPLINE
  5
20f
100
AcDbEntity
  8
0
 62
7
100
AcDbSpline
 70
8
 71
3
 72
8
 73
4
 74
0
 40
0
 40
0
 40
0
 40
0
 40
1
 40
1
 40
1
 40
1
 10
90.372847
 20
44.114861
 30
0.0
 10
90.535407
 20
44.155501
 30
0.0
 10
90.637431
 20
44.293578
 30
0.0
 10
90.637431
 20
44.476458
 30
0.0
  0
SPLINE
  5
210
100
AcDbEntity
  8
0
 62
7
100
AcDbSpline
 70
8
 71
3
 72
8
 73
4
 74
0
 40
0
 40
0
 40
0
 40
0
 40
1
 40
1
 40
1
 40
1
 10
90.637431
 20
44.476458
 30
0.0
 10
90.637431
 20
44.639018
 30
0.0
 10
90.535407
 20
44.762138
 30
0.0
 10
90.372847
 20
44.802778
 30
0.0
  0
LWPOLYLINE
  5
211
100
AcDbEntity
  8
0
 62
7
100
AcDbPolyline
 90
2
 70
0
 10
90.311111
 20
44.114861
 30
0.0
 10
90.372847
 20
44.114861
 30
0.0
  0
SPLINE
  5
212
100
AcDbEntity
  8
0
 62
7
100
AcDbSpline
 70
8
 71
3
 72
8
 73
4
 74
0
 40
0
 40
0
 40
0
 40
0
 40
1
 40
1
 40
1
 40
1
 10
93.239167
 20
44.732222
 30
0.0
 10
93.655408
 20
44.745557
 30
0.0
 10
94.020287
 20
44.551318
 30
0.0
 10
93.547847
 20
43.850278
 30
0.0
  0
SPLINE
  5
213
100
AcDbEntity
  8
0
 62
7
100
AcDbSpline
 70
8
 71
3
 72
8
 73
4
 74
0
 40
0
 40
0
 40
0
 40
0
 40
1
 40
1
 40
1
 40
1
 10
93.547847
 20
43.850278
 30
0.0
 10
93.304007
 20
43.443878
 30
0.0
 10
93.056992
 20
43.036913
 30
0.0
 10
92.833472
 20
42.650833
 30
0.0
  0
SPLINE
  5
214
100
AcDbEntity
  8
0
 62
7
100
AcDbSpline
 70
8
 71
3
 72
8
 73
4
 74
0
 40
0
 40
0
 40
0
 40
0
 40
1
 40
1
 40
1
 40
1
 10
92.833472
 20
42.650833
 30
0.0
 10
92.609952
 20
42.305393
 30
0.0
 10
92.407034
 20
41.955579
 30
0.0
 10
92.163194
 20
41.610139
 30
0.0
  0
SPLINE
  5
215
100
AcDbEntity
  8
0
 62
7
100
AcDbSpline
 70
8
 71
3
 72
8
 73
4
 74
0
 40
0
 40
0
 40
0
 40
0
 40
1
 40
1
 40
1
 40
1
 10
92.163194
 20
41.610139
 30
0.0
 10
92.000634
 20
41.366299
 30
0.0
 10
91.843366
 20
41.121965
 30
0.0
 10
91.660486
 20
40.878125
 30
0.0
  0
SPLINE
  5
216
100
AcDbEntity
  8
0
 62
7
100
AcDbSpline
 70
8
 71
3
 72
8
 73
4
 74
0
 40
0
 40
0
 40
0
 40
0
 40
1
 40
1
 40
1
 40
1
 10
91.660486
 20
40.878125
 30
0.0
 10
91.294726
 20
40.451405
 30
0.0
 10
90.880847
 20
40.026802
 30
0.0
 10
90.372847
 20
39.661042
 30
0.0
  0
SPLINE
  5
217
100
AcDbEntity
  8
0
 62
7
100
AcDbSpline
 70
8
 71
3
 72
8
 73
4
 74
0
 40
0
 40
0
 40
0
 40
0
 40
1
 40
1
 40
1
 40
1
 10
90.372847
 20
39.661042
 30
0.0
 10
90.230607
 20
39.539122
 30
0.0
 10
90.067977
 20
39.436322
 30
0.0
 10
89.905417
 20
39.334722
 30
0.0
  0
SPLINE
  5
218
100
AcDbEntity
  8
0
 62
7
100
AcDbSpline
 70
8
 71
3
 72
8
 73
4
 74
0
 40
0
 40
0
 40
0
 40
0
 40
1
 40
1
 40
1
 40
1
 10
89.905417
 20
39.334722
 30
0.0
 10
89.499017
 20
39.070562
 30
0.0
 10
89.115547
 20
38.521711
 30
0.0
 10
89.420347
 20
37.932431
 30
0.0
  0
SPLINE
  5
219
100
AcDbEntity
  8
0
 62
7
100
AcDbSpline
 70
8
 71
3
 72
8
 73
4
 74
0
 40
0
 40
0
 40
0
 40
0
 40
1
 40
1
 40
1
 40
1
 10
89.420347
 20
37.932431
 30
0.0
 10
89.826747
 20
37.261871
 30
0.0
 10
90.189967
 20
36.961798
 30
0.0
 10
90.372847
 20
36.230278
 30
0.0
  0
LWPOLYLINE
  5
21a
100
AcDbEntity
  8
0
 62
7
100
AcDbPolyline
 90
3
 70
0
 10
90.372847
 20
44.802778
 30
0.0
 10
90.311111
 20
44.802778
 30
0.0
 10
90.311111
 20
44.802778
 30
0.0
  0
SPLINE
  5
21b
100
AcDbEntity
  8
0
 62
7
100
AcDbSpline
 70
8
 71
3
 72
8
 73
4
 74
0
 40
0
 40
0
 40
0
 40
0
 40
1
 40
1
 40
1
 40
1
 10
90.399306
 20
36.186181
 30
0.0
 10
90.500906
 20
35.779781
 30
0.0
 10
90.515087
 20
35.412327
 30
0.0
 10
90.372847
 20
35.127847
 30
0.0
  0
SPLINE
  5
21c
100
AcDbEntity
  8
0
 62
7
100
AcDbSpline
 70
8
 71
3
 72
8
 73
4
 74
0
 40
0
 40
0
 40
0
 40
0
 40
1
 40
1
 40
1
 40
1
 10
90.372847
 20
35.127847
 30
0.0
 10
90.291567
 20
34.904327
 30
0.0
 10
90.110522
 20
34.744378
 30
0.0
 10
89.826042
 20
34.642778
 30
0.0
  0
SPLINE
  5
21d
100
AcDbEntity
  8
0
 62
7
100
AcDbSpline
 70
8
 71
3
 72
8
 73
4
 74
0
 40
0
 40
0
 40
0
 40
0
 40
1
 40
1
 40
1
 40
1
 10
89.826042
 20
34.642778
 30
0.0
 10
89.521242
 20
34.520858
 30
0.0
 10
89.213619
 20
34.400419
 30
0.0
 10
88.908819
 20
34.298819
 30
0.0
  0
SPLINE
  5
21e
100
AcDbEntity
  8
0
 62
7
100
AcDbSpline
 70
8
 71
3
 72
8
 73
4
 74
0
 40
0
 40
0
 40
0
 40
0
 40
1
 40
1
 40
1
 40
1
 10
88.908819
 20
34.298819
 30
0.0
 10
88.786899
 20
34.258179
 30
0.0
 10
88.666461
 20
34.215987
 30
0.0
 10
88.564861
 20
34.175347
 30
0.0
  0
SPLINE
  5
21f
100
AcDbEntity
  8
0
 62
7
100
AcDbSpline
 70
8
 71
3
 72
8
 73
4
 74
0
 40
0
 40
0
 40
0
 40
0
 40
1
 40
1
 40
1
 40
1
 10
88.564861
 20
34.175347
 30
0.0
 10
87.305021
 20
33.728307
 30
0.0
 10
85.965947
 20
33.323671
 30
0.0
 10
84.340347
 20
33.161111
 30
0.0
  0
SPLINE
  5
220
100
AcDbEntity
  8
0
 62
7
100
AcDbSpline
 70
8
 71
3
 72
8
 73
4
 74
0
 40
0
 40
0
 40
0
 40
0
 40
1
 40
1
 40
1
 40
1
 10
84.340347
 20
33.161111
 30
0.0
 10
83.344667
 20
33.059511
 30
0.0
 10
83.041913
 20
32.304778
 30
0.0
 10
82.655833
 20
31.776458
 30
0.0
  0
SPLINE
  5
221
100
AcDbEntity
  8
0
 62
7
100
AcDbSpline
 70
8
 71
3
 72
8
 73
4
 74
0
 40
0
 40
0
 40
0
 40
0
 40
1
 40
1
 40
1
 40
1
 10
82.655833
 20
31.776458
 30
0.0
 10
82.188473
 20
31.146538
 30
0.0
 10
81.983580
 20
30.736822
 30
0.0
 10
81.597500
 20
30.127222
 30
0.0
  0
SPLINE
  5
222
100
AcDbEntity
  8
0
 62
7
100
AcDbSpline
 70
8
 71
3
 72
8
 73
4
 74
0
 40
0
 40
0
 40
0
 40
0
 40
1
 40
1
 40
1
 40
1
 10
81.597500
 20
30.127222
 30
0.0
 10
81.556860
 20
30.066262
 30
0.0
 10
81.541126
 20
30.011793
 30
0.0
 10
81.500486
 20
29.950833
 30
0.0
  0
SPLINE
  5
223
100
AcDbEntity
  8
0
 62
7
100
AcDbSpline
 70
8
 71
3
 72
8
 73
4
 74
0
 40
0
 40
0
 40
0
 40
0
 40
1
 40
1
 40
1
 40
1
 10
81.500486
 20
29.950833
 30
0.0
 10
80.931526
 20
29.056753
 30
0.0
 10
80.214752
 20
29.236599
 30
0.0
 10
80.133472
 20
30.171319
 30
0.0
  0
SPLINE
  5
224
100
AcDbEntity
  8
0
 62
7
100
AcDbSpline
 70
8
 71
3
 72
8
 73
4
 74
0
 40
0
 40
0
 40
0
 40
0
 40
1
 40
1
 40
1
 40
1
 10
80.133472
 20
30.171319
 30
0.0
 10
79.909952
 20
32.304919
 30
0.0
 10
79.791066
 20
33.684069
 30
0.0
 10
79.912986
 20
35.736389
 30
0.0
  0
SPLINE
  5
225
100
AcDbEntity
  8
0
 62
7
100
AcDbSpline
 70
8
 71
3
 72
8
 73
4
 74
0
 40
0
 40
0
 40
0
 40
0
 40
1
 40
1
 40
1
 40
1
 10
79.912986
 20
35.736389
 30
0.0
 10
80.603866
 20
36.671109
 30
0.0
 10
81.048860
 20
37.286424
 30
0.0
 10
81.597500
 20
38.038264
 30
0.0
  0
LWPOLYLINE
  5
226
100
AcDbEntity
  8
0
 62
7
100
AcDbPolyline
 90
2
 70
0
 10
90.372847
 20
36.230278
 30
0.0
 10
90.399306
 20
36.186181
 30
0.0
  0
SPLINE
  5
227
100
AcDbEntity
  8
0
 62
7
100
AcDbSpline
 70
8
 71
3
 72
8
 73
4
 74
0
 40
0
 40
0
 40
0
 40
0
 40
1
 40
1
 40
1
 40
1
 10
82.347153
 20
39.052500
 30
0.0
 10
82.692593
 20
39.540180
 30
0.0
 10
82.837655
 20
39.804128
 30
0.0
 10
83.264375
 20
40.190208
 30
0.0
  0
SPLINE
  5
228
100
AcDbEntity
  8
0
 62
7
100
AcDbSpline
 70
8
 71
3
 72
8
 73
4
 74
0
 40
0
 40
0
 40
0
 40
0
 40
1
 40
1
 40
1
 40
1
 10
83.264375
 20
40.190208
 30
0.0
 10
84.300695
 20
41.185888
 30
0.0
 10
84.809471
 20
41.690431
 30
0.0
 10
85.866111
 20
42.686111
 30
0.0
  0
SPLINE
  5
229
100
AcDbEntity
  8
0
 62
7
100
AcDbSpline
 70
8
 71
3
 72
8
 73
4
 74
0
 40
0
 40
0
 40
0
 40
0
 40
1
 40
1
 40
1
 40
1
 10
85.866111
 20
42.686111
 30
0.0
 10
86.048991
 20
42.848671
 30
0.0
 10
86.450876
 20
42.668049
 30
0.0
 10
86.430556
 20
42.403889
 30
0.0
  0
SPLINE
  5
22a
100
AcDbEntity
  8
0
 62
7
100
AcDbSpline
 70
8
 71
3
 72
8
 73
4
 74
0
 40
0
 40
0
 40
0
 40
0
 40
1
 40
1
 40
1
 40
1
 10
86.430556
 20
42.403889
 30
0.0
 10
86.369596
 20
41.814609
 30
0.0
 10
86.332766
 20
41.514183
 30
0.0
 10
86.271806
 20
40.904583
 30
0.0
  0
SPLINE
  5
22b
100
AcDbEntity
  8
0
 62
7
100
AcDbSpline
 70
8
 71
3
 72
8
 73
4
 74
0
 40
0
 40
0
 40
0
 40
0
 40
1
 40
1
 40
1
 40
1
 10
86.271806
 20
40.904583
 30
0.0
 10
86.231166
 20
40.640423
 30
0.0
 10
85.922062
 20
40.741600
 30
0.0
 10
85.698542
 20
40.640000
 30
0.0
  0
SPLINE
  5
22c
100
AcDbEntity
  8
0
 62
7
100
AcDbSpline
 70
8
 71
3
 72
8
 73
4
 74
0
 40
0
 40
0
 40
0
 40
0
 40
1
 40
1
 40
1
 40
1
 10
85.698542
 20
40.640000
 30
0.0
 10
85.535982
 20
40.558720
 30
0.0
 10
85.703551
 20
40.129248
 30
0.0
 10
85.866111
 20
40.190208
 30
0.0
  0
SPLINE
  5
22d
100
AcDbEntity
  8
0
 62
7
100
AcDbSpline
 70
8
 71
3
 72
8
 73
4
 74
0
 40
0
 40
0
 40
0
 40
0
 40
1
 40
1
 40
1
 40
1
 10
85.866111
 20
40.190208
 30
0.0
 10
86.963391
 20
40.596608
 30
0.0
 10
87.650461
 20
40.837908
 30
0.0
 10
88.564861
 20
41.142708
 30
0.0
  0
LWPOLYLINE
  5
22e
100
AcDbEntity
  8
0
 62
7
100
AcDbPolyline
 90
2
 70
0
 10
81.597500
 20
38.038264
 30
0.0
 10
82.347153
 20
39.052500
 30
0.0
  0
SPLINE
  5
22f
100
AcDbEntity
  8
0
 62
7
100
AcDbSpline
 70
8
 71
3
 72
8
 73
4
 74
0
 40
0
 40
0
 40
0
 40
0
 40
1
 40
1
 40
1
 40
1
 10
88.908819
 20
41.266181
 30
0.0
 10
89.112019
 20
41.347461
 30
0.0
 10
89.337938
 20
41.411525
 30
0.0
 10
89.561458
 20
41.513125
 30
0.0
  0
SPLINE
  5
230
100
AcDbEntity
  8
0
 62
7
100
AcDbSpline
 70
8
 71
3
 72
8
 73
4
 74
0
 40
0
 40
0
 40
0
 40
0
 40
1
 40
1
 40
1
 40
1
 10
89.561458
 20
41.513125
 30
0.0
 10
89.866258
 20
41.756965
 30
0.0
 10
90.129007
 20
41.936106
 30
0.0
 10
90.372847
 20
42.139306
 30
0.0
  0
SPLINE
  5
231
100
AcDbEntity
  8
0
 62
7
100
AcDbSpline
 70
8
 71
3
 72
8
 73
4
 74
0
 40
0
 40
0
 40
0
 40
0
 40
1
 40
1
 40
1
 40
1
 10
90.372847
 20
42.139306
 30
0.0
 10
90.637007
 20
42.322186
 30
0.0
 10
90.860245
 20
42.530466
 30
0.0
 10
91.043125
 20
42.774306
 30
0.0
  0
SPLINE
  5
232
100
AcDbEntity
  8
0
 62
7
100
AcDbSpline
 70
8
 71
3
 72
8
 73
4
 74
0
 40
0
 40
0
 40
0
 40
0
 40
1
 40
1
 40
1
 40
1
 10
91.043125
 20
42.774306
 30
0.0
 10
91.266645
 20
43.079106
 30
0.0
 10
91.457286
 20
43.341854
 30
0.0
 10
91.660486
 20
43.585694
 30
0.0
  0
SPLINE
  5
233
100
AcDbEntity
  8
0
 62
7
100
AcDbSpline
 70
8
 71
3
 72
8
 73
4
 74
0
 40
0
 40
0
 40
0
 40
0
 40
1
 40
1
 40
1
 40
1
 10
91.660486
 20
43.585694
 30
0.0
 10
91.802726
 20
43.809214
 30
0.0
 10
91.980314
 20
43.991036
 30
0.0
 10
92.163194
 20
44.194236
 30
0.0
  0
SPLINE
  5
234
100
AcDbEntity
  8
0
 62
7
100
AcDbSpline
 70
8
 71
3
 72
8
 73
4
 74
0
 40
0
 40
0
 40
0
 40
0
 40
1
 40
1
 40
1
 40
1
 10
92.163194
 20
44.194236
 30
0.0
 10
92.285114
 20
44.316156
 30
0.0
 10
92.406329
 20
44.416274
 30
0.0
 10
92.568889
 20
44.538194
 30
0.0
  0
SPLINE
  5
235
100
AcDbEntity
  8
0
 62
7
100
AcDbSpline
 70
8
 71
3
 72
8
 73
4
 74
0
 40
0
 40
0
 40
0
 40
0
 40
1
 40
1
 40
1
 40
1
 10
92.568889
 20
44.538194
 30
0.0
 10
92.609529
 20
44.578834
 30
0.0
 10
92.711552
 20
44.621027
 30
0.0
 10
92.833472
 20
44.661667
 30
0.0
  0
SPLINE
  5
236
100
AcDbEntity
  8
0
 62
7
100
AcDbSpline
 70
8
 71
3
 72
8
 73
4
 74
0
 40
0
 40
0
 40
0
 40
0
 40
1
 40
1
 40
1
 40
1
 10
92.833472
 20
44.661667
 30
0.0
 10
92.955392
 20
44.702307
 30
0.0
 10
93.100421
 20
44.727777
 30
0.0
 10
93.239167
 20
44.732222
 30
0.0
  0
LWPOLYLINE
  5
237
100
AcDbEntity
  8
0
 62
7
100
AcDbPolyline
 90
2
 70
0
 10
88.564861
 20
41.142708
 30
0.0
 10
88.908819
 20
41.266181
 30
0.0
  0
SPLINE
  5
238
100
AcDbEntity
  8
0
 62
7
100
AcDbSpline
 70
8
 71
3
 72
8
 73
4
 74
0
 40
0
 40
0
 40
0
 40
0
 40
1
 40
1
 40
1
 40
1
 10
89.094028
 20
43.620972
 30
0.0
 10
89.012748
 20
43.620972
 30
0.0
 10
88.949459
 20
43.599876
 30
0.0
 10
88.908819
 20
43.559236
 30
0.0
  0
SPLINE
  5
239
100
AcDbEntity
  8
0
 62
7
100
AcDbSpline
 70
8
 71
3
 72
8
 73
4
 74
0
 40
0
 40
0
 40
0
 40
0
 40
1
 40
1
 40
1
 40
1
 10
88.908819
 20
43.559236
 30
0.0
 10
88.868179
 20
43.518596
 30
0.0
 10
88.829444
 20
43.443807
 30
0.0
 10
88.829444
 20
43.382847
 30
0.0
  0
SPLINE
  5
23a
100
AcDbEntity
  8
0
 62
7
100
AcDbSpline
 70
8
 71
3
 72
8
 73
4
 74
0
 40
0
 40
0
 40
0
 40
0
 40
1
 40
1
 40
1
 40
1
 10
88.829444
 20
43.382847
 30
0.0
 10
88.829444
 20
43.301567
 30
0.0
 10
88.868179
 20
43.238279
 30
0.0
 10
88.908819
 20
43.197639
 30
0.0
  0
SPLINE
  5
23b
100
AcDbEntity
  8
0
 62
7
100
AcDbSpline
 70
8
 71
3
 72
8
 73
4
 74
0
 40
0
 40
0
 40
0
 40
0
 40
1
 40
1
 40
1
 40
1
 10
88.908819
 20
43.197639
 30
0.0
 10
88.949459
 20
43.156999
 30
0.0
 10
89.012748
 20
43.118264
 30
0.0
 10
89.094028
 20
43.118264
 30
0.0
  0
SPLINE
  5
23c
100
AcDbEntity
  8
0
 62
7
100
AcDbSpline
 70
8
 71
3
 72
8
 73
4
 74
0
 40
0
 40
0
 40
0
 40
0
 40
1
 40
1
 40
1
 40
1
 10
89.094028
 20
43.118264
 30
0.0
 10
89.236268
 20
43.118264
 30
0.0
 10
89.340972
 20
43.240607
 30
0.0
 10
89.340972
 20
43.382847
 30
0.0
  0
SPLINE
  5
23d
100
AcDbEntity
  8
0
 62
7
100
AcDbSpline
 70
8
 71
3
 72
8
 73
4
 74
0
 40
0
 40
0
 40
0
 40
0
 40
1
 40
1
 40
1
 40
1
 10
89.340972
 20
43.382847
 30
0.0
 10
89.340972
 20
43.525087
 30
0.0
 10
89.236268
 20
43.620972
 30
0.0
 10
89.094028
 20
43.620972
 30
0.0
  0
LWPOLYLINE
  5
23e
100
AcDbEntity
  8
0
 62
7
100
AcDbPolyline
 90
2
 70
0
 10
93.239167
 20
44.732222
 30
0.0
 10
93.239167
 20
44.732222
 30
0.0
  0
LWPOLYLINE
  5
23f
100
AcDbEntity
  8
0
 62
7
100
AcDbPolyline
 90
2
 70
0
 10
89.094028
 20
43.620972
 30
0.0
 10
89.094028
 20
43.620972
 30
0.0
  0
ENDSEC
  0
SECTION
  2
OBJECTS
  0
DICTIONARY
  5
C
330
0
100
AcDbDictionary
  3
ACAD_GROUP
350
D
  3
ACAD_MLINESTYLE
350
17
  0
DICTIONARY
  5
D
330
C
100
AcDbDictionary
  0
DICTIONARY
  5
1A
330
C
100
AcDbDictionary
  0
DICTIONARY
  5
17
330
C
100
AcDbDictionary
  3
STANDARD
350
18
  0
DICTIONARY
  5
19
330
C
100
AcDbDictionary
  0
ENDSEC
  0
EOF
