999
DXF created by Inkscape
  0
SECTION
  2
HEADER
  9
$ACADVER
  1
AC1014
  9
$HANDSEED
  5
FFFF
  9
$MEASUREMENT
 70
     1
  0
ENDSEC
  0
SECTION
  2
TABLES
  0
TABLE
  2
VPORT
  5
8
330
0
100
AcDbSymbolTable
 70
     4
  0
VPORT
  5
2E
330
8
100
AcDbSymbolTableRecord
100
AcDbViewportTableRecord
  2
*ACTIVE
 70
     0
 10
0.0
 20
0.0
 11
1.0
 21
1.0
 12
210.0
 22
148.5
 13
0.0
 23
0.0
 14
10.0
 24
10.0
 15
10.0
 25
10.0
 16
0.0
 26
0.0
 36
1.0
 17
0.0
 27
0.0
 37
0.0
 40
341.0
 41
1.24
 42
50.0
 43
0.0
 44
0.0
 50
0.0
 51
0.0
 71
     0
 72
   100
 73
     1
 74
     3
 75
     0
 76
     0
 77
     0
 78
     0
  0
ENDTAB
  0
TABLE
  2
LTYPE
  5
5
330
0
100
AcDbSymbolTable
 70
     1
  0
LTYPE
  5
14
330
5
100
AcDbSymbolTableRecord
100
AcDbLinetypeTableRecord
  2
BYBLOCK
 70
     0
  3

 72
    65
 73
     0
 40
0.0
  0
LTYPE
  5
15
330
5
100
AcDbSymbolTableRecord
100
AcDbLinetypeTableRecord
  2
BYLAYER
 70
     0
  3

 72
    65
 73
     0
 40
0.0
  0
LTYPE
  5
16
330
5
100
AcDbSymbolTableRecord
100
AcDbLinetypeTableRecord
  2
CONTINUOUS
 70
     0
  3
Solid line
 72
    65
 73
     0
 40
0.0
  0
ENDTAB
  0
TABLE
  2
LAYER
  5
2
100
AcDbSymbolTable
 70
2
  0
LAYER
  5
50
100
AcDbSymbolTableRecord
100
AcDbLayerTableRecord
  2
0
 70
0
  6
CONTINUOUS
  0
LAYER
  5
51
100
AcDbSymbolTableRecord
100
AcDbLayerTableRecord
  2
Layer_1
 70
0
  6
CONTINUOUS
  0
ENDTAB
  0
TABLE
  2
STYLE
  5
3
330
0
100
AcDbSymbolTable
 70
     1
  0
STYLE
  5
11
330
3
100
AcDbSymbolTableRecord
100
AcDbTextStyleTableRecord
  2
STANDARD
 70
     0
 40
0.0
 41
1.0
 50
0.0
 71
     0
 42
2.5
  3
txt
  4

  0
ENDTAB
  0
TABLE
  2
VIEW
  5
6
330
0
100
AcDbSymbolTable
 70
     0
  0
ENDTAB
  0
TABLE
  2
UCS
  5
7
330
0
100
AcDbSymbolTable
 70
     0
  0
ENDTAB
  0
TABLE
  2
APPID
  5
9
330
0
100
AcDbSymbolTable
 70
     2
  0
APPID
  5
12
330
9
100
AcDbSymbolTableRecord
100
AcDbRegAppTableRecord
  2
ACAD
 70
     0
  0
ENDTAB
  0
TABLE
  2
DIMSTYLE
  5
A
330
0
100
AcDbSymbolTable
 70
     1
  0
DIMSTYLE
105
27
330
A
100
AcDbSymbolTableRecord
100
AcDbDimStyleTableRecord
  2
ISO-25
 70
     0
  3

  4

  5

  6

  7

 40
1.0
 41
2.5
 42
0.625
 43
3.75
 44
1.25
 45
0.0
 46
0.0
 47
0.0
 48
0.0
140
2.5
141
2.5
142
0.0
143
0.03937007874016
144
1.0
145
0.0
146
1.0
147
0.625
 71
     0
 72
     0
 73
     0
 74
     0
 75
     0
 76
     0
 77
     1
 78
     8
170
     0
171
     3
172
     1
173
     0
174
     0
175
     0
176
     0
177
     0
178
     0
270
     2
271
     2
272
     2
273
     2
274
     3
340
11
275
     0
280
     0
281
     0
282
     0
283
     0
284
     8
285
     0
286
     0
287
     3
288
     0
  0
ENDTAB
  0
TABLE
  2
BLOCK_RECORD
  5
1
330
0
100
AcDbSymbolTable
 70
     1
  0
BLOCK_RECORD
  5
1F
330
1
100
AcDbSymbolTableRecord
100
AcDbBlockTableRecord
  2
*MODEL_SPACE
  0
BLOCK_RECORD
  5
1B
330
1
100
AcDbSymbolTableRecord
100
AcDbBlockTableRecord
  2
*PAPER_SPACE
  0
ENDTAB
  0
ENDSEC
  0
SECTION
  2
BLOCKS
  0
BLOCK
  5
20
330
1F
100
AcDbEntity
  8
0
100
AcDbBlockBegin
  2
*MODEL_SPACE
 70
     0
 10
0.0
 20
0.0
 30
0.0
  3
*MODEL_SPACE
  1

  0
ENDBLK
  5
21
330
1F
100
AcDbEntity
  8
0
100
AcDbBlockEnd
  0
BLOCK
  5
1C
330
1B
100
AcDbEntity
 67
     1
  8
0
100
AcDbBlockBegin
  2
*PAPER_SPACE
  1

  0
ENDBLK
  5
1D
330
1B
100
AcDbEntity
 67
     1
  8
0
100
AcDbBlockEnd
  0
ENDSEC
  0
SECTION
  2
ENTITIES
  0
LWPOLYLINE
  5
100
100
AcDbEntity
  8
Layer_1
 62
7
100
AcDbPolyline
 90
13
 70
0
 10
123.457289
 20
45.554419
 30
0.0
 10
123.457289
 20
20.973845
 30
0.0
 10
129.349216
 20
20.973845
 30
0.0
 10
129.349216
 20
32.473621
 30
0.0
 10
137.748608
 20
20.973845
 30
0.0
 10
145.172188
 20
20.973845
 30
0.0
 10
135.204086
 20
33.498821
 30
0.0
 10
144.035800
 20
45.542047
 30
0.0
 10
137.217470
 20
45.542047
 30
0.0
 10
129.349216
 20
33.992903
 30
0.0
 10
129.349216
 20
45.554419
 30
0.0
 10
123.457289
 20
45.554419
 30
0.0
 10
123.457289
 20
45.554419
 30
0.0
  0
SPLINE
  5
101
100
AcDbEntity
  8
Layer_1
 62
7
100
AcDbSpline
 70
8
 71
3
 72
8
 73
4
 74
0
 40
0
 40
0
 40
0
 40
0
 40
1
 40
1
 40
1
 40
1
 10
49.147378
 20
33.442140
 30
0.0
 10
49.147378
 20
38.516479
 30
0.0
 10
50.725950
 20
40.976888
 30
0.0
 10
54.125234
 20
40.976888
 30
0.0
  0
SPLINE
  5
102
100
AcDbEntity
  8
Layer_1
 62
7
100
AcDbSpline
 70
8
 71
3
 72
8
 73
4
 74
0
 40
0
 40
0
 40
0
 40
0
 40
1
 40
1
 40
1
 40
1
 10
54.125234
 20
40.976888
 30
0.0
 10
57.573846
 20
40.976888
 30
0.0
 10
59.152537
 20
38.664387
 30
0.0
 10
59.152537
 20
33.491548
 30
0.0
  0
LWPOLYLINE
  5
103
100
AcDbEntity
  8
Layer_1
 62
7
100
AcDbPolyline
 90
4
 70
0
 10
43.230728
 20
53.785941
 30
0.0
 10
43.230728
 20
20.929496
 30
0.0
 10
49.147378
 20
20.929496
 30
0.0
 10
49.147378
 20
33.442140
 30
0.0
  0
SPLINE
  5
104
100
AcDbEntity
  8
Layer_1
 62
7
100
AcDbSpline
 70
8
 71
3
 72
8
 73
4
 74
0
 40
0
 40
0
 40
0
 40
0
 40
1
 40
1
 40
1
 40
1
 10
65.056815
 20
34.825569
 30
0.0
 10
65.056815
 20
37.781483
 30
0.0
 10
64.758231
 20
39.548596
 30
0.0
 10
64.019243
 20
41.125113
 30
0.0
  0
SPLINE
  5
105
100
AcDbEntity
  8
Layer_1
 62
7
100
AcDbSpline
 70
8
 71
3
 72
8
 73
4
 74
0
 40
0
 40
0
 40
0
 40
0
 40
1
 40
1
 40
1
 40
1
 10
64.019243
 20
41.125113
 30
0.0
 10
62.541266
 20
44.179567
 30
0.0
 10
58.944904
 20
46.399417
 30
0.0
 10
55.496331
 20
46.399417
 30
0.0
  0
SPLINE
  5
106
100
AcDbEntity
  8
Layer_1
 62
7
100
AcDbSpline
 70
8
 71
3
 72
8
 73
4
 74
0
 40
0
 40
0
 40
0
 40
0
 40
1
 40
1
 40
1
 40
1
 10
55.496331
 20
46.399417
 30
0.0
 10
53.033076
 20
46.399417
 30
0.0
 10
50.970185
 20
45.566988
 30
0.0
 10
49.147378
 20
43.891971
 30
0.0
  0
LWPOLYLINE
  5
107
100
AcDbEntity
  8
Layer_1
 62
7
100
AcDbPolyline
 90
4
 70
0
 10
59.152537
 20
33.491548
 30
0.0
 10
59.152537
 20
20.929496
 30
0.0
 10
65.056815
 20
20.929496
 30
0.0
 10
65.056815
 20
34.825569
 30
0.0
  0
SPLINE
  5
108
100
AcDbEntity
  8
Layer_1
 62
7
100
AcDbSpline
 70
8
 71
3
 72
8
 73
4
 74
0
 40
0
 40
0
 40
0
 40
0
 40
1
 40
1
 40
1
 40
1
 10
32.373299
 20
46.399417
 30
0.0
 10
27.791618
 20
46.399417
 30
0.0
 10
24.146835
 20
43.002703
 30
0.0
 10
24.146835
 20
38.765852
 30
0.0
  0
SPLINE
  5
109
100
AcDbEntity
  8
Layer_1
 62
7
100
AcDbSpline
 70
8
 71
3
 72
8
 73
4
 74
0
 40
0
 40
0
 40
0
 40
0
 40
1
 40
1
 40
1
 40
1
 10
24.146835
 20
38.765852
 30
0.0
 10
24.146835
 20
36.647466
 30
0.0
 10
24.892227
 20
34.871103
 30
0.0
 10
26.370204
 20
33.540956
 30
0.0
  0
SPLINE
  5
10a
100
AcDbEntity
  8
Layer_1
 62
7
100
AcDbSpline
 70
8
 71
3
 72
8
 73
4
 74
0
 40
0
 40
0
 40
0
 40
0
 40
1
 40
1
 40
1
 40
1
 10
26.370204
 20
33.540956
 30
0.0
 10
27.651101
 20
32.407848
 30
0.0
 10
28.194077
 20
32.167171
 30
0.0
 10
31.002202
 20
31.231103
 30
0.0
  0
SPLINE
  5
10b
100
AcDbEntity
  8
Layer_1
 62
7
100
AcDbSpline
 70
8
 71
3
 72
8
 73
4
 74
0
 40
0
 40
0
 40
0
 40
0
 40
1
 40
1
 40
1
 40
1
 10
31.002202
 20
31.231103
 30
0.0
 10
34.302985
 20
30.147285
 30
0.0
 10
35.189565
 20
29.448258
 30
0.0
 10
35.189565
 20
28.019571
 30
0.0
  0
SPLINE
  5
10c
100
AcDbEntity
  8
Layer_1
 62
7
100
AcDbSpline
 70
8
 71
3
 72
8
 73
4
 74
0
 40
0
 40
0
 40
0
 40
0
 40
1
 40
1
 40
1
 40
1
 10
35.189565
 20
28.019571
 30
0.0
 10
35.189565
 20
26.590884
 30
0.0
 10
34.048750
 20
25.512125
 30
0.0
 10
32.521523
 20
25.512125
 30
0.0
  0
SPLINE
  5
10d
100
AcDbEntity
  8
Layer_1
 62
7
100
AcDbSpline
 70
8
 71
3
 72
8
 73
4
 74
0
 40
0
 40
0
 40
0
 40
0
 40
1
 40
1
 40
1
 40
1
 10
32.521523
 20
25.512125
 30
0.0
 10
30.797217
 20
25.512125
 30
0.0
 10
29.864114
 20
26.444952
 30
0.0
 10
29.272915
 20
28.661878
 30
0.0
  0
LWPOLYLINE
  5
10e
100
AcDbEntity
  8
Layer_1
 62
7
100
AcDbPolyline
 90
4
 70
0
 10
49.147378
 20
43.891971
 30
0.0
 10
49.147378
 20
53.785941
 30
0.0
 10
43.230728
 20
53.785941
 30
0.0
 10
43.230728
 20
53.785941
 30
0.0
  0
SPLINE
  5
10f
100
AcDbEntity
  8
Layer_1
 62
7
100
AcDbSpline
 70
8
 71
3
 72
8
 73
4
 74
0
 40
0
 40
0
 40
0
 40
0
 40
1
 40
1
 40
1
 40
1
 10
23.257488
 20
28.661878
 30
0.0
 10
23.454567
 20
26.641992
 30
0.0
 10
23.654453
 20
25.854544
 30
0.0
 10
24.245652
 20
24.672186
 30
0.0
  0
SPLINE
  5
110
100
AcDbEntity
  8
Layer_1
 62
7
100
AcDbSpline
 70
8
 71
3
 72
8
 73
4
 74
0
 40
0
 40
0
 40
0
 40
0
 40
1
 40
1
 40
1
 40
1
 10
24.245652
 20
24.672186
 30
0.0
 10
25.625089
 20
21.962562
 30
0.0
 10
28.726816
 20
20.089557
 30
0.0
 10
32.076849
 20
20.089557
 30
0.0
  0
SPLINE
  5
111
100
AcDbEntity
  8
Layer_1
 62
7
100
AcDbSpline
 70
8
 71
3
 72
8
 73
4
 74
0
 40
0
 40
0
 40
0
 40
0
 40
1
 40
1
 40
1
 40
1
 10
32.076849
 20
20.089557
 30
0.0
 10
37.052649
 20
20.089557
 30
0.0
 10
41.093844
 20
23.981816
 30
0.0
 10
41.093844
 20
28.711286
 30
0.0
  0
SPLINE
  5
112
100
AcDbEntity
  8
Layer_1
 62
7
100
AcDbSpline
 70
8
 71
3
 72
8
 73
4
 74
0
 40
0
 40
0
 40
0
 40
0
 40
1
 40
1
 40
1
 40
1
 10
41.093844
 20
28.711286
 30
0.0
 10
41.093844
 20
30.928251
 30
0.0
 10
40.360508
 20
32.655443
 30
0.0
 10
38.783991
 20
33.985630
 30
0.0
  0
SPLINE
  5
113
100
AcDbEntity
  8
Layer_1
 62
7
100
AcDbSpline
 70
8
 71
3
 72
8
 73
4
 74
0
 40
0
 40
0
 40
0
 40
0
 40
1
 40
1
 40
1
 40
1
 10
38.783991
 20
33.985630
 30
0.0
 10
37.798713
 20
34.823118
 30
0.0
 10
36.418485
 20
35.408111
 30
0.0
 10
34.250810
 20
36.097810
 30
0.0
  0
LWPOLYLINE
  5
114
100
AcDbEntity
  8
Layer_1
 62
7
100
AcDbPolyline
 90
2
 70
0
 10
29.272915
 20
28.661878
 30
0.0
 10
23.257488
 20
28.661878
 30
0.0
  0
SPLINE
  5
115
100
AcDbEntity
  8
Layer_1
 62
7
100
AcDbSpline
 70
8
 71
3
 72
8
 73
4
 74
0
 40
0
 40
0
 40
0
 40
0
 40
1
 40
1
 40
1
 40
1
 10
32.570931
 20
36.641300
 30
0.0
 10
30.649585
 20
37.281749
 30
0.0
 10
30.063446
 20
37.780969
 30
0.0
 10
30.063446
 20
38.914077
 30
0.0
  0
SPLINE
  5
116
100
AcDbEntity
  8
Layer_1
 62
7
100
AcDbSpline
 70
8
 71
3
 72
8
 73
4
 74
0
 40
0
 40
0
 40
0
 40
0
 40
1
 40
1
 40
1
 40
1
 10
30.063446
 20
38.914077
 30
0.0
 10
30.063446
 20
40.096474
 30
0.0
 10
31.042993
 20
40.976888
 30
0.0
 10
32.323890
 20
40.976888
 30
0.0
  0
SPLINE
  5
117
100
AcDbEntity
  8
Layer_1
 62
7
100
AcDbSpline
 70
8
 71
3
 72
8
 73
4
 74
0
 40
0
 40
0
 40
0
 40
0
 40
1
 40
1
 40
1
 40
1
 10
32.323890
 20
40.976888
 30
0.0
 10
33.555538
 20
40.976888
 30
0.0
 10
34.399746
 20
40.244106
 30
0.0
 10
34.646075
 20
38.864669
 30
0.0
  0
LWPOLYLINE
  5
118
100
AcDbEntity
  8
Layer_1
 62
7
100
AcDbPolyline
 90
2
 70
0
 10
34.250810
 20
36.097810
 30
0.0
 10
32.570931
 20
36.641300
 30
0.0
  0
SPLINE
  5
119
100
AcDbEntity
  8
Layer_1
 62
7
100
AcDbSpline
 70
8
 71
3
 72
8
 73
4
 74
0
 40
0
 40
0
 40
0
 40
0
 40
1
 40
1
 40
1
 40
1
 10
40.451537
 20
38.864669
 30
0.0
 10
40.254458
 20
43.150770
 30
0.0
 10
36.757900
 20
46.399417
 30
0.0
 10
32.373299
 20
46.399417
 30
0.0
  0
LWPOLYLINE
  5
11a
100
AcDbEntity
  8
Layer_1
 62
7
100
AcDbPolyline
 90
2
 70
0
 10
34.646075
 20
38.864669
 30
0.0
 10
40.451537
 20
38.864669
 30
0.0
  0
SPLINE
  5
11b
100
AcDbEntity
  8
Layer_1
 62
7
100
AcDbSpline
 70
8
 71
3
 72
8
 73
4
 74
0
 40
0
 40
0
 40
0
 40
0
 40
1
 40
1
 40
1
 40
1
 10
79.666040
 20
46.390986
 30
0.0
 10
72.670355
 20
46.390986
 30
0.0
 10
67.354096
 20
40.780970
 30
0.0
 10
67.354096
 20
33.391125
 30
0.0
  0
SPLINE
  5
11c
100
AcDbEntity
  8
Layer_1
 62
7
100
AcDbSpline
 70
8
 71
3
 72
8
 73
4
 74
0
 40
0
 40
0
 40
0
 40
0
 40
1
 40
1
 40
1
 40
1
 10
67.354096
 20
33.391125
 30
0.0
 10
67.354096
 20
25.754990
 30
0.0
 10
72.424935
 20
20.082583
 30
0.0
 10
79.322082
 20
20.082583
 30
0.0
  0
SPLINE
  5
11d
100
AcDbEntity
  8
Layer_1
 62
7
100
AcDbSpline
 70
8
 71
3
 72
8
 73
4
 74
0
 40
0
 40
0
 40
0
 40
0
 40
1
 40
1
 40
1
 40
1
 10
79.322082
 20
20.082583
 30
0.0
 10
79.533009
 20
20.082583
 30
0.0
 10
79.749253
 20
20.093466
 30
0.0
 10
79.965901
 20
20.109041
 30
0.0
  0
LWPOLYLINE
  5
11e
100
AcDbEntity
  8
Layer_1
 62
7
100
AcDbPolyline
 90
2
 70
0
 10
32.373299
 20
46.399417
 30
0.0
 10
32.373299
 20
46.399417
 30
0.0
  0
SPLINE
  5
11f
100
AcDbEntity
  8
Layer_1
 62
7
100
AcDbSpline
 70
8
 71
3
 72
8
 73
4
 74
0
 40
0
 40
0
 40
0
 40
0
 40
1
 40
1
 40
1
 40
1
 10
79.965901
 20
25.533000
 30
0.0
 10
76.166211
 20
25.840058
 30
0.0
 10
73.271943
 20
29.062536
 30
0.0
 10
73.271943
 20
33.091264
 30
0.0
  0
SPLINE
  5
120
100
AcDbEntity
  8
Layer_1
 62
7
100
AcDbSpline
 70
8
 71
3
 72
8
 73
4
 74
0
 40
0
 40
0
 40
0
 40
0
 40
1
 40
1
 40
1
 40
1
 10
73.271943
 20
33.091264
 30
0.0
 10
73.271943
 20
37.356855
 30
0.0
 10
76.124546
 20
40.649291
 30
0.0
 10
79.965901
 20
40.958208
 30
0.0
  0
LWPOLYLINE
  5
121
100
AcDbEntity
  8
Layer_1
 62
7
100
AcDbPolyline
 90
2
 70
0
 10
79.965901
 20
20.109041
 30
0.0
 10
79.965901
 20
25.533000
 30
0.0
  0
SPLINE
  5
122
100
AcDbEntity
  8
Layer_1
 62
7
100
AcDbSpline
 70
8
 71
3
 72
8
 73
4
 74
0
 40
0
 40
0
 40
0
 40
0
 40
1
 40
1
 40
1
 40
1
 10
79.965901
 20
46.382166
 30
0.0
 10
79.867025
 20
46.385406
 30
0.0
 10
79.764479
 20
46.390986
 30
0.0
 10
79.666040
 20
46.390986
 30
0.0
  0
LWPOLYLINE
  5
123
100
AcDbEntity
  8
Layer_1
 62
7
100
AcDbPolyline
 90
2
 70
0
 10
79.965901
 20
40.958208
 30
0.0
 10
79.965901
 20
46.382166
 30
0.0
  0
LWPOLYLINE
  5
124
100
AcDbEntity
  8
Layer_1
 62
7
100
AcDbPolyline
 90
2
 70
0
 10
79.666040
 20
46.390986
 30
0.0
 10
79.666040
 20
46.390986
 30
0.0
  0
SPLINE
  5
125
100
AcDbEntity
  8
Layer_1
 62
7
100
AcDbSpline
 70
8
 71
3
 72
8
 73
4
 74
0
 40
0
 40
0
 40
0
 40
0
 40
1
 40
1
 40
1
 40
1
 10
82.673471
 20
40.667166
 30
0.0
 10
85.733344
 20
39.771582
 30
0.0
 10
87.797568
 20
36.942536
 30
0.0
 10
87.797568
 20
33.338208
 30
0.0
  0
SPLINE
  5
126
100
AcDbEntity
  8
Layer_1
 62
7
100
AcDbSpline
 70
8
 71
3
 72
8
 73
4
 74
0
 40
0
 40
0
 40
0
 40
0
 40
1
 40
1
 40
1
 40
1
 10
87.797568
 20
33.338208
 30
0.0
 10
87.797568
 20
29.612392
 30
0.0
 10
85.733344
 20
26.726625
 30
0.0
 10
82.673471
 20
25.815222
 30
0.0
  0
LWPOLYLINE
  5
127
100
AcDbEntity
  8
Layer_1
 62
7
100
AcDbPolyline
 90
2
 70
0
 10
82.673471
 20
45.923555
 30
0.0
 10
82.673471
 20
40.667166
 30
0.0
  0
SPLINE
  5
128
100
AcDbEntity
  8
Layer_1
 62
7
100
AcDbSpline
 70
8
 71
3
 72
8
 73
4
 74
0
 40
0
 40
0
 40
0
 40
0
 40
1
 40
1
 40
1
 40
1
 10
82.673471
 20
20.655847
 30
0.0
 10
84.763916
 20
21.323650
 30
0.0
 10
86.763170
 20
22.519459
 30
0.0
 10
87.947498
 20
23.927861
 30
0.0
  0
LWPOLYLINE
  5
129
100
AcDbEntity
  8
Layer_1
 62
7
100
AcDbPolyline
 90
2
 70
0
 10
82.673471
 20
25.815222
 30
0.0
 10
82.673471
 20
20.655847
 30
0.0
  0
SPLINE
  5
12a
100
AcDbEntity
  8
Layer_1
 62
7
100
AcDbSpline
 70
8
 71
3
 72
8
 73
4
 74
0
 40
0
 40
0
 40
0
 40
0
 40
1
 40
1
 40
1
 40
1
 10
87.947498
 20
42.457514
 30
0.0
 10
86.710070
 20
44.029390
 30
0.0
 10
84.763487
 20
45.280506
 30
0.0
 10
82.673471
 20
45.923555
 30
0.0
  0
LWPOLYLINE
  5
12b
100
AcDbEntity
  8
Layer_1
 62
7
100
AcDbPolyline
 90
6
 70
0
 10
87.947498
 20
23.927861
 30
0.0
 10
87.947498
 20
20.920430
 30
0.0
 10
93.371457
 20
20.920430
 30
0.0
 10
93.371457
 20
45.553139
 30
0.0
 10
87.947498
 20
45.553139
 30
0.0
 10
87.947498
 20
42.457514
 30
0.0
  0
SPLINE
  5
12c
100
AcDbEntity
  8
Layer_1
 62
7
100
AcDbSpline
 70
8
 71
3
 72
8
 73
4
 74
0
 40
0
 40
0
 40
0
 40
0
 40
1
 40
1
 40
1
 40
1
 10
108.783061
 20
46.399417
 30
0.0
 10
101.590296
 20
46.399417
 30
0.0
 10
95.726928
 20
40.536049
 30
0.0
 10
95.726928
 20
33.343323
 30
0.0
  0
SPLINE
  5
12d
100
AcDbEntity
  8
Layer_1
 62
7
100
AcDbSpline
 70
8
 71
3
 72
8
 73
4
 74
0
 40
0
 40
0
 40
0
 40
0
 40
1
 40
1
 40
1
 40
1
 10
95.726928
 20
33.343323
 30
0.0
 10
95.726928
 20
26.052019
 30
0.0
 10
101.639705
 20
20.089557
 30
0.0
 10
108.832470
 20
20.089557
 30
0.0
  0
SPLINE
  5
12e
100
AcDbEntity
  8
Layer_1
 62
7
100
AcDbSpline
 70
8
 71
3
 72
8
 73
4
 74
0
 40
0
 40
0
 40
0
 40
0
 40
1
 40
1
 40
1
 40
1
 10
108.832470
 20
20.089557
 30
0.0
 10
111.197225
 20
20.089557
 30
0.0
 10
113.853409
 20
20.883804
 30
0.0
 10
115.922545
 20
22.164701
 30
0.0
  0
SPLINE
  5
12f
100
AcDbEntity
  8
Layer_1
 62
7
100
AcDbSpline
 70
8
 71
3
 72
8
 73
4
 74
0
 40
0
 40
0
 40
0
 40
0
 40
1
 40
1
 40
1
 40
1
 10
115.922545
 20
22.164701
 30
0.0
 10
118.435089
 20
23.741217
 30
0.0
 10
119.965083
 20
25.706833
 30
0.0
 10
121.147441
 20
28.958327
 30
0.0
  0
LWPOLYLINE
  5
130
100
AcDbEntity
  8
Layer_1
 62
7
100
AcDbPolyline
 90
2
 70
0
 10
82.673471
 20
45.923555
 30
0.0
 10
82.673471
 20
45.923555
 30
0.0
  0
SPLINE
  5
131
100
AcDbEntity
  8
Layer_1
 62
7
100
AcDbSpline
 70
8
 71
3
 72
8
 73
4
 74
0
 40
0
 40
0
 40
0
 40
0
 40
1
 40
1
 40
1
 40
1
 10
114.502039
 20
28.958327
 30
0.0
 10
113.122642
 20
26.692112
 30
0.0
 10
111.247028
 20
25.512125
 30
0.0
 10
109.030102
 20
25.512125
 30
0.0
  0
SPLINE
  5
132
100
AcDbEntity
  8
Layer_1
 62
7
100
AcDbSpline
 70
8
 71
3
 72
8
 73
4
 74
0
 40
0
 40
0
 40
0
 40
0
 40
1
 40
1
 40
1
 40
1
 10
109.030102
 20
25.512125
 30
0.0
 10
104.744001
 20
25.512125
 30
0.0
 10
101.643578
 20
28.810616
 30
0.0
 10
101.643578
 20
33.244507
 30
0.0
  0
SPLINE
  5
133
100
AcDbEntity
  8
Layer_1
 62
7
100
AcDbSpline
 70
8
 71
3
 72
8
 73
4
 74
0
 40
0
 40
0
 40
0
 40
0
 40
1
 40
1
 40
1
 40
1
 10
101.643578
 20
33.244507
 30
0.0
 10
101.643578
 20
37.727648
 30
0.0
 10
104.644750
 20
40.976888
 30
0.0
 10
108.783061
 20
40.976888
 30
0.0
  0
SPLINE
  5
134
100
AcDbEntity
  8
Layer_1
 62
7
100
AcDbSpline
 70
8
 71
3
 72
8
 73
4
 74
0
 40
0
 40
0
 40
0
 40
0
 40
1
 40
1
 40
1
 40
1
 10
108.783061
 20
40.976888
 30
0.0
 10
111.394106
 20
40.976888
 30
0.0
 10
113.024102
 20
39.944218
 30
0.0
 10
114.502039
 20
37.382423
 30
0.0
  0
LWPOLYLINE
  5
135
100
AcDbEntity
  8
Layer_1
 62
7
100
AcDbPolyline
 90
2
 70
0
 10
121.147441
 20
28.958327
 30
0.0
 10
114.502039
 20
28.958327
 30
0.0
  0
SPLINE
  5
136
100
AcDbEntity
  8
Layer_1
 62
7
100
AcDbSpline
 70
8
 71
3
 72
8
 73
4
 74
0
 40
0
 40
0
 40
0
 40
0
 40
1
 40
1
 40
1
 40
1
 10
121.147441
 20
37.382423
 30
0.0
 10
120.457742
 20
39.550098
 30
0.0
 10
120.020144
 20
40.338416
 30
0.0
 10
118.887036
 20
41.668603
 30
0.0
  0
SPLINE
  5
137
100
AcDbEntity
  8
Layer_1
 62
7
100
AcDbSpline
 70
8
 71
3
 72
8
 73
4
 74
0
 40
0
 40
0
 40
0
 40
0
 40
1
 40
1
 40
1
 40
1
 10
118.887036
 20
41.668603
 30
0.0
 10
116.374491
 20
44.673767
 30
0.0
 10
112.675043
 20
46.399417
 30
0.0
 10
108.783061
 20
46.399417
 30
0.0
  0
LWPOLYLINE
  5
138
100
AcDbEntity
  8
Layer_1
 62
7
100
AcDbPolyline
 90
2
 70
0
 10
114.502039
 20
37.382423
 30
0.0
 10
121.147441
 20
37.382423
 30
0.0
  0
LWPOLYLINE
  5
139
100
AcDbEntity
  8
Layer_1
 62
7
100
AcDbPolyline
 90
2
 70
0
 10
108.783061
 20
46.399417
 30
0.0
 10
108.783061
 20
46.399417
 30
0.0
  0
SPLINE
  5
13a
100
AcDbEntity
  8
Layer_1
 62
7
100
AcDbSpline
 70
8
 71
3
 72
8
 73
4
 74
0
 40
0
 40
0
 40
0
 40
0
 40
1
 40
1
 40
1
 40
1
 10
22.900489
 20
39.904004
 30
0.0
 10
23.168546
 20
41.893012
 30
0.0
 10
24.123898
 20
43.673351
 30
0.0
 10
25.531475
 20
45.030104
 30
0.0
  0
LWPOLYLINE
  5
13b
100
AcDbEntity
  8
Layer_1
 62
7
100
AcDbPolyline
 90
3
 70
0
 10
19.602492
 20
45.832987
 30
0.0
 10
19.602492
 20
39.904004
 30
0.0
 10
22.900489
 20
39.904004
 30
0.0
  0
LWPOLYLINE
  5
13c
100
AcDbEntity
  8
Layer_1
 62
7
100
AcDbPolyline
 90
4
 70
0
 10
25.531475
 20
45.030104
 30
0.0
 10
25.531475
 20
45.832987
 30
0.0
 10
19.602492
 20
45.832987
 30
0.0
 10
19.602492
 20
45.832987
 30
0.0
  0
SPLINE
  5
13d
100
AcDbEntity
  8
Layer_1
 62
7
100
AcDbSpline
 70
8
 71
3
 72
8
 73
4
 74
0
 40
0
 40
0
 40
0
 40
0
 40
1
 40
1
 40
1
 40
1
 10
25.531475
 20
32.505128
 30
0.0
 10
25.517956
 20
32.516986
 30
0.0
 10
25.508035
 20
32.530148
 30
0.0
 10
25.494438
 20
32.542164
 30
0.0
  0
SPLINE
  5
13e
100
AcDbEntity
  8
Layer_1
 62
7
100
AcDbSpline
 70
8
 71
3
 72
8
 73
4
 74
0
 40
0
 40
0
 40
0
 40
0
 40
1
 40
1
 40
1
 40
1
 10
25.494438
 20
32.542164
 30
0.0
 10
25.490300
 20
32.546248
 30
0.0
 10
25.486190
 20
32.550359
 30
0.0
 10
25.482106
 20
32.554497
 30
0.0
  0
SPLINE
  5
13f
100
AcDbEntity
  8
Layer_1
 62
7
100
AcDbSpline
 70
8
 71
3
 72
8
 73
4
 74
0
 40
0
 40
0
 40
0
 40
0
 40
1
 40
1
 40
1
 40
1
 10
25.482106
 20
32.554497
 30
0.0
 10
23.933440
 20
33.948254
 30
0.0
 10
23.046717
 20
35.828580
 30
0.0
 10
22.863472
 20
37.927637
 30
0.0
  0
LWPOLYLINE
  5
140
100
AcDbEntity
  8
Layer_1
 62
7
100
AcDbPolyline
 90
4
 70
0
 10
19.602492
 20
37.927677
 30
0.0
 10
19.602492
 20
31.998694
 30
0.0
 10
25.531475
 20
31.998694
 30
0.0
 10
25.531475
 20
32.505128
 30
0.0
  0
LWPOLYLINE
  5
141
100
AcDbEntity
  8
Layer_1
 62
7
100
AcDbPolyline
 90
3
 70
0
 10
22.863472
 20
37.927637
 30
0.0
 10
19.602531
 20
37.927637
 30
0.0
 10
19.602492
 20
37.927677
 30
0.0
  0
SPLINE
  5
142
100
AcDbEntity
  8
Layer_1
 62
7
100
AcDbSpline
 70
8
 71
3
 72
8
 73
4
 74
0
 40
0
 40
0
 40
0
 40
0
 40
1
 40
1
 40
1
 40
1
 10
23.048713
 20
24.093384
 30
0.0
 10
22.414612
 20
25.368550
 30
0.0
 10
22.137966
 20
26.468360
 30
0.0
 10
21.937029
 20
28.527769
 30
0.0
  0
SPLINE
  5
143
100
AcDbEntity
  8
Layer_1
 62
7
100
AcDbSpline
 70
8
 71
3
 72
8
 73
4
 74
0
 40
0
 40
0
 40
0
 40
0
 40
1
 40
1
 40
1
 40
1
 10
21.937029
 20
28.527769
 30
0.0
 10
21.862628
 20
29.263275
 30
0.0
 10
22.519441
 20
29.987611
 30
0.0
 10
23.258698
 20
29.985310
 30
0.0
  0
LWPOLYLINE
  5
144
100
AcDbEntity
  8
Layer_1
 62
7
100
AcDbPolyline
 90
3
 70
0
 10
19.602492
 20
30.022366
 30
0.0
 10
19.602492
 20
24.093384
 30
0.0
 10
23.048713
 20
24.093384
 30
0.0
  0
LWPOLYLINE
  5
145
100
AcDbEntity
  8
Layer_1
 62
7
100
AcDbPolyline
 90
5
 70
0
 10
23.258698
 20
29.985310
 30
0.0
 10
23.268382
 20
29.985310
 30
0.0
 10
23.268382
 20
30.022347
 30
0.0
 10
19.602472
 20
30.022347
 30
0.0
 10
19.602492
 20
30.022366
 30
0.0
  0
LWPOLYLINE
  5
146
100
AcDbEntity
  8
Layer_1
 62
7
100
AcDbPolyline
 90
5
 70
0
 10
59.127679
 20
53.736751
 30
0.0
 10
65.056661
 20
53.736751
 30
0.0
 10
65.056661
 20
47.807769
 30
0.0
 10
59.127679
 20
47.807769
 30
0.0
 10
59.127679
 20
53.736751
 30
0.0
  0
LWPOLYLINE
  5
147
100
AcDbEntity
  8
Layer_1
 62
7
100
AcDbPolyline
 90
5
 70
0
 10
51.222369
 20
61.642061
 30
0.0
 10
57.151351
 20
61.642061
 30
0.0
 10
57.151351
 20
55.713079
 30
0.0
 10
51.222369
 20
55.713079
 30
0.0
 10
51.222369
 20
61.642061
 30
0.0
  0
LWPOLYLINE
  5
148
100
AcDbEntity
  8
Layer_1
 62
7
100
AcDbPolyline
 90
5
 70
0
 10
3.790508
 20
53.736751
 30
0.0
 10
9.719491
 20
53.736751
 30
0.0
 10
9.719491
 20
47.807769
 30
0.0
 10
3.790508
 20
47.807769
 30
0.0
 10
3.790508
 20
53.736751
 30
0.0
  0
LWPOLYLINE
  5
149
100
AcDbEntity
  8
Layer_1
 62
7
100
AcDbPolyline
 90
5
 70
0
 10
35.411748
 20
77.452681
 30
0.0
 10
41.340731
 20
77.452681
 30
0.0
 10
41.340731
 20
71.523699
 30
0.0
 10
35.411748
 20
71.523699
 30
0.0
 10
35.411748
 20
77.452681
 30
0.0
  0
LWPOLYLINE
  5
14a
100
AcDbEntity
  8
Layer_1
 62
7
100
AcDbPolyline
 90
5
 70
0
 10
43.317059
 20
69.547371
 30
0.0
 10
49.246041
 20
69.547371
 30
0.0
 10
49.246041
 20
63.618389
 30
0.0
 10
43.317059
 20
63.618389
 30
0.0
 10
43.317059
 20
69.547371
 30
0.0
  0
LWPOLYLINE
  5
14b
100
AcDbEntity
  8
Layer_1
 62
7
100
AcDbPolyline
 90
5
 70
0
 10
51.222369
 20
53.736751
 30
0.0
 10
57.151351
 20
53.736751
 30
0.0
 10
57.151351
 20
47.807769
 30
0.0
 10
51.222369
 20
47.807769
 30
0.0
 10
51.222369
 20
53.736751
 30
0.0
  0
LWPOLYLINE
  5
14c
100
AcDbEntity
  8
Layer_1
 62
7
100
AcDbPolyline
 90
5
 70
0
 10
43.317059
 20
61.642061
 30
0.0
 10
49.246041
 20
61.642061
 30
0.0
 10
49.246041
 20
55.713079
 30
0.0
 10
43.317059
 20
55.713079
 30
0.0
 10
43.317059
 20
61.642061
 30
0.0
  0
LWPOLYLINE
  5
14d
100
AcDbEntity
  8
Layer_1
 62
7
100
AcDbPolyline
 90
5
 70
0
 10
35.411748
 20
69.547371
 30
0.0
 10
41.340731
 20
69.547371
 30
0.0
 10
41.340731
 20
63.618389
 30
0.0
 10
35.411748
 20
63.618389
 30
0.0
 10
35.411748
 20
69.547371
 30
0.0
  0
LWPOLYLINE
  5
14e
100
AcDbEntity
  8
Layer_1
 62
7
100
AcDbPolyline
 90
5
 70
0
 10
27.506438
 20
77.452681
 30
0.0
 10
33.435421
 20
77.452681
 30
0.0
 10
33.435421
 20
71.523699
 30
0.0
 10
27.506438
 20
71.523699
 30
0.0
 10
27.506438
 20
77.452681
 30
0.0
  0
LWPOLYLINE
  5
14f
100
AcDbEntity
  8
Layer_1
 62
7
100
AcDbPolyline
 90
5
 70
0
 10
19.601128
 20
69.547371
 30
0.0
 10
25.530111
 20
69.547371
 30
0.0
 10
25.530111
 20
63.618389
 30
0.0
 10
19.601128
 20
63.618389
 30
0.0
 10
19.601128
 20
69.547371
 30
0.0
  0
LWPOLYLINE
  5
150
100
AcDbEntity
  8
Layer_1
 62
7
100
AcDbPolyline
 90
5
 70
0
 10
11.695818
 20
61.642061
 30
0.0
 10
17.624801
 20
61.642061
 30
0.0
 10
17.624801
 20
55.713079
 30
0.0
 10
11.695818
 20
55.713079
 30
0.0
 10
11.695818
 20
61.642061
 30
0.0
  0
LWPOLYLINE
  5
151
100
AcDbEntity
  8
Layer_1
 62
7
100
AcDbPolyline
 90
5
 70
0
 10
11.695818
 20
45.831441
 30
0.0
 10
17.624801
 20
45.831441
 30
0.0
 10
17.624801
 20
39.902459
 30
0.0
 10
11.695818
 20
39.902459
 30
0.0
 10
11.695818
 20
45.831441
 30
0.0
  0
LWPOLYLINE
  5
152
100
AcDbEntity
  8
Layer_1
 62
7
100
AcDbPolyline
 90
5
 70
0
 10
11.695818
 20
37.926131
 30
0.0
 10
17.624801
 20
37.926131
 30
0.0
 10
17.624801
 20
31.997148
 30
0.0
 10
11.695818
 20
31.997148
 30
0.0
 10
11.695818
 20
37.926131
 30
0.0
  0
LWPOLYLINE
  5
153
100
AcDbEntity
  8
Layer_1
 62
7
100
AcDbPolyline
 90
5
 70
0
 10
11.695818
 20
30.020821
 30
0.0
 10
17.624801
 20
30.020821
 30
0.0
 10
17.624801
 20
24.091838
 30
0.0
 10
11.695818
 20
24.091838
 30
0.0
 10
11.695818
 20
30.020821
 30
0.0
  0
LWPOLYLINE
  5
154
100
AcDbEntity
  8
Layer_1
 62
7
100
AcDbPolyline
 90
5
 70
0
 10
11.695818
 20
53.736751
 30
0.0
 10
17.624801
 20
53.736751
 30
0.0
 10
17.624801
 20
47.807769
 30
0.0
 10
11.695818
 20
47.807769
 30
0.0
 10
11.695818
 20
53.736751
 30
0.0
  0
LWPOLYLINE
  5
155
100
AcDbEntity
  8
Layer_1
 62
7
100
AcDbPolyline
 90
5
 70
0
 10
19.601128
 20
61.642061
 30
0.0
 10
25.530111
 20
61.642061
 30
0.0
 10
25.530111
 20
55.713079
 30
0.0
 10
19.601128
 20
55.713079
 30
0.0
 10
19.601128
 20
61.642061
 30
0.0
  0
LWPOLYLINE
  5
156
100
AcDbEntity
  8
Layer_1
 62
7
100
AcDbPolyline
 90
5
 70
0
 10
27.506438
 20
69.547371
 30
0.0
 10
33.435421
 20
69.547371
 30
0.0
 10
33.435421
 20
63.618389
 30
0.0
 10
27.506438
 20
63.618389
 30
0.0
 10
27.506438
 20
69.547371
 30
0.0
  0
LWPOLYLINE
  5
157
100
AcDbEntity
  8
Layer_1
 62
7
100
AcDbPolyline
 90
5
 70
0
 10
27.506438
 20
61.642061
 30
0.0
 10
33.435421
 20
61.642061
 30
0.0
 10
33.435421
 20
55.713079
 30
0.0
 10
27.506438
 20
55.713079
 30
0.0
 10
27.506438
 20
61.642061
 30
0.0
  0
LWPOLYLINE
  5
158
100
AcDbEntity
  8
Layer_1
 62
7
100
AcDbPolyline
 90
5
 70
0
 10
19.601128
 20
53.736751
 30
0.0
 10
25.530111
 20
53.736751
 30
0.0
 10
25.530111
 20
47.807769
 30
0.0
 10
19.601128
 20
47.807769
 30
0.0
 10
19.601128
 20
53.736751
 30
0.0
  0
LWPOLYLINE
  5
159
100
AcDbEntity
  8
Layer_1
 62
7
100
AcDbPolyline
 90
5
 70
0
 10
35.411748
 20
61.642061
 30
0.0
 10
41.340731
 20
61.642061
 30
0.0
 10
41.340731
 20
55.713079
 30
0.0
 10
35.411748
 20
55.713079
 30
0.0
 10
35.411748
 20
61.642061
 30
0.0
  0
LWPOLYLINE
  5
15a
100
AcDbEntity
  8
Layer_1
 62
7
100
AcDbPolyline
 90
5
 70
0
 10
27.506438
 20
53.736751
 30
0.0
 10
33.435421
 20
53.736751
 30
0.0
 10
33.435421
 20
47.807769
 30
0.0
 10
27.506438
 20
47.807769
 30
0.0
 10
27.506438
 20
53.736751
 30
0.0
  0
LWPOLYLINE
  5
15b
100
AcDbEntity
  8
Layer_1
 62
7
100
AcDbPolyline
 90
5
 70
0
 10
35.411748
 20
53.736751
 30
0.0
 10
41.340731
 20
53.736751
 30
0.0
 10
41.340731
 20
47.807769
 30
0.0
 10
35.411748
 20
47.807769
 30
0.0
 10
35.411748
 20
53.736751
 30
0.0
  0
LWPOLYLINE
  5
15c
100
AcDbEntity
  8
Layer_1
 62
7
100
AcDbPolyline
 90
5
 70
0
 10
51.222369
 20
37.926131
 30
0.0
 10
57.151351
 20
37.926131
 30
0.0
 10
57.151351
 20
31.997148
 30
0.0
 10
51.222369
 20
31.997148
 30
0.0
 10
51.222369
 20
37.926131
 30
0.0
  0
LWPOLYLINE
  5
15d
100
AcDbEntity
  8
Layer_1
 62
7
100
AcDbPolyline
 90
5
 70
0
 10
51.222369
 20
30.020821
 30
0.0
 10
57.151351
 20
30.020821
 30
0.0
 10
57.151351
 20
24.091838
 30
0.0
 10
51.222369
 20
24.091838
 30
0.0
 10
51.222369
 20
30.020821
 30
0.0
  0
ENDSEC
  0
SECTION
  2
OBJECTS
  0
DICTIONARY
  5
C
330
0
100
AcDbDictionary
  3
ACAD_GROUP
350
D
  3
ACAD_MLINESTYLE
350
17
  0
DICTIONARY
  5
D
330
C
100
AcDbDictionary
  0
DICTIONARY
  5
1A
330
C
100
AcDbDictionary
  0
DICTIONARY
  5
17
330
C
100
AcDbDictionary
  3
STANDARD
350
18
  0
DICTIONARY
  5
19
330
C
100
AcDbDictionary
  0
ENDSEC
  0
EOF
