  0
SECTION
  2
HEADER
  9
$ACADVER
  1
AC1014
  9
$HANDSEED
  5
FFFF
  9
$MEASUREMENT
 70
     1
  0
ENDSEC
  0
SECTION
  2
TABLES
  0
TABLE
  2
VPORT
  5
8
330
0
100
AcDbSymbolTable
 70
     4
  0
VPORT
  5
2E
330
8
100
AcDbSymbolTableRecord
100
AcDbViewportTableRecord
  2
*ACTIVE
 70
     0
 10
0.0
 20
0.0
 11
1.0
 21
1.0
 12
210.0
 22
148.5
 13
0.0
 23
0.0
 14
10.0
 24
10.0
 15
10.0
 25
10.0
 16
0.0
 26
0.0
 36
1.0
 17
0.0
 27
0.0
 37
0.0
 40
341.0
 41
1.24
 42
50.0
 43
0.0
 44
0.0
 50
0.0
 51
0.0
 71
     0
 72
   100
 73
     1
 74
     3
 75
     0
 76
     0
 77
     0
 78
     0
  0
ENDTAB
  0
TABLE
  2
LTYPE
  5
5
330
0
100
AcDbSymbolTable
 70
     1
  0
LTYPE
  5
14
330
5
100
AcDbSymbolTableRecord
100
AcDbLinetypeTableRecord
  2
BYBLOCK
 70
     0
  3

 72
    65
 73
     0
 40
0.0
  0
LTYPE
  5
15
330
5
100
AcDbSymbolTableRecord
100
AcDbLinetypeTableRecord
  2
BYLAYER
 70
     0
  3

 72
    65
 73
     0
 40
0.0
  0
LTYPE
  5
16
330
5
100
AcDbSymbolTableRecord
100
AcDbLinetypeTableRecord
  2
CONTINUOUS
 70
     0
  3
Solid line
 72
    65
 73
     0
 40
0.0
  0
ENDTAB
  0
TABLE
  2
LAYER
  5
2
100
AcDbSymbolTable
 70
2
  0
LAYER
  5
50
100
AcDbSymbolTableRecord
100
AcDbLayerTableRecord
  2
0
 70
0
  6
CONTINUOUS
  0
LAYER
  5
51
100
AcDbSymbolTableRecord
100
AcDbLayerTableRecord
  2
Layer_1
 70
0
  6
CONTINUOUS
  0
ENDTAB
  0
TABLE
  2
STYLE
  5
3
330
0
100
AcDbSymbolTable
 70
     1
  0
STYLE
  5
11
330
3
100
AcDbSymbolTableRecord
100
AcDbTextStyleTableRecord
  2
STANDARD
 70
     0
 40
0.0
 41
1.0
 50
0.0
 71
     0
 42
2.5
  3
txt
  4

  0
ENDTAB
  0
TABLE
  2
VIEW
  5
6
330
0
100
AcDbSymbolTable
 70
     0
  0
ENDTAB
  0
TABLE
  2
UCS
  5
7
330
0
100
AcDbSymbolTable
 70
     0
  0
ENDTAB
  0
TABLE
  2
APPID
  5
9
330
0
100
AcDbSymbolTable
 70
     2
  0
APPID
  5
12
330
9
100
AcDbSymbolTableRecord
100
AcDbRegAppTableRecord
  2
ACAD
 70
     0
  0
ENDTAB
  0
TABLE
  2
DIMSTYLE
  5
A
330
0
100
AcDbSymbolTable
 70
     1
  0
DIMSTYLE
105
27
330
A
100
AcDbSymbolTableRecord
100
AcDbDimStyleTableRecord
  2
ISO-25
 70
     0
  3

  4

  5

  6

  7

 40
1.0
 41
2.5
 42
0.625
 43
3.75
 44
1.25
 45
0.0
 46
0.0
 47
0.0
 48
0.0
140
2.5
141
2.5
142
0.0
143
0.03937007874016
144
1.0
145
0.0
146
1.0
147
0.625
 71
     0
 72
     0
 73
     0
 74
     0
 75
     0
 76
     0
 77
     1
 78
     8
170
     0
171
     3
172
     1
173
     0
174
     0
175
     0
176
     0
177
     0
178
     0
270
     2
271
     2
272
     2
273
     2
274
     3
340
11
275
     0
280
     0
281
     0
282
     0
283
     0
284
     8
285
     0
286
     0
287
     3
288
     0
  0
ENDTAB
  0
TABLE
  2
BLOCK_RECORD
  5
1
330
0
100
AcDbSymbolTable
 70
     1
  0
BLOCK_RECORD
  5
1F
330
1
100
AcDbSymbolTableRecord
100
AcDbBlockTableRecord
  2
*MODEL_SPACE
  0
BLOCK_RECORD
  5
1B
330
1
100
AcDbSymbolTableRecord
100
AcDbBlockTableRecord
  2
*PAPER_SPACE
  0
ENDTAB
  0
ENDSEC
  0
SECTION
  2
BLOCKS
  0
BLOCK
  5
20
330
1F
100
AcDbEntity
  8
0
100
AcDbBlockBegin
  2
*MODEL_SPACE
 70
     0
 10
0.0
 20
0.0
 30
0.0
  3
*MODEL_SPACE
  1

  0
ENDBLK
  5
21
330
1F
100
AcDbEntity
  8
0
100
AcDbBlockEnd
  0
BLOCK
  5
1C
330
1B
100
AcDbEntity
 67
     1
  8
0
100
AcDbBlockBegin
  2
*PAPER_SPACE
  1

  0
ENDBLK
  5
1D
330
1B
100
AcDbEntity
 67
     1
  8
0
100
AcDbBlockEnd
  0
ENDSEC
  0
SECTION
  2
ENTITIES
  0
SPLINE
  5
100
100
AcDbEntity
  8
Layer_1
 62
1
100
AcDbSpline
 70
8
 71
3
 72
8
 73
4
 74
0
 40
0
 40
0
 40
0
 40
0
 40
1
 40
1
 40
1
 40
1
 10
72.440391
 20
140.849617
 30
0.0
 10
71.276224
 20
140.969499
 30
0.0
 10
68.355224
 20
141.086740
 30
0.0
 10
65.949280
 20
141.110147
 30
0.0
  0
SPLINE
  5
101
100
AcDbEntity
  8
Layer_1
 62
1
100
AcDbSpline
 70
8
 71
3
 72
8
 73
4
 74
0
 40
0
 40
0
 40
0
 40
0
 40
1
 40
1
 40
1
 40
1
 10
65.949280
 20
141.110147
 30
0.0
 10
63.543335
 20
141.133572
 30
0.0
 10
60.749335
 20
141.294317
 30
0.0
 10
59.740391
 20
141.467393
 30
0.0
  0
SPLINE
  5
102
100
AcDbEntity
  8
Layer_1
 62
1
100
AcDbSpline
 70
8
 71
3
 72
8
 73
4
 74
0
 40
0
 40
0
 40
0
 40
0
 40
1
 40
1
 40
1
 40
1
 10
59.740391
 20
141.467393
 30
0.0
 10
58.731446
 20
141.640468
 30
0.0
 10
54.413446
 20
141.803516
 30
0.0
 10
50.144835
 20
141.829721
 30
0.0
  0
SPLINE
  5
103
100
AcDbEntity
  8
Layer_1
 62
1
100
AcDbSpline
 70
8
 71
3
 72
8
 73
4
 74
0
 40
0
 40
0
 40
0
 40
0
 40
1
 40
1
 40
1
 40
1
 10
50.144835
 20
141.829721
 30
0.0
 10
43.645421
 20
141.869624
 30
0.0
 10
42.144566
 20
141.956453
 30
0.0
 10
40.912593
 20
142.363835
 30
0.0
  0
SPLINE
  5
104
100
AcDbEntity
  8
Layer_1
 62
1
100
AcDbSpline
 70
8
 71
3
 72
8
 73
4
 74
0
 40
0
 40
0
 40
0
 40
0
 40
1
 40
1
 40
1
 40
1
 10
40.912593
 20
142.363835
 30
0.0
 10
39.213209
 20
142.925782
 30
0.0
 10
38.573724
 20
143.674712
 30
0.0
 10
38.573724
 20
145.102996
 30
0.0
  0
SPLINE
  5
105
100
AcDbEntity
  8
Layer_1
 62
1
100
AcDbSpline
 70
8
 71
3
 72
8
 73
4
 74
0
 40
0
 40
0
 40
0
 40
0
 40
1
 40
1
 40
1
 40
1
 10
38.573724
 20
145.102996
 30
0.0
 10
38.573724
 20
145.993695
 30
0.0
 10
38.702254
 20
146.180134
 30
0.0
 10
39.632057
 20
146.638158
 30
0.0
  0
SPLINE
  5
106
100
AcDbEntity
  8
Layer_1
 62
1
100
AcDbSpline
 70
8
 71
3
 72
8
 73
4
 74
0
 40
0
 40
0
 40
0
 40
0
 40
1
 40
1
 40
1
 40
1
 10
39.231214
 20
147.614111
 30
0.0
 10
37.415871
 20
148.179693
 30
0.0
 10
36.598169
 20
148.895623
 30
0.0
 10
36.598169
 20
149.919451
 30
0.0
  0
SPLINE
  5
107
100
AcDbEntity
  8
Layer_1
 62
1
100
AcDbSpline
 70
8
 71
3
 72
8
 73
4
 74
0
 40
0
 40
0
 40
0
 40
0
 40
1
 40
1
 40
1
 40
1
 10
36.598169
 20
149.919451
 30
0.0
 10
36.598169
 20
151.200673
 30
0.0
 10
37.672323
 20
152.077605
 30
0.0
 10
39.870425
 20
152.590902
 30
0.0
  0
SPLINE
  5
108
100
AcDbEntity
  8
Layer_1
 62
1
100
AcDbSpline
 70
8
 71
3
 72
8
 73
4
 74
0
 40
0
 40
0
 40
0
 40
0
 40
1
 40
1
 40
1
 40
1
 10
39.870425
 20
152.590902
 30
0.0
 10
41.359472
 20
152.938622
 30
0.0
 10
43.654269
 20
153.064050
 30
0.0
 10
49.596751
 20
153.122521
 30
0.0
  0
SPLINE
  5
109
100
AcDbEntity
  8
Layer_1
 62
1
100
AcDbSpline
 70
8
 71
3
 72
8
 73
4
 74
0
 40
0
 40
0
 40
0
 40
0
 40
1
 40
1
 40
1
 40
1
 10
49.596751
 20
153.122521
 30
0.0
 10
57.779135
 20
153.203031
 30
0.0
 10
57.977301
 20
153.232817
 30
0.0
 10
59.329961
 20
154.585477
 30
0.0
  0
SPLINE
  5
10a
100
AcDbEntity
  8
Layer_1
 62
1
100
AcDbSpline
 70
8
 71
3
 72
8
 73
4
 74
0
 40
0
 40
0
 40
0
 40
0
 40
1
 40
1
 40
1
 40
1
 10
59.329961
 20
154.585477
 30
0.0
 10
60.423786
 20
155.679302
 30
0.0
 10
60.603754
 20
156.406623
 30
0.0
 10
60.178998
 20
158.016794
 30
0.0
  0
SPLINE
  5
10b
100
AcDbEntity
  8
Layer_1
 62
1
100
AcDbSpline
 70
8
 71
3
 72
8
 73
4
 74
0
 40
0
 40
0
 40
0
 40
0
 40
1
 40
1
 40
1
 40
1
 10
60.178998
 20
158.016794
 30
0.0
 10
59.581121
 20
160.283230
 30
0.0
 10
58.166982
 20
162.308126
 30
0.0
 10
54.912099
 20
165.558415
 30
0.0
  0
SPLINE
  5
10c
100
AcDbEntity
  8
Layer_1
 62
1
100
AcDbSpline
 70
8
 71
3
 72
8
 73
4
 74
0
 40
0
 40
0
 40
0
 40
0
 40
1
 40
1
 40
1
 40
1
 10
54.912099
 20
165.558415
 30
0.0
 10
52.265676
 20
168.201104
 30
0.0
 10
51.697958
 20
168.941537
 30
0.0
 10
50.609187
 20
171.170398
 30
0.0
  0
SPLINE
  5
10d
100
AcDbEntity
  8
Layer_1
 62
1
100
AcDbSpline
 70
8
 71
3
 72
8
 73
4
 74
0
 40
0
 40
0
 40
0
 40
0
 40
1
 40
1
 40
1
 40
1
 10
50.609187
 20
171.170398
 30
0.0
 10
48.169457
 20
176.164857
 30
0.0
 10
47.140746
 20
180.759810
 30
0.0
 10
47.427707
 20
185.381128
 30
0.0
  0
SPLINE
  5
10e
100
AcDbEntity
  8
Layer_1
 62
1
100
AcDbSpline
 70
8
 71
3
 72
8
 73
4
 74
0
 40
0
 40
0
 40
0
 40
0
 40
1
 40
1
 40
1
 40
1
 10
47.427707
 20
185.381128
 30
0.0
 10
47.834796
 20
191.936944
 30
0.0
 10
50.736350
 20
197.349955
 30
0.0
 10
56.125578
 20
201.607472
 30
0.0
  0
SPLINE
  5
10f
100
AcDbEntity
  8
Layer_1
 62
1
100
AcDbSpline
 70
8
 71
3
 72
8
 73
4
 74
0
 40
0
 40
0
 40
0
 40
0
 40
1
 40
1
 40
1
 40
1
 10
56.125578
 20
201.607472
 30
0.0
 10
56.469421
 20
201.879111
 30
0.0
 10
56.873668
 20
202.101361
 30
0.0
 10
57.023903
 20
202.101361
 30
0.0
  0
SPLINE
  5
110
100
AcDbEntity
  8
Layer_1
 62
1
100
AcDbSpline
 70
8
 71
3
 72
8
 73
4
 74
0
 40
0
 40
0
 40
0
 40
0
 40
1
 40
1
 40
1
 40
1
 10
57.023903
 20
202.101361
 30
0.0
 10
57.174138
 20
202.101361
 30
0.0
 10
57.497557
 20
202.278735
 30
0.0
 10
57.742613
 20
202.495524
 30
0.0
  0
SPLINE
  5
111
100
AcDbEntity
  8
Layer_1
 62
1
100
AcDbSpline
 70
8
 71
3
 72
8
 73
4
 74
0
 40
0
 40
0
 40
0
 40
0
 40
1
 40
1
 40
1
 40
1
 10
57.742613
 20
202.495524
 30
0.0
 10
58.505640
 20
203.170537
 30
0.0
 10
62.336420
 20
204.076917
 30
0.0
 10
64.426321
 20
204.076917
 30
0.0
  0
SPLINE
  5
112
100
AcDbEntity
  8
Layer_1
 62
1
100
AcDbSpline
 70
8
 71
3
 72
8
 73
4
 74
0
 40
0
 40
0
 40
0
 40
0
 40
1
 40
1
 40
1
 40
1
 10
64.426321
 20
204.076917
 30
0.0
 10
68.056241
 20
204.076917
 30
0.0
 10
70.744475
 20
203.053796
 30
0.0
 10
73.145946
 20
200.758294
 30
0.0
  0
SPLINE
  5
113
100
AcDbEntity
  8
Layer_1
 62
1
100
AcDbSpline
 70
8
 71
3
 72
8
 73
4
 74
0
 40
0
 40
0
 40
0
 40
0
 40
1
 40
1
 40
1
 40
1
 10
73.145946
 20
200.758294
 30
0.0
 10
75.337983
 20
198.662988
 30
0.0
 10
75.890588
 20
197.801059
 30
0.0
 10
76.989336
 20
194.763583
 30
0.0
  0
SPLINE
  5
114
100
AcDbEntity
  8
Layer_1
 62
1
100
AcDbSpline
 70
8
 71
3
 72
8
 73
4
 74
0
 40
0
 40
0
 40
0
 40
0
 40
1
 40
1
 40
1
 40
1
 10
76.989336
 20
194.763583
 30
0.0
 10
78.360781
 20
190.972238
 30
0.0
 10
77.595284
 20
182.628028
 30
0.0
 10
75.876023
 20
182.628028
 30
0.0
  0
SPLINE
  5
115
100
AcDbEntity
  8
Layer_1
 62
1
100
AcDbSpline
 70
8
 71
3
 72
8
 73
4
 74
0
 40
0
 40
0
 40
0
 40
0
 40
1
 40
1
 40
1
 40
1
 10
75.876023
 20
182.628028
 30
0.0
 10
75.725559
 20
182.628028
 30
0.0
 10
75.049736
 20
182.312057
 30
0.0
 10
74.374197
 20
181.925870
 30
0.0
  0
SPLINE
  5
116
100
AcDbEntity
  8
Layer_1
 62
1
100
AcDbSpline
 70
8
 71
3
 72
8
 73
4
 74
0
 40
0
 40
0
 40
0
 40
0
 40
1
 40
1
 40
1
 40
1
 10
74.374197
 20
181.925870
 30
0.0
 10
73.698659
 20
181.539686
 30
0.0
 10
72.816379
 20
181.222186
 30
0.0
 10
72.413577
 20
181.220315
 30
0.0
  0
SPLINE
  5
117
100
AcDbEntity
  8
Layer_1
 62
1
100
AcDbSpline
 70
8
 71
3
 72
8
 73
4
 74
0
 40
0
 40
0
 40
0
 40
0
 40
1
 40
1
 40
1
 40
1
 10
72.413577
 20
181.220315
 30
0.0
 10
71.367975
 20
181.215460
 30
0.0
 10
70.747057
 20
180.393418
 30
0.0
 10
70.747057
 20
179.013977
 30
0.0
  0
SPLINE
  5
118
100
AcDbEntity
  8
Layer_1
 62
1
100
AcDbSpline
 70
8
 71
3
 72
8
 73
4
 74
0
 40
0
 40
0
 40
0
 40
0
 40
1
 40
1
 40
1
 40
1
 10
70.747057
 20
179.013977
 30
0.0
 10
70.747057
 20
178.109955
 30
0.0
 10
70.602402
 20
177.749537
 30
0.0
 10
70.112057
 20
177.431837
 30
0.0
  0
SPLINE
  5
119
100
AcDbEntity
  8
Layer_1
 62
1
100
AcDbSpline
 70
8
 71
3
 72
8
 73
4
 74
0
 40
0
 40
0
 40
0
 40
0
 40
1
 40
1
 40
1
 40
1
 10
70.112057
 20
177.431837
 30
0.0
 10
68.878233
 20
176.632425
 30
0.0
 10
67.142552
 20
176.738747
 30
0.0
 10
66.131601
 20
177.675663
 30
0.0
  0
SPLINE
  5
11a
100
AcDbEntity
  8
Layer_1
 62
1
100
AcDbSpline
 70
8
 71
3
 72
8
 73
4
 74
0
 40
0
 40
0
 40
0
 40
0
 40
1
 40
1
 40
1
 40
1
 10
66.131601
 20
177.675663
 30
0.0
 10
65.498444
 20
178.262453
 30
0.0
 10
65.384835
 20
178.603920
 30
0.0
 10
65.384835
 20
179.920162
 30
0.0
  0
SPLINE
  5
11b
100
AcDbEntity
  8
Layer_1
 62
1
100
AcDbSpline
 70
8
 71
3
 72
8
 73
4
 74
0
 40
0
 40
0
 40
0
 40
0
 40
1
 40
1
 40
1
 40
1
 10
65.384835
 20
179.920162
 30
0.0
 10
65.384835
 20
181.700169
 30
0.0
 10
65.804392
 20
182.826230
 30
0.0
 10
66.556554
 20
183.064956
 30
0.0
  0
SPLINE
  5
11c
100
AcDbEntity
  8
Layer_1
 62
1
100
AcDbSpline
 70
8
 71
3
 72
8
 73
4
 74
0
 40
0
 40
0
 40
0
 40
0
 40
1
 40
1
 40
1
 40
1
 10
66.556554
 20
183.064956
 30
0.0
 10
66.843442
 20
183.156009
 30
0.0
 10
67.078169
 20
183.328952
 30
0.0
 10
67.078169
 20
183.449272
 30
0.0
  0
SPLINE
  5
11d
100
AcDbEntity
  8
Layer_1
 62
1
100
AcDbSpline
 70
8
 71
3
 72
8
 73
4
 74
0
 40
0
 40
0
 40
0
 40
0
 40
1
 40
1
 40
1
 40
1
 10
67.078169
 20
183.449272
 30
0.0
 10
67.078169
 20
183.569589
 30
0.0
 10
67.499651
 20
183.895016
 30
0.0
 10
68.014796
 20
184.172441
 30
0.0
  0
SPLINE
  5
11e
100
AcDbEntity
  8
Layer_1
 62
1
100
AcDbSpline
 70
8
 71
3
 72
8
 73
4
 74
0
 40
0
 40
0
 40
0
 40
0
 40
1
 40
1
 40
1
 40
1
 10
68.014796
 20
184.172441
 30
0.0
 10
68.529942
 20
184.449865
 30
0.0
 10
69.069692
 20
184.896688
 30
0.0
 10
69.214241
 20
185.165380
 30
0.0
  0
SPLINE
  5
11f
100
AcDbEntity
  8
Layer_1
 62
1
100
AcDbSpline
 70
8
 71
3
 72
8
 73
4
 74
0
 40
0
 40
0
 40
0
 40
0
 40
1
 40
1
 40
1
 40
1
 10
69.214241
 20
185.165380
 30
0.0
 10
69.358789
 20
185.434073
 30
0.0
 10
69.849280
 20
186.211338
 30
0.0
 10
70.304217
 20
186.892637
 30
0.0
  0
SPLINE
  5
120
100
AcDbEntity
  8
Layer_1
 62
1
100
AcDbSpline
 70
8
 71
3
 72
8
 73
4
 74
0
 40
0
 40
0
 40
0
 40
0
 40
1
 40
1
 40
1
 40
1
 10
70.304217
 20
186.892637
 30
0.0
 10
71.153119
 20
188.163921
 30
0.0
 10
71.561094
 20
190.344045
 30
0.0
 10
71.211067
 20
191.738655
 30
0.0
  0
SPLINE
  5
121
100
AcDbEntity
  8
Layer_1
 62
1
100
AcDbSpline
 70
8
 71
3
 72
8
 73
4
 74
0
 40
0
 40
0
 40
0
 40
0
 40
1
 40
1
 40
1
 40
1
 10
71.211067
 20
191.738655
 30
0.0
 10
70.811184
 20
193.331918
 30
0.0
 10
68.497823
 20
194.726499
 30
0.0
 10
66.937057
 20
194.315186
 30
0.0
  0
SPLINE
  5
122
100
AcDbEntity
  8
Layer_1
 62
1
100
AcDbSpline
 70
8
 71
3
 72
8
 73
4
 74
0
 40
0
 40
0
 40
0
 40
0
 40
1
 40
1
 40
1
 40
1
 10
66.937057
 20
194.315186
 30
0.0
 10
65.856479
 20
194.030418
 30
0.0
 10
64.111928
 20
193.215925
 30
0.0
 10
63.673965
 20
192.791716
 30
0.0
  0
SPLINE
  5
123
100
AcDbEntity
  8
Layer_1
 62
1
100
AcDbSpline
 70
8
 71
3
 72
8
 73
4
 74
0
 40
0
 40
0
 40
0
 40
0
 40
1
 40
1
 40
1
 40
1
 10
63.673965
 20
192.791716
 30
0.0
 10
62.496336
 20
191.651073
 30
0.0
 10
61.217440
 20
189.697090
 30
0.0
 10
60.900810
 20
188.554694
 30
0.0
  0
SPLINE
  5
124
100
AcDbEntity
  8
Layer_1
 62
1
100
AcDbSpline
 70
8
 71
3
 72
8
 73
4
 74
0
 40
0
 40
0
 40
0
 40
0
 40
1
 40
1
 40
1
 40
1
 10
60.900810
 20
188.554694
 30
0.0
 10
60.707211
 20
187.856194
 30
0.0
 10
60.430416
 20
186.894677
 30
0.0
 10
60.285712
 20
186.417990
 30
0.0
  0
SPLINE
  5
125
100
AcDbEntity
  8
Layer_1
 62
1
100
AcDbSpline
 70
8
 71
3
 72
8
 73
4
 74
0
 40
0
 40
0
 40
0
 40
0
 40
1
 40
1
 40
1
 40
1
 10
60.285712
 20
186.417990
 30
0.0
 10
58.967093
 20
178.472317
 30
0.0
 10
64.523171
 20
173.953296
 30
0.0
 10
67.967047
 20
170.600676
 30
0.0
  0
SPLINE
  5
126
100
AcDbEntity
  8
Layer_1
 62
1
100
AcDbSpline
 70
8
 71
3
 72
8
 73
4
 74
0
 40
0
 40
0
 40
0
 40
0
 40
1
 40
1
 40
1
 40
1
 10
67.967047
 20
170.600676
 30
0.0
 10
71.604767
 20
167.064821
 30
0.0
 10
72.477009
 20
165.830195
 30
0.0
 10
73.777148
 20
162.376695
 30
0.0
  0
SPLINE
  5
127
100
AcDbEntity
  8
Layer_1
 62
1
100
AcDbSpline
 70
8
 71
3
 72
8
 73
4
 74
0
 40
0
 40
0
 40
0
 40
0
 40
1
 40
1
 40
1
 40
1
 10
73.777148
 20
162.376695
 30
0.0
 10
74.382252
 20
160.769378
 30
0.0
 10
74.504556
 20
159.925271
 30
0.0
 10
74.564020
 20
156.945805
 30
0.0
  0
LWPOLYLINE
  5
128
100
AcDbEntity
  8
Layer_1
 62
1
100
AcDbPolyline
 90
3
 70
0
 10
39.632057
 20
146.638158
 30
0.0
 10
40.690391
 20
147.159496
 30
0.0
 10
39.231214
 20
147.614111
 30
0.0
  0
SPLINE
  5
129
100
AcDbEntity
  8
Layer_1
 62
1
100
AcDbSpline
 70
8
 71
3
 72
8
 73
4
 74
0
 40
0
 40
0
 40
0
 40
0
 40
1
 40
1
 40
1
 40
1
 10
75.865744
 20
153.227279
 30
0.0
 10
77.777650
 20
152.931098
 30
0.0
 10
81.587560
 20
152.963794
 30
0.0
 10
83.720195
 20
153.294682
 30
0.0
  0
SPLINE
  5
12a
100
AcDbEntity
  8
Layer_1
 62
1
100
AcDbSpline
 70
8
 71
3
 72
8
 73
4
 74
0
 40
0
 40
0
 40
0
 40
0
 40
1
 40
1
 40
1
 40
1
 10
83.720195
 20
153.294682
 30
0.0
 10
86.061841
 20
153.658004
 30
0.0
 10
87.459157
 20
153.353419
 30
0.0
 10
88.753944
 20
152.197431
 30
0.0
  0
SPLINE
  5
12b
100
AcDbEntity
  8
Layer_1
 62
1
100
AcDbSpline
 70
8
 71
3
 72
8
 73
4
 74
0
 40
0
 40
0
 40
0
 40
0
 40
1
 40
1
 40
1
 40
1
 10
88.753944
 20
152.197431
 30
0.0
 10
89.976836
 20
151.105634
 30
0.0
 10
90.016528
 20
149.549119
 30
0.0
 10
88.854661
 20
148.247748
 30
0.0
  0
SPLINE
  5
12c
100
AcDbEntity
  8
Layer_1
 62
1
100
AcDbSpline
 70
8
 71
3
 72
8
 73
4
 74
0
 40
0
 40
0
 40
0
 40
0
 40
1
 40
1
 40
1
 40
1
 10
88.854661
 20
148.247748
 30
0.0
 10
88.164803
 20
147.475054
 30
0.0
 10
87.860652
 20
147.348480
 30
0.0
 10
86.667439
 20
147.337522
 30
0.0
  0
SPLINE
  5
12d
100
AcDbEntity
  8
Layer_1
 62
1
100
AcDbSpline
 70
8
 71
3
 72
8
 73
4
 74
0
 40
0
 40
0
 40
0
 40
0
 40
1
 40
1
 40
1
 40
1
 10
86.667439
 20
147.337522
 30
0.0
 10
85.905173
 20
147.330523
 30
0.0
 10
84.920593
 20
147.170584
 30
0.0
 10
84.479480
 20
146.982108
 30
0.0
  0
LWPOLYLINE
  5
12e
100
AcDbEntity
  8
Layer_1
 62
1
100
AcDbPolyline
 90
3
 70
0
 10
74.564020
 20
156.945805
 30
0.0
 10
74.634431
 20
153.418028
 30
0.0
 10
75.865744
 20
153.227279
 30
0.0
  0
SPLINE
  5
12f
100
AcDbEntity
  8
Layer_1
 62
1
100
AcDbSpline
 70
8
 71
3
 72
8
 73
4
 74
0
 40
0
 40
0
 40
0
 40
0
 40
1
 40
1
 40
1
 40
1
 10
84.545526
 20
145.654283
 30
0.0
 10
86.132918
 20
143.852805
 30
0.0
 10
85.506616
 20
142.742681
 30
0.0
 10
82.189983
 20
141.479062
 30
0.0
  0
SPLINE
  5
130
100
AcDbEntity
  8
Layer_1
 62
1
100
AcDbSpline
 70
8
 71
3
 72
8
 73
4
 74
0
 40
0
 40
0
 40
0
 40
0
 40
1
 40
1
 40
1
 40
1
 10
82.189983
 20
141.479062
 30
0.0
 10
80.254771
 20
140.741760
 30
0.0
 10
76.095456
 20
140.473228
 30
0.0
 10
72.440394
 20
140.849617
 30
0.0
  0
LWPOLYLINE
  5
131
100
AcDbEntity
  8
Layer_1
 62
1
100
AcDbPolyline
 90
3
 70
0
 10
84.479480
 20
146.982108
 30
0.0
 10
83.677455
 20
146.639425
 30
0.0
 10
84.545526
 20
145.654283
 30
0.0
  0
SPLINE
  5
132
100
AcDbEntity
  8
Layer_1
 62
7
100
AcDbSpline
 70
8
 71
3
 72
8
 73
4
 74
0
 40
0
 40
0
 40
0
 40
0
 40
1
 40
1
 40
1
 40
1
 10
72.440391
 20
140.849617
 30
0.0
 10
71.276224
 20
140.969499
 30
0.0
 10
68.355224
 20
141.086740
 30
0.0
 10
65.949280
 20
141.110147
 30
0.0
  0
SPLINE
  5
133
100
AcDbEntity
  8
Layer_1
 62
7
100
AcDbSpline
 70
8
 71
3
 72
8
 73
4
 74
0
 40
0
 40
0
 40
0
 40
0
 40
1
 40
1
 40
1
 40
1
 10
65.949280
 20
141.110147
 30
0.0
 10
63.543335
 20
141.133572
 30
0.0
 10
60.749335
 20
141.294317
 30
0.0
 10
59.740391
 20
141.467393
 30
0.0
  0
SPLINE
  5
134
100
AcDbEntity
  8
Layer_1
 62
7
100
AcDbSpline
 70
8
 71
3
 72
8
 73
4
 74
0
 40
0
 40
0
 40
0
 40
0
 40
1
 40
1
 40
1
 40
1
 10
59.740391
 20
141.467393
 30
0.0
 10
58.731446
 20
141.640468
 30
0.0
 10
54.413446
 20
141.803516
 30
0.0
 10
50.144835
 20
141.829721
 30
0.0
  0
SPLINE
  5
135
100
AcDbEntity
  8
Layer_1
 62
7
100
AcDbSpline
 70
8
 71
3
 72
8
 73
4
 74
0
 40
0
 40
0
 40
0
 40
0
 40
1
 40
1
 40
1
 40
1
 10
50.144835
 20
141.829721
 30
0.0
 10
43.645421
 20
141.869624
 30
0.0
 10
42.144566
 20
141.956453
 30
0.0
 10
40.912593
 20
142.363835
 30
0.0
  0
SPLINE
  5
136
100
AcDbEntity
  8
Layer_1
 62
7
100
AcDbSpline
 70
8
 71
3
 72
8
 73
4
 74
0
 40
0
 40
0
 40
0
 40
0
 40
1
 40
1
 40
1
 40
1
 10
40.912593
 20
142.363835
 30
0.0
 10
39.213209
 20
142.925782
 30
0.0
 10
38.573724
 20
143.674712
 30
0.0
 10
38.573724
 20
145.102996
 30
0.0
  0
SPLINE
  5
137
100
AcDbEntity
  8
Layer_1
 62
7
100
AcDbSpline
 70
8
 71
3
 72
8
 73
4
 74
0
 40
0
 40
0
 40
0
 40
0
 40
1
 40
1
 40
1
 40
1
 10
38.573724
 20
145.102996
 30
0.0
 10
38.573724
 20
145.993695
 30
0.0
 10
38.702254
 20
146.180134
 30
0.0
 10
39.632057
 20
146.638158
 30
0.0
  0
LWPOLYLINE
  5
138
100
AcDbEntity
  8
Layer_1
 62
1
100
AcDbPolyline
 90
2
 70
0
 10
72.440394
 20
140.849617
 30
0.0
 10
72.440391
 20
140.849617
 30
0.0
  0
SPLINE
  5
139
100
AcDbEntity
  8
Layer_1
 62
7
100
AcDbSpline
 70
8
 71
3
 72
8
 73
4
 74
0
 40
0
 40
0
 40
0
 40
0
 40
1
 40
1
 40
1
 40
1
 10
39.231214
 20
147.614111
 30
0.0
 10
37.415871
 20
148.179693
 30
0.0
 10
36.598169
 20
148.895623
 30
0.0
 10
36.598169
 20
149.919451
 30
0.0
  0
SPLINE
  5
13a
100
AcDbEntity
  8
Layer_1
 62
7
100
AcDbSpline
 70
8
 71
3
 72
8
 73
4
 74
0
 40
0
 40
0
 40
0
 40
0
 40
1
 40
1
 40
1
 40
1
 10
36.598169
 20
149.919451
 30
0.0
 10
36.598169
 20
151.200673
 30
0.0
 10
37.672323
 20
152.077605
 30
0.0
 10
39.870425
 20
152.590902
 30
0.0
  0
SPLINE
  5
13b
100
AcDbEntity
  8
Layer_1
 62
7
100
AcDbSpline
 70
8
 71
3
 72
8
 73
4
 74
0
 40
0
 40
0
 40
0
 40
0
 40
1
 40
1
 40
1
 40
1
 10
39.870425
 20
152.590902
 30
0.0
 10
41.359472
 20
152.938622
 30
0.0
 10
43.654269
 20
153.064050
 30
0.0
 10
49.596751
 20
153.122521
 30
0.0
  0
SPLINE
  5
13c
100
AcDbEntity
  8
Layer_1
 62
7
100
AcDbSpline
 70
8
 71
3
 72
8
 73
4
 74
0
 40
0
 40
0
 40
0
 40
0
 40
1
 40
1
 40
1
 40
1
 10
49.596751
 20
153.122521
 30
0.0
 10
57.779135
 20
153.203031
 30
0.0
 10
57.977301
 20
153.232817
 30
0.0
 10
59.329961
 20
154.585477
 30
0.0
  0
SPLINE
  5
13d
100
AcDbEntity
  8
Layer_1
 62
7
100
AcDbSpline
 70
8
 71
3
 72
8
 73
4
 74
0
 40
0
 40
0
 40
0
 40
0
 40
1
 40
1
 40
1
 40
1
 10
59.329961
 20
154.585477
 30
0.0
 10
60.423786
 20
155.679302
 30
0.0
 10
60.603754
 20
156.406623
 30
0.0
 10
60.178998
 20
158.016794
 30
0.0
  0
SPLINE
  5
13e
100
AcDbEntity
  8
Layer_1
 62
7
100
AcDbSpline
 70
8
 71
3
 72
8
 73
4
 74
0
 40
0
 40
0
 40
0
 40
0
 40
1
 40
1
 40
1
 40
1
 10
60.178998
 20
158.016794
 30
0.0
 10
59.581121
 20
160.283230
 30
0.0
 10
58.166982
 20
162.308126
 30
0.0
 10
54.912099
 20
165.558415
 30
0.0
  0
SPLINE
  5
13f
100
AcDbEntity
  8
Layer_1
 62
7
100
AcDbSpline
 70
8
 71
3
 72
8
 73
4
 74
0
 40
0
 40
0
 40
0
 40
0
 40
1
 40
1
 40
1
 40
1
 10
54.912099
 20
165.558415
 30
0.0
 10
52.265676
 20
168.201104
 30
0.0
 10
51.697958
 20
168.941537
 30
0.0
 10
50.609187
 20
171.170398
 30
0.0
  0
SPLINE
  5
140
100
AcDbEntity
  8
Layer_1
 62
7
100
AcDbSpline
 70
8
 71
3
 72
8
 73
4
 74
0
 40
0
 40
0
 40
0
 40
0
 40
1
 40
1
 40
1
 40
1
 10
50.609187
 20
171.170398
 30
0.0
 10
48.169457
 20
176.164857
 30
0.0
 10
47.140746
 20
180.759810
 30
0.0
 10
47.427707
 20
185.381128
 30
0.0
  0
SPLINE
  5
141
100
AcDbEntity
  8
Layer_1
 62
7
100
AcDbSpline
 70
8
 71
3
 72
8
 73
4
 74
0
 40
0
 40
0
 40
0
 40
0
 40
1
 40
1
 40
1
 40
1
 10
47.427707
 20
185.381128
 30
0.0
 10
47.834796
 20
191.936944
 30
0.0
 10
50.736350
 20
197.349955
 30
0.0
 10
56.125578
 20
201.607472
 30
0.0
  0
SPLINE
  5
142
100
AcDbEntity
  8
Layer_1
 62
7
100
AcDbSpline
 70
8
 71
3
 72
8
 73
4
 74
0
 40
0
 40
0
 40
0
 40
0
 40
1
 40
1
 40
1
 40
1
 10
56.125578
 20
201.607472
 30
0.0
 10
56.469421
 20
201.879111
 30
0.0
 10
56.873668
 20
202.101361
 30
0.0
 10
57.023903
 20
202.101361
 30
0.0
  0
SPLINE
  5
143
100
AcDbEntity
  8
Layer_1
 62
7
100
AcDbSpline
 70
8
 71
3
 72
8
 73
4
 74
0
 40
0
 40
0
 40
0
 40
0
 40
1
 40
1
 40
1
 40
1
 10
57.023903
 20
202.101361
 30
0.0
 10
57.174138
 20
202.101361
 30
0.0
 10
57.497557
 20
202.278735
 30
0.0
 10
57.742613
 20
202.495524
 30
0.0
  0
SPLINE
  5
144
100
AcDbEntity
  8
Layer_1
 62
7
100
AcDbSpline
 70
8
 71
3
 72
8
 73
4
 74
0
 40
0
 40
0
 40
0
 40
0
 40
1
 40
1
 40
1
 40
1
 10
57.742613
 20
202.495524
 30
0.0
 10
58.505640
 20
203.170537
 30
0.0
 10
62.336420
 20
204.076917
 30
0.0
 10
64.426321
 20
204.076917
 30
0.0
  0
SPLINE
  5
145
100
AcDbEntity
  8
Layer_1
 62
7
100
AcDbSpline
 70
8
 71
3
 72
8
 73
4
 74
0
 40
0
 40
0
 40
0
 40
0
 40
1
 40
1
 40
1
 40
1
 10
64.426321
 20
204.076917
 30
0.0
 10
68.056241
 20
204.076917
 30
0.0
 10
70.744475
 20
203.053796
 30
0.0
 10
73.145946
 20
200.758294
 30
0.0
  0
SPLINE
  5
146
100
AcDbEntity
  8
Layer_1
 62
7
100
AcDbSpline
 70
8
 71
3
 72
8
 73
4
 74
0
 40
0
 40
0
 40
0
 40
0
 40
1
 40
1
 40
1
 40
1
 10
73.145946
 20
200.758294
 30
0.0
 10
75.337983
 20
198.662988
 30
0.0
 10
75.890588
 20
197.801059
 30
0.0
 10
76.989336
 20
194.763583
 30
0.0
  0
SPLINE
  5
147
100
AcDbEntity
  8
Layer_1
 62
7
100
AcDbSpline
 70
8
 71
3
 72
8
 73
4
 74
0
 40
0
 40
0
 40
0
 40
0
 40
1
 40
1
 40
1
 40
1
 10
76.989336
 20
194.763583
 30
0.0
 10
78.360781
 20
190.972238
 30
0.0
 10
77.595284
 20
182.628028
 30
0.0
 10
75.876023
 20
182.628028
 30
0.0
  0
SPLINE
  5
148
100
AcDbEntity
  8
Layer_1
 62
7
100
AcDbSpline
 70
8
 71
3
 72
8
 73
4
 74
0
 40
0
 40
0
 40
0
 40
0
 40
1
 40
1
 40
1
 40
1
 10
75.876023
 20
182.628028
 30
0.0
 10
75.725559
 20
182.628028
 30
0.0
 10
75.049736
 20
182.312057
 30
0.0
 10
74.374197
 20
181.925870
 30
0.0
  0
SPLINE
  5
149
100
AcDbEntity
  8
Layer_1
 62
7
100
AcDbSpline
 70
8
 71
3
 72
8
 73
4
 74
0
 40
0
 40
0
 40
0
 40
0
 40
1
 40
1
 40
1
 40
1
 10
74.374197
 20
181.925870
 30
0.0
 10
73.698659
 20
181.539686
 30
0.0
 10
72.816379
 20
181.222186
 30
0.0
 10
72.413577
 20
181.220315
 30
0.0
  0
SPLINE
  5
14a
100
AcDbEntity
  8
Layer_1
 62
7
100
AcDbSpline
 70
8
 71
3
 72
8
 73
4
 74
0
 40
0
 40
0
 40
0
 40
0
 40
1
 40
1
 40
1
 40
1
 10
72.413577
 20
181.220315
 30
0.0
 10
71.367975
 20
181.215460
 30
0.0
 10
70.747057
 20
180.393418
 30
0.0
 10
70.747057
 20
179.013977
 30
0.0
  0
SPLINE
  5
14b
100
AcDbEntity
  8
Layer_1
 62
7
100
AcDbSpline
 70
8
 71
3
 72
8
 73
4
 74
0
 40
0
 40
0
 40
0
 40
0
 40
1
 40
1
 40
1
 40
1
 10
70.747057
 20
179.013977
 30
0.0
 10
70.747057
 20
178.109955
 30
0.0
 10
70.602402
 20
177.749537
 30
0.0
 10
70.112057
 20
177.431837
 30
0.0
  0
SPLINE
  5
14c
100
AcDbEntity
  8
Layer_1
 62
7
100
AcDbSpline
 70
8
 71
3
 72
8
 73
4
 74
0
 40
0
 40
0
 40
0
 40
0
 40
1
 40
1
 40
1
 40
1
 10
70.112057
 20
177.431837
 30
0.0
 10
68.878233
 20
176.632425
 30
0.0
 10
67.142552
 20
176.738747
 30
0.0
 10
66.131601
 20
177.675663
 30
0.0
  0
SPLINE
  5
14d
100
AcDbEntity
  8
Layer_1
 62
7
100
AcDbSpline
 70
8
 71
3
 72
8
 73
4
 74
0
 40
0
 40
0
 40
0
 40
0
 40
1
 40
1
 40
1
 40
1
 10
66.131601
 20
177.675663
 30
0.0
 10
65.498444
 20
178.262453
 30
0.0
 10
65.384835
 20
178.603920
 30
0.0
 10
65.384835
 20
179.920162
 30
0.0
  0
SPLINE
  5
14e
100
AcDbEntity
  8
Layer_1
 62
7
100
AcDbSpline
 70
8
 71
3
 72
8
 73
4
 74
0
 40
0
 40
0
 40
0
 40
0
 40
1
 40
1
 40
1
 40
1
 10
65.384835
 20
179.920162
 30
0.0
 10
65.384835
 20
181.700169
 30
0.0
 10
65.804392
 20
182.826230
 30
0.0
 10
66.556554
 20
183.064956
 30
0.0
  0
SPLINE
  5
14f
100
AcDbEntity
  8
Layer_1
 62
7
100
AcDbSpline
 70
8
 71
3
 72
8
 73
4
 74
0
 40
0
 40
0
 40
0
 40
0
 40
1
 40
1
 40
1
 40
1
 10
66.556554
 20
183.064956
 30
0.0
 10
66.843442
 20
183.156009
 30
0.0
 10
67.078169
 20
183.328952
 30
0.0
 10
67.078169
 20
183.449272
 30
0.0
  0
SPLINE
  5
150
100
AcDbEntity
  8
Layer_1
 62
7
100
AcDbSpline
 70
8
 71
3
 72
8
 73
4
 74
0
 40
0
 40
0
 40
0
 40
0
 40
1
 40
1
 40
1
 40
1
 10
67.078169
 20
183.449272
 30
0.0
 10
67.078169
 20
183.569589
 30
0.0
 10
67.499651
 20
183.895016
 30
0.0
 10
68.014796
 20
184.172441
 30
0.0
  0
SPLINE
  5
151
100
AcDbEntity
  8
Layer_1
 62
7
100
AcDbSpline
 70
8
 71
3
 72
8
 73
4
 74
0
 40
0
 40
0
 40
0
 40
0
 40
1
 40
1
 40
1
 40
1
 10
68.014796
 20
184.172441
 30
0.0
 10
68.529942
 20
184.449865
 30
0.0
 10
69.069692
 20
184.896688
 30
0.0
 10
69.214241
 20
185.165380
 30
0.0
  0
SPLINE
  5
152
100
AcDbEntity
  8
Layer_1
 62
7
100
AcDbSpline
 70
8
 71
3
 72
8
 73
4
 74
0
 40
0
 40
0
 40
0
 40
0
 40
1
 40
1
 40
1
 40
1
 10
69.214241
 20
185.165380
 30
0.0
 10
69.358789
 20
185.434073
 30
0.0
 10
69.849280
 20
186.211338
 30
0.0
 10
70.304217
 20
186.892637
 30
0.0
  0
SPLINE
  5
153
100
AcDbEntity
  8
Layer_1
 62
7
100
AcDbSpline
 70
8
 71
3
 72
8
 73
4
 74
0
 40
0
 40
0
 40
0
 40
0
 40
1
 40
1
 40
1
 40
1
 10
70.304217
 20
186.892637
 30
0.0
 10
71.153119
 20
188.163921
 30
0.0
 10
71.561094
 20
190.344045
 30
0.0
 10
71.211067
 20
191.738655
 30
0.0
  0
SPLINE
  5
154
100
AcDbEntity
  8
Layer_1
 62
7
100
AcDbSpline
 70
8
 71
3
 72
8
 73
4
 74
0
 40
0
 40
0
 40
0
 40
0
 40
1
 40
1
 40
1
 40
1
 10
71.211067
 20
191.738655
 30
0.0
 10
70.811184
 20
193.331918
 30
0.0
 10
68.497823
 20
194.726499
 30
0.0
 10
66.937057
 20
194.315186
 30
0.0
  0
SPLINE
  5
155
100
AcDbEntity
  8
Layer_1
 62
7
100
AcDbSpline
 70
8
 71
3
 72
8
 73
4
 74
0
 40
0
 40
0
 40
0
 40
0
 40
1
 40
1
 40
1
 40
1
 10
66.937057
 20
194.315186
 30
0.0
 10
65.856479
 20
194.030418
 30
0.0
 10
64.111928
 20
193.215925
 30
0.0
 10
63.673965
 20
192.791716
 30
0.0
  0
SPLINE
  5
156
100
AcDbEntity
  8
Layer_1
 62
7
100
AcDbSpline
 70
8
 71
3
 72
8
 73
4
 74
0
 40
0
 40
0
 40
0
 40
0
 40
1
 40
1
 40
1
 40
1
 10
63.673965
 20
192.791716
 30
0.0
 10
62.496336
 20
191.651073
 30
0.0
 10
61.217440
 20
189.697090
 30
0.0
 10
60.900810
 20
188.554694
 30
0.0
  0
SPLINE
  5
157
100
AcDbEntity
  8
Layer_1
 62
7
100
AcDbSpline
 70
8
 71
3
 72
8
 73
4
 74
0
 40
0
 40
0
 40
0
 40
0
 40
1
 40
1
 40
1
 40
1
 10
60.900810
 20
188.554694
 30
0.0
 10
60.707211
 20
187.856194
 30
0.0
 10
60.430416
 20
186.894677
 30
0.0
 10
60.285712
 20
186.417990
 30
0.0
  0
SPLINE
  5
158
100
AcDbEntity
  8
Layer_1
 62
7
100
AcDbSpline
 70
8
 71
3
 72
8
 73
4
 74
0
 40
0
 40
0
 40
0
 40
0
 40
1
 40
1
 40
1
 40
1
 10
60.285712
 20
186.417990
 30
0.0
 10
59.643989
 20
184.304018
 30
0.0
 10
60.142160
 20
180.762536
 30
0.0
 10
61.473227
 20
177.975964
 30
0.0
  0
SPLINE
  5
159
100
AcDbEntity
  8
Layer_1
 62
7
100
AcDbSpline
 70
8
 71
3
 72
8
 73
4
 74
0
 40
0
 40
0
 40
0
 40
0
 40
1
 40
1
 40
1
 40
1
 10
61.473227
 20
177.975964
 30
0.0
 10
62.278139
 20
176.290897
 30
0.0
 10
63.259025
 20
175.176867
 30
0.0
 10
67.967047
 20
170.600676
 30
0.0
  0
SPLINE
  5
15a
100
AcDbEntity
  8
Layer_1
 62
7
100
AcDbSpline
 70
8
 71
3
 72
8
 73
4
 74
0
 40
0
 40
0
 40
0
 40
0
 40
1
 40
1
 40
1
 40
1
 10
67.967047
 20
170.600676
 30
0.0
 10
71.604767
 20
167.064821
 30
0.0
 10
72.477009
 20
165.830195
 30
0.0
 10
73.777148
 20
162.376695
 30
0.0
  0
SPLINE
  5
15b
100
AcDbEntity
  8
Layer_1
 62
7
100
AcDbSpline
 70
8
 71
3
 72
8
 73
4
 74
0
 40
0
 40
0
 40
0
 40
0
 40
1
 40
1
 40
1
 40
1
 10
73.777148
 20
162.376695
 30
0.0
 10
74.382252
 20
160.769378
 30
0.0
 10
74.504556
 20
159.925271
 30
0.0
 10
74.564020
 20
156.945805
 30
0.0
  0
LWPOLYLINE
  5
15c
100
AcDbEntity
  8
Layer_1
 62
7
100
AcDbPolyline
 90
3
 70
0
 10
39.632057
 20
146.638158
 30
0.0
 10
40.690391
 20
147.159496
 30
0.0
 10
39.231214
 20
147.614111
 30
0.0
  0
SPLINE
  5
15d
100
AcDbEntity
  8
Layer_1
 62
7
100
AcDbSpline
 70
8
 71
3
 72
8
 73
4
 74
0
 40
0
 40
0
 40
0
 40
0
 40
1
 40
1
 40
1
 40
1
 10
75.865744
 20
153.227279
 30
0.0
 10
77.777650
 20
152.931098
 30
0.0
 10
81.587560
 20
152.963794
 30
0.0
 10
83.720192
 20
153.294682
 30
0.0
  0
SPLINE
  5
15e
100
AcDbEntity
  8
Layer_1
 62
7
100
AcDbSpline
 70
8
 71
3
 72
8
 73
4
 74
0
 40
0
 40
0
 40
0
 40
0
 40
1
 40
1
 40
1
 40
1
 10
83.720192
 20
153.294682
 30
0.0
 10
86.061841
 20
153.658004
 30
0.0
 10
87.459154
 20
153.353419
 30
0.0
 10
88.753944
 20
152.197431
 30
0.0
  0
SPLINE
  5
15f
100
AcDbEntity
  8
Layer_1
 62
7
100
AcDbSpline
 70
8
 71
3
 72
8
 73
4
 74
0
 40
0
 40
0
 40
0
 40
0
 40
1
 40
1
 40
1
 40
1
 10
88.753944
 20
152.197431
 30
0.0
 10
89.976833
 20
151.105634
 30
0.0
 10
90.016525
 20
149.549119
 30
0.0
 10
88.854661
 20
148.247748
 30
0.0
  0
SPLINE
  5
160
100
AcDbEntity
  8
Layer_1
 62
7
100
AcDbSpline
 70
8
 71
3
 72
8
 73
4
 74
0
 40
0
 40
0
 40
0
 40
0
 40
1
 40
1
 40
1
 40
1
 10
88.854661
 20
148.247748
 30
0.0
 10
88.164803
 20
147.475054
 30
0.0
 10
87.860649
 20
147.348480
 30
0.0
 10
86.667439
 20
147.337522
 30
0.0
  0
SPLINE
  5
161
100
AcDbEntity
  8
Layer_1
 62
7
100
AcDbSpline
 70
8
 71
3
 72
8
 73
4
 74
0
 40
0
 40
0
 40
0
 40
0
 40
1
 40
1
 40
1
 40
1
 10
86.667439
 20
147.337522
 30
0.0
 10
85.905173
 20
147.330523
 30
0.0
 10
84.920590
 20
147.170584
 30
0.0
 10
84.479480
 20
146.982108
 30
0.0
  0
LWPOLYLINE
  5
162
100
AcDbEntity
  8
Layer_1
 62
7
100
AcDbPolyline
 90
3
 70
0
 10
74.564020
 20
156.945805
 30
0.0
 10
74.634431
 20
153.418028
 30
0.0
 10
75.865744
 20
153.227279
 30
0.0
  0
SPLINE
  5
163
100
AcDbEntity
  8
Layer_1
 62
7
100
AcDbSpline
 70
8
 71
3
 72
8
 73
4
 74
0
 40
0
 40
0
 40
0
 40
0
 40
1
 40
1
 40
1
 40
1
 10
84.545526
 20
145.654283
 30
0.0
 10
86.132918
 20
143.852805
 30
0.0
 10
85.506616
 20
142.742681
 30
0.0
 10
82.189983
 20
141.479062
 30
0.0
  0
SPLINE
  5
164
100
AcDbEntity
  8
Layer_1
 62
7
100
AcDbSpline
 70
8
 71
3
 72
8
 73
4
 74
0
 40
0
 40
0
 40
0
 40
0
 40
1
 40
1
 40
1
 40
1
 10
82.189983
 20
141.479062
 30
0.0
 10
80.254771
 20
140.741760
 30
0.0
 10
76.095456
 20
140.473228
 30
0.0
 10
72.440391
 20
140.849617
 30
0.0
  0
LWPOLYLINE
  5
165
100
AcDbEntity
  8
Layer_1
 62
7
100
AcDbPolyline
 90
3
 70
0
 10
84.479480
 20
146.982108
 30
0.0
 10
83.677455
 20
146.639425
 30
0.0
 10
84.545526
 20
145.654283
 30
0.0
  0
SPLINE
  5
166
100
AcDbEntity
  8
Layer_1
 62
7
100
AcDbSpline
 70
8
 71
3
 72
8
 73
4
 74
0
 40
0
 40
0
 40
0
 40
0
 40
1
 40
1
 40
1
 40
1
 10
78.558303
 20
142.291939
 30
0.0
 10
80.738427
 20
142.592065
 30
0.0
 10
82.921306
 20
143.341221
 30
0.0
 10
83.272791
 20
143.909936
 30
0.0
  0
SPLINE
  5
167
100
AcDbEntity
  8
Layer_1
 62
7
100
AcDbSpline
 70
8
 71
3
 72
8
 73
4
 74
0
 40
0
 40
0
 40
0
 40
0
 40
1
 40
1
 40
1
 40
1
 10
83.272791
 20
143.909936
 30
0.0
 10
83.372229
 20
144.070831
 30
0.0
 10
83.197613
 20
144.636319
 30
0.0
 10
82.884752
 20
145.166575
 30
0.0
  0
SPLINE
  5
168
100
AcDbEntity
  8
Layer_1
 62
7
100
AcDbSpline
 70
8
 71
3
 72
8
 73
4
 74
0
 40
0
 40
0
 40
0
 40
0
 40
1
 40
1
 40
1
 40
1
 10
82.884752
 20
145.166575
 30
0.0
 10
82.410932
 20
145.969644
 30
0.0
 10
82.366773
 20
146.276561
 30
0.0
 10
82.620383
 20
147.004065
 30
0.0
  0
SPLINE
  5
169
100
AcDbEntity
  8
Layer_1
 62
7
100
AcDbSpline
 70
8
 71
3
 72
8
 73
4
 74
0
 40
0
 40
0
 40
0
 40
0
 40
1
 40
1
 40
1
 40
1
 10
82.620383
 20
147.004065
 30
0.0
 10
83.034940
 20
148.193262
 30
0.0
 10
84.080093
 20
148.821666
 30
0.0
 10
85.518732
 20
148.746717
 30
0.0
  0
SPLINE
  5
16a
100
AcDbEntity
  8
Layer_1
 62
7
100
AcDbSpline
 70
8
 71
3
 72
8
 73
4
 74
0
 40
0
 40
0
 40
0
 40
0
 40
1
 40
1
 40
1
 40
1
 10
85.518732
 20
148.746717
 30
0.0
 10
87.124616
 20
148.663052
 30
0.0
 10
87.293422
 20
148.696933
 30
0.0
 10
87.801343
 20
149.204853
 30
0.0
  0
SPLINE
  5
16b
100
AcDbEntity
  8
Layer_1
 62
7
100
AcDbSpline
 70
8
 71
3
 72
8
 73
4
 74
0
 40
0
 40
0
 40
0
 40
0
 40
1
 40
1
 40
1
 40
1
 10
87.801343
 20
149.204853
 30
0.0
 10
88.413384
 20
149.816892
 30
0.0
 10
88.370540
 20
150.009661
 30
0.0
 10
87.368933
 20
151.150429
 30
0.0
  0
SPLINE
  5
16c
100
AcDbEntity
  8
Layer_1
 62
7
100
AcDbSpline
 70
8
 71
3
 72
8
 73
4
 74
0
 40
0
 40
0
 40
0
 40
0
 40
1
 40
1
 40
1
 40
1
 10
87.368933
 20
151.150429
 30
0.0
 10
86.602567
 20
152.023271
 30
0.0
 10
86.329040
 20
152.148121
 30
0.0
 10
85.181711
 20
152.148764
 30
0.0
  0
SPLINE
  5
16d
100
AcDbEntity
  8
Layer_1
 62
7
100
AcDbSpline
 70
8
 71
3
 72
8
 73
4
 74
0
 40
0
 40
0
 40
0
 40
0
 40
1
 40
1
 40
1
 40
1
 10
85.181711
 20
152.148764
 30
0.0
 10
84.460484
 20
152.149047
 30
0.0
 10
82.990061
 20
151.935890
 30
0.0
 10
81.914103
 20
151.674809
 30
0.0
  0
SPLINE
  5
16e
100
AcDbEntity
  8
Layer_1
 62
7
100
AcDbSpline
 70
8
 71
3
 72
8
 73
4
 74
0
 40
0
 40
0
 40
0
 40
0
 40
1
 40
1
 40
1
 40
1
 10
81.914103
 20
151.674809
 30
0.0
 10
80.213733
 20
151.262214
 30
0.0
 10
79.607148
 20
151.244403
 30
0.0
 10
77.277262
 20
151.538673
 30
0.0
  0
SPLINE
  5
16f
100
AcDbEntity
  8
Layer_1
 62
7
100
AcDbSpline
 70
8
 71
3
 72
8
 73
4
 74
0
 40
0
 40
0
 40
0
 40
0
 40
1
 40
1
 40
1
 40
1
 10
77.277262
 20
151.538673
 30
0.0
 10
75.787417
 20
151.726845
 30
0.0
 10
74.489220
 20
151.769745
 30
0.0
 10
74.354730
 20
151.635255
 30
0.0
  0
SPLINE
  5
170
100
AcDbEntity
  8
Layer_1
 62
7
100
AcDbSpline
 70
8
 71
3
 72
8
 73
4
 74
0
 40
0
 40
0
 40
0
 40
0
 40
1
 40
1
 40
1
 40
1
 10
74.354730
 20
151.635255
 30
0.0
 10
74.220237
 20
151.500762
 30
0.0
 10
74.242772
 20
151.051290
 30
0.0
 10
74.405459
 20
150.623390
 30
0.0
  0
SPLINE
  5
171
100
AcDbEntity
  8
Layer_1
 62
7
100
AcDbSpline
 70
8
 71
3
 72
8
 73
4
 74
0
 40
0
 40
0
 40
0
 40
0
 40
1
 40
1
 40
1
 40
1
 10
74.405459
 20
150.623390
 30
0.0
 10
74.900776
 20
149.320610
 30
0.0
 10
74.785367
 20
148.709717
 30
0.0
 10
74.063315
 20
148.812288
 30
0.0
  0
SPLINE
  5
172
100
AcDbEntity
  8
Layer_1
 62
7
100
AcDbSpline
 70
8
 71
3
 72
8
 73
4
 74
0
 40
0
 40
0
 40
0
 40
0
 40
1
 40
1
 40
1
 40
1
 10
74.063315
 20
148.812288
 30
0.0
 10
73.574766
 20
148.881689
 30
0.0
 10
73.297802
 20
149.271574
 30
0.0
 10
72.861497
 20
150.504106
 30
0.0
  0
SPLINE
  5
173
100
AcDbEntity
  8
Layer_1
 62
7
100
AcDbSpline
 70
8
 71
3
 72
8
 73
4
 74
0
 40
0
 40
0
 40
0
 40
0
 40
1
 40
1
 40
1
 40
1
 10
72.861497
 20
150.504106
 30
0.0
 10
72.549664
 20
151.385003
 30
0.0
 10
72.219848
 20
152.180421
 30
0.0
 10
72.128572
 20
152.271700
 30
0.0
  0
SPLINE
  5
174
100
AcDbEntity
  8
Layer_1
 62
7
100
AcDbSpline
 70
8
 71
3
 72
8
 73
4
 74
0
 40
0
 40
0
 40
0
 40
0
 40
1
 40
1
 40
1
 40
1
 10
72.128572
 20
152.271700
 30
0.0
 10
72.037293
 20
152.362977
 30
0.0
 10
71.502691
 20
152.245482
 30
0.0
 10
70.940566
 20
152.010622
 30
0.0
  0
SPLINE
  5
175
100
AcDbEntity
  8
Layer_1
 62
7
100
AcDbSpline
 70
8
 71
3
 72
8
 73
4
 74
0
 40
0
 40
0
 40
0
 40
0
 40
1
 40
1
 40
1
 40
1
 10
70.940566
 20
152.010622
 30
0.0
 10
69.580275
 20
151.442255
 30
0.0
 10
68.986400
 20
151.472108
 30
0.0
 10
68.207057
 20
152.148028
 30
0.0
  0
SPLINE
  5
176
100
AcDbEntity
  8
Layer_1
 62
7
100
AcDbSpline
 70
8
 71
3
 72
8
 73
4
 74
0
 40
0
 40
0
 40
0
 40
0
 40
1
 40
1
 40
1
 40
1
 10
68.207057
 20
152.148028
 30
0.0
 10
67.445803
 20
152.808261
 30
0.0
 10
66.981347
 20
152.857554
 30
0.0
 10
66.457503
 20
152.333713
 30
0.0
  0
SPLINE
  5
177
100
AcDbEntity
  8
Layer_1
 62
7
100
AcDbSpline
 70
8
 71
3
 72
8
 73
4
 74
0
 40
0
 40
0
 40
0
 40
0
 40
1
 40
1
 40
1
 40
1
 10
66.457503
 20
152.333713
 30
0.0
 10
65.594301
 20
151.470508
 30
0.0
 10
64.860813
 20
151.305143
 30
0.0
 10
62.703947
 20
151.487464
 30
0.0
  0
SPLINE
  5
178
100
AcDbEntity
  8
Layer_1
 62
7
100
AcDbSpline
 70
8
 71
3
 72
8
 73
4
 74
0
 40
0
 40
0
 40
0
 40
0
 40
1
 40
1
 40
1
 40
1
 10
62.703947
 20
151.487464
 30
0.0
 10
60.675263
 20
151.658951
 30
0.0
 10
60.555127
 20
151.706065
 30
0.0
 10
60.729345
 20
152.261823
 30
0.0
  0
SPLINE
  5
179
100
AcDbEntity
  8
Layer_1
 62
7
100
AcDbSpline
 70
8
 71
3
 72
8
 73
4
 74
0
 40
0
 40
0
 40
0
 40
0
 40
1
 40
1
 40
1
 40
1
 10
60.729345
 20
152.261823
 30
0.0
 10
60.831372
 20
152.587290
 30
0.0
 10
60.976428
 20
153.171083
 30
0.0
 10
61.051691
 20
153.559139
 30
0.0
  0
SPLINE
  5
17a
100
AcDbEntity
  8
Layer_1
 62
7
100
AcDbSpline
 70
8
 71
3
 72
8
 73
4
 74
0
 40
0
 40
0
 40
0
 40
0
 40
1
 40
1
 40
1
 40
1
 10
61.051691
 20
153.559139
 30
0.0
 10
61.169225
 20
154.165140
 30
0.0
 10
61.135751
 20
154.204962
 30
0.0
 10
60.814452
 20
153.841361
 30
0.0
  0
SPLINE
  5
17b
100
AcDbEntity
  8
Layer_1
 62
7
100
AcDbSpline
 70
8
 71
3
 72
8
 73
4
 74
0
 40
0
 40
0
 40
0
 40
0
 40
1
 40
1
 40
1
 40
1
 10
60.814452
 20
153.841361
 30
0.0
 10
60.020951
 20
152.943392
 30
0.0
 10
57.562739
 20
151.071488
 30
0.0
 10
56.394040
 20
150.475260
 30
0.0
  0
SPLINE
  5
17c
100
AcDbEntity
  8
Layer_1
 62
7
100
AcDbSpline
 70
8
 71
3
 72
8
 73
4
 74
0
 40
0
 40
0
 40
0
 40
0
 40
1
 40
1
 40
1
 40
1
 10
56.394040
 20
150.475260
 30
0.0
 10
55.030184
 20
149.779475
 30
0.0
 10
54.442583
 20
149.933980
 30
0.0
 10
55.479109
 20
150.715835
 30
0.0
  0
SPLINE
  5
17d
100
AcDbEntity
  8
Layer_1
 62
7
100
AcDbSpline
 70
8
 71
3
 72
8
 73
4
 74
0
 40
0
 40
0
 40
0
 40
0
 40
1
 40
1
 40
1
 40
1
 10
55.479109
 20
150.715835
 30
0.0
 10
56.359236
 20
151.379714
 30
0.0
 10
56.054543
 20
151.484159
 30
0.0
 10
53.602057
 20
151.359253
 30
0.0
  0
SPLINE
  5
17e
100
AcDbEntity
  8
Layer_1
 62
7
100
AcDbSpline
 70
8
 71
3
 72
8
 73
4
 74
0
 40
0
 40
0
 40
0
 40
0
 40
1
 40
1
 40
1
 40
1
 10
53.602057
 20
151.359253
 30
0.0
 10
51.853657
 20
151.270207
 30
0.0
 10
51.555946
 20
151.180680
 30
0.0
 10
51.555946
 20
150.743952
 30
0.0
  0
SPLINE
  5
17f
100
AcDbEntity
  8
Layer_1
 62
7
100
AcDbSpline
 70
8
 71
3
 72
8
 73
4
 74
0
 40
0
 40
0
 40
0
 40
0
 40
1
 40
1
 40
1
 40
1
 10
51.555946
 20
150.743952
 30
0.0
 10
51.555946
 20
150.211927
 30
0.0
 10
51.026918
 20
149.890250
 30
0.0
 10
50.151947
 20
149.890250
 30
0.0
  0
SPLINE
  5
180
100
AcDbEntity
  8
Layer_1
 62
7
100
AcDbSpline
 70
8
 71
3
 72
8
 73
4
 74
0
 40
0
 40
0
 40
0
 40
0
 40
1
 40
1
 40
1
 40
1
 10
50.151947
 20
149.890250
 30
0.0
 10
48.913819
 20
149.890250
 30
0.0
 10
49.198973
 20
147.871571
 30
0.0
 10
50.523182
 20
147.262199
 30
0.0
  0
SPLINE
  5
181
100
AcDbEntity
  8
Layer_1
 62
7
100
AcDbSpline
 70
8
 71
3
 72
8
 73
4
 74
0
 40
0
 40
0
 40
0
 40
0
 40
1
 40
1
 40
1
 40
1
 10
50.523182
 20
147.262199
 30
0.0
 10
51.631181
 20
146.752323
 30
0.0
 10
58.433166
 20
146.361010
 30
0.0
 10
64.679280
 20
146.447810
 30
0.0
  0
SPLINE
  5
182
100
AcDbEntity
  8
Layer_1
 62
7
100
AcDbSpline
 70
8
 71
3
 72
8
 73
4
 74
0
 40
0
 40
0
 40
0
 40
0
 40
1
 40
1
 40
1
 40
1
 10
64.679280
 20
146.447810
 30
0.0
 10
67.911554
 20
146.492726
 30
0.0
 10
69.821168
 20
146.383012
 30
0.0
 10
71.398745
 20
146.061750
 30
0.0
  0
SPLINE
  5
183
100
AcDbEntity
  8
Layer_1
 62
7
100
AcDbSpline
 70
8
 71
3
 72
8
 73
4
 74
0
 40
0
 40
0
 40
0
 40
0
 40
1
 40
1
 40
1
 40
1
 10
71.398745
 20
146.061750
 30
0.0
 10
74.479678
 20
145.434345
 30
0.0
 10
76.406087
 20
145.851136
 30
0.0
 10
78.441993
 20
147.585609
 30
0.0
  0
SPLINE
  5
184
100
AcDbEntity
  8
Layer_1
 62
7
100
AcDbSpline
 70
8
 71
3
 72
8
 73
4
 74
0
 40
0
 40
0
 40
0
 40
0
 40
1
 40
1
 40
1
 40
1
 10
78.441993
 20
147.585609
 30
0.0
 10
78.915384
 20
147.988910
 30
0.0
 10
78.909407
 20
148.042945
 30
0.0
 10
78.322241
 20
148.667954
 30
0.0
  0
SPLINE
  5
185
100
AcDbEntity
  8
Layer_1
 62
7
100
AcDbSpline
 70
8
 71
3
 72
8
 73
4
 74
0
 40
0
 40
0
 40
0
 40
0
 40
1
 40
1
 40
1
 40
1
 10
78.322241
 20
148.667954
 30
0.0
 10
77.982332
 20
149.029771
 30
0.0
 10
77.528366
 20
149.325805
 30
0.0
 10
77.313429
 20
149.325805
 30
0.0
  0
SPLINE
  5
186
100
AcDbEntity
  8
Layer_1
 62
7
100
AcDbSpline
 70
8
 71
3
 72
8
 73
4
 74
0
 40
0
 40
0
 40
0
 40
0
 40
1
 40
1
 40
1
 40
1
 10
77.313429
 20
149.325805
 30
0.0
 10
77.098491
 20
149.325805
 30
0.0
 10
77.001124
 20
149.452805
 30
0.0
 10
77.097057
 20
149.608028
 30
0.0
  0
SPLINE
  5
187
100
AcDbEntity
  8
Layer_1
 62
7
100
AcDbSpline
 70
8
 71
3
 72
8
 73
4
 74
0
 40
0
 40
0
 40
0
 40
0
 40
1
 40
1
 40
1
 40
1
 10
77.097057
 20
149.608028
 30
0.0
 10
77.394867
 20
150.089894
 30
0.0
 10
78.818672
 20
149.918260
 30
0.0
 10
79.344622
 20
149.337092
 30
0.0
  0
SPLINE
  5
188
100
AcDbEntity
  8
Layer_1
 62
7
100
AcDbSpline
 70
8
 71
3
 72
8
 73
4
 74
0
 40
0
 40
0
 40
0
 40
0
 40
1
 40
1
 40
1
 40
1
 10
79.344622
 20
149.337092
 30
0.0
 10
80.123769
 20
148.476142
 30
0.0
 10
79.718002
 20
146.833851
 30
0.0
 10
78.632648
 20
146.455495
 30
0.0
  0
SPLINE
  5
189
100
AcDbEntity
  8
Layer_1
 62
7
100
AcDbSpline
 70
8
 71
3
 72
8
 73
4
 74
0
 40
0
 40
0
 40
0
 40
0
 40
1
 40
1
 40
1
 40
1
 10
78.632648
 20
146.455495
 30
0.0
 10
78.176128
 20
146.296353
 30
0.0
 10
77.802613
 20
146.070417
 30
0.0
 10
77.802613
 20
145.953419
 30
0.0
  0
SPLINE
  5
18a
100
AcDbEntity
  8
Layer_1
 62
7
100
AcDbSpline
 70
8
 71
3
 72
8
 73
4
 74
0
 40
0
 40
0
 40
0
 40
0
 40
1
 40
1
 40
1
 40
1
 10
77.802613
 20
145.953419
 30
0.0
 10
77.802613
 20
145.836418
 30
0.0
 10
76.995898
 20
145.522325
 30
0.0
 10
76.009912
 20
145.255430
 30
0.0
  0
SPLINE
  5
18b
100
AcDbEntity
  8
Layer_1
 62
7
100
AcDbSpline
 70
8
 71
3
 72
8
 73
4
 74
0
 40
0
 40
0
 40
0
 40
0
 40
1
 40
1
 40
1
 40
1
 10
76.009912
 20
145.255430
 30
0.0
 10
74.330526
 20
144.800841
 30
0.0
 10
74.076317
 20
144.799633
 30
0.0
 10
71.988245
 20
145.236295
 30
0.0
  0
SPLINE
  5
18c
100
AcDbEntity
  8
Layer_1
 62
7
100
AcDbSpline
 70
8
 71
3
 72
8
 73
4
 74
0
 40
0
 40
0
 40
0
 40
0
 40
1
 40
1
 40
1
 40
1
 10
71.988245
 20
145.236295
 30
0.0
 10
70.347970
 20
145.579308
 30
0.0
 10
68.566682
 20
145.685181
 30
0.0
 10
65.243724
 20
145.637161
 30
0.0
  0
SPLINE
  5
18d
100
AcDbEntity
  8
Layer_1
 62
7
100
AcDbSpline
 70
8
 71
3
 72
8
 73
4
 74
0
 40
0
 40
0
 40
0
 40
0
 40
1
 40
1
 40
1
 40
1
 10
65.243724
 20
145.637161
 30
0.0
 10
62.760169
 20
145.601268
 30
0.0
 10
58.696169
 20
145.662448
 30
0.0
 10
56.212613
 20
145.773102
 30
0.0
  0
SPLINE
  5
18e
100
AcDbEntity
  8
Layer_1
 62
7
100
AcDbSpline
 70
8
 71
3
 72
8
 73
4
 74
0
 40
0
 40
0
 40
0
 40
0
 40
1
 40
1
 40
1
 40
1
 10
56.212613
 20
145.773102
 30
0.0
 10
50.102513
 20
146.045347
 30
0.0
 10
48.451502
 20
146.636422
 30
0.0
 10
48.451502
 20
148.551639
 30
0.0
  0
SPLINE
  5
18f
100
AcDbEntity
  8
Layer_1
 62
7
100
AcDbSpline
 70
8
 71
3
 72
8
 73
4
 74
0
 40
0
 40
0
 40
0
 40
0
 40
1
 40
1
 40
1
 40
1
 10
48.451502
 20
148.551639
 30
0.0
 10
48.451502
 20
149.735629
 30
0.0
 10
48.898483
 20
150.384051
 30
0.0
 10
49.860265
 20
150.595295
 30
0.0
  0
SPLINE
  5
190
100
AcDbEntity
  8
Layer_1
 62
7
100
AcDbSpline
 70
8
 71
3
 72
8
 73
4
 74
0
 40
0
 40
0
 40
0
 40
0
 40
1
 40
1
 40
1
 40
1
 10
49.860265
 20
150.595295
 30
0.0
 10
51.485523
 20
150.952261
 30
0.0
 10
50.688881
 20
151.234965
 30
0.0
 10
47.495437
 20
151.434499
 30
0.0
  0
SPLINE
  5
191
100
AcDbEntity
  8
Layer_1
 62
7
100
AcDbSpline
 70
8
 71
3
 72
8
 73
4
 74
0
 40
0
 40
0
 40
0
 40
0
 40
1
 40
1
 40
1
 40
1
 10
47.495437
 20
151.434499
 30
0.0
 10
42.685479
 20
151.735032
 30
0.0
 10
38.291502
 20
151.185088
 30
0.0
 10
38.291502
 20
150.282547
 30
0.0
  0
SPLINE
  5
192
100
AcDbEntity
  8
Layer_1
 62
7
100
AcDbSpline
 70
8
 71
3
 72
8
 73
4
 74
0
 40
0
 40
0
 40
0
 40
0
 40
1
 40
1
 40
1
 40
1
 10
38.291502
 20
150.282547
 30
0.0
 10
38.291502
 20
149.410102
 30
0.0
 10
39.165733
 20
148.983933
 30
0.0
 10
41.616655
 20
148.661604
 30
0.0
  0
SPLINE
  5
193
100
AcDbEntity
  8
Layer_1
 62
7
100
AcDbSpline
 70
8
 71
3
 72
8
 73
4
 74
0
 40
0
 40
0
 40
0
 40
0
 40
1
 40
1
 40
1
 40
1
 10
41.616655
 20
148.661604
 30
0.0
 10
43.955586
 20
148.354001
 30
0.0
 10
44.081248
 20
148.301971
 30
0.0
 10
44.161941
 20
147.607682
 30
0.0
  0
SPLINE
  5
194
100
AcDbEntity
  8
Layer_1
 62
7
100
AcDbSpline
 70
8
 71
3
 72
8
 73
4
 74
0
 40
0
 40
0
 40
0
 40
0
 40
1
 40
1
 40
1
 40
1
 10
44.161941
 20
147.607682
 30
0.0
 10
44.240741
 20
146.929702
 30
0.0
 10
44.114982
 20
146.841649
 30
0.0
 10
42.407978
 20
146.379586
 30
0.0
  0
SPLINE
  5
195
100
AcDbEntity
  8
Layer_1
 62
7
100
AcDbSpline
 70
8
 71
3
 72
8
 73
4
 74
0
 40
0
 40
0
 40
0
 40
0
 40
1
 40
1
 40
1
 40
1
 10
42.407978
 20
146.379586
 30
0.0
 10
41.049691
 20
146.011913
 30
0.0
 10
40.520617
 20
145.728988
 30
0.0
 10
40.383505
 20
145.296990
 30
0.0
  0
SPLINE
  5
196
100
AcDbEntity
  8
Layer_1
 62
7
100
AcDbSpline
 70
8
 71
3
 72
8
 73
4
 74
0
 40
0
 40
0
 40
0
 40
0
 40
1
 40
1
 40
1
 40
1
 10
40.383505
 20
145.296990
 30
0.0
 10
40.115597
 20
144.452880
 30
0.0
 10
40.734547
 20
144.119127
 30
0.0
 10
43.579500
 20
143.573642
 30
0.0
  0
SPLINE
  5
197
100
AcDbEntity
  8
Layer_1
 62
7
100
AcDbSpline
 70
8
 71
3
 72
8
 73
4
 74
0
 40
0
 40
0
 40
0
 40
0
 40
1
 40
1
 40
1
 40
1
 10
43.579500
 20
143.573642
 30
0.0
 10
45.674655
 20
143.171922
 30
0.0
 10
46.656447
 20
143.141995
 30
0.0
 10
50.003724
 20
143.377823
 30
0.0
  0
SPLINE
  5
198
100
AcDbEntity
  8
Layer_1
 62
7
100
AcDbSpline
 70
8
 71
3
 72
8
 73
4
 74
0
 40
0
 40
0
 40
0
 40
0
 40
1
 40
1
 40
1
 40
1
 10
50.003724
 20
143.377823
 30
0.0
 10
52.562929
 20
143.558126
 30
0.0
 10
54.949053
 20
143.560355
 30
0.0
 10
56.777057
 20
143.384144
 30
0.0
  0
SPLINE
  5
199
100
AcDbEntity
  8
Layer_1
 62
7
100
AcDbSpline
 70
8
 71
3
 72
8
 73
4
 74
0
 40
0
 40
0
 40
0
 40
0
 40
1
 40
1
 40
1
 40
1
 10
56.777057
 20
143.384144
 30
0.0
 10
58.329280
 20
143.234521
 30
0.0
 10
62.266280
 20
142.980871
 30
0.0
 10
65.525946
 20
142.820476
 30
0.0
  0
SPLINE
  5
19a
100
AcDbEntity
  8
Layer_1
 62
7
100
AcDbSpline
 70
8
 71
3
 72
8
 73
4
 74
0
 40
0
 40
0
 40
0
 40
0
 40
1
 40
1
 40
1
 40
1
 10
65.525946
 20
142.820476
 30
0.0
 10
68.785613
 20
142.660083
 30
0.0
 10
72.341613
 20
142.425196
 30
0.0
 10
73.428169
 20
142.298506
 30
0.0
  0
SPLINE
  5
19b
100
AcDbEntity
  8
Layer_1
 62
7
100
AcDbSpline
 70
8
 71
3
 72
8
 73
4
 74
0
 40
0
 40
0
 40
0
 40
0
 40
1
 40
1
 40
1
 40
1
 10
73.428169
 20
142.298506
 30
0.0
 10
74.514724
 20
142.171814
 30
0.0
 10
75.616785
 20
142.050128
 30
0.0
 10
75.877191
 20
142.028089
 30
0.0
  0
SPLINE
  5
19c
100
AcDbEntity
  8
Layer_1
 62
7
100
AcDbSpline
 70
8
 71
3
 72
8
 73
4
 74
0
 40
0
 40
0
 40
0
 40
0
 40
1
 40
1
 40
1
 40
1
 10
75.877191
 20
142.028089
 30
0.0
 10
76.137598
 20
142.006048
 30
0.0
 10
77.344098
 20
142.124781
 30
0.0
 10
78.558303
 20
142.291933
 30
0.0
  0
LWPOLYLINE
  5
19d
100
AcDbEntity
  8
Layer_1
 62
7
100
AcDbPolyline
 90
2
 70
0
 10
72.440391
 20
140.849617
 30
0.0
 10
72.440391
 20
140.849617
 30
0.0
  0
SPLINE
  5
19e
100
AcDbEntity
  8
Layer_1
 62
7
100
AcDbSpline
 70
8
 71
3
 72
8
 73
4
 74
0
 40
0
 40
0
 40
0
 40
0
 40
1
 40
1
 40
1
 40
1
 10
77.802613
 20
143.540250
 30
0.0
 10
77.802613
 20
143.773083
 30
0.0
 10
77.982727
 20
143.963583
 30
0.0
 10
78.202863
 20
143.963583
 30
0.0
  0
SPLINE
  5
19f
100
AcDbEntity
  8
Layer_1
 62
7
100
AcDbSpline
 70
8
 71
3
 72
8
 73
4
 74
0
 40
0
 40
0
 40
0
 40
0
 40
1
 40
1
 40
1
 40
1
 10
78.202863
 20
143.963583
 30
0.0
 10
78.423002
 20
143.963583
 30
0.0
 10
78.804002
 20
144.040669
 30
0.0
 10
79.049530
 20
144.134889
 30
0.0
  0
SPLINE
  5
1a0
100
AcDbEntity
  8
Layer_1
 62
7
100
AcDbSpline
 70
8
 71
3
 72
8
 73
4
 74
0
 40
0
 40
0
 40
0
 40
0
 40
1
 40
1
 40
1
 40
1
 10
79.049530
 20
144.134889
 30
0.0
 10
79.369556
 20
144.257695
 30
0.0
 10
79.495946
 20
144.137824
 30
0.0
 10
79.495946
 20
143.711556
 30
0.0
  0
SPLINE
  5
1a1
100
AcDbEntity
  8
Layer_1
 62
7
100
AcDbSpline
 70
8
 71
3
 72
8
 73
4
 74
0
 40
0
 40
0
 40
0
 40
0
 40
1
 40
1
 40
1
 40
1
 10
79.495946
 20
143.711556
 30
0.0
 10
79.495946
 20
143.238995
 30
0.0
 10
79.322128
 20
143.116917
 30
0.0
 10
78.649280
 20
143.116917
 30
0.0
  0
SPLINE
  5
1a2
100
AcDbEntity
  8
Layer_1
 62
7
100
AcDbSpline
 70
8
 71
3
 72
8
 73
4
 74
0
 40
0
 40
0
 40
0
 40
0
 40
1
 40
1
 40
1
 40
1
 10
78.649280
 20
143.116917
 30
0.0
 10
78.084835
 20
143.116917
 30
0.0
 10
77.802613
 20
143.258028
 30
0.0
 10
77.802613
 20
143.540250
 30
0.0
  0
LWPOLYLINE
  5
1a3
100
AcDbEntity
  8
Layer_1
 62
7
100
AcDbPolyline
 90
2
 70
0
 10
78.558303
 20
142.291933
 30
0.0
 10
78.558303
 20
142.291939
 30
0.0
  0
SPLINE
  5
1a4
100
AcDbEntity
  8
Layer_1
 62
7
100
AcDbSpline
 70
8
 71
3
 72
8
 73
4
 74
0
 40
0
 40
0
 40
0
 40
0
 40
1
 40
1
 40
1
 40
1
 10
46.475946
 20
149.043583
 30
0.0
 10
46.475946
 20
149.198805
 30
0.0
 10
46.666446
 20
149.325805
 30
0.0
 10
46.899280
 20
149.325805
 30
0.0
  0
SPLINE
  5
1a5
100
AcDbEntity
  8
Layer_1
 62
7
100
AcDbSpline
 70
8
 71
3
 72
8
 73
4
 74
0
 40
0
 40
0
 40
0
 40
0
 40
1
 40
1
 40
1
 40
1
 10
46.899280
 20
149.325805
 30
0.0
 10
47.132113
 20
149.325805
 30
0.0
 10
47.322613
 20
149.198805
 30
0.0
 10
47.322613
 20
149.043583
 30
0.0
  0
SPLINE
  5
1a6
100
AcDbEntity
  8
Layer_1
 62
7
100
AcDbSpline
 70
8
 71
3
 72
8
 73
4
 74
0
 40
0
 40
0
 40
0
 40
0
 40
1
 40
1
 40
1
 40
1
 10
47.322613
 20
149.043583
 30
0.0
 10
47.322613
 20
148.888361
 30
0.0
 10
47.132113
 20
148.761361
 30
0.0
 10
46.899280
 20
148.761361
 30
0.0
  0
SPLINE
  5
1a7
100
AcDbEntity
  8
Layer_1
 62
7
100
AcDbSpline
 70
8
 71
3
 72
8
 73
4
 74
0
 40
0
 40
0
 40
0
 40
0
 40
1
 40
1
 40
1
 40
1
 10
46.899280
 20
148.761361
 30
0.0
 10
46.666446
 20
148.761361
 30
0.0
 10
46.475946
 20
148.888361
 30
0.0
 10
46.475946
 20
149.043583
 30
0.0
  0
LWPOLYLINE
  5
1a8
100
AcDbEntity
  8
Layer_1
 62
7
100
AcDbPolyline
 90
2
 70
0
 10
77.802613
 20
143.540250
 30
0.0
 10
77.802613
 20
143.540250
 30
0.0
  0
SPLINE
  5
1a9
100
AcDbEntity
  8
Layer_1
 62
7
100
AcDbSpline
 70
8
 71
3
 72
8
 73
4
 74
0
 40
0
 40
0
 40
0
 40
0
 40
1
 40
1
 40
1
 40
1
 10
64.017327
 20
149.199361
 30
0.0
 10
64.070955
 20
149.476013
 30
0.0
 10
64.285715
 20
149.759265
 30
0.0
 10
64.494565
 20
149.828810
 30
0.0
  0
SPLINE
  5
1aa
100
AcDbEntity
  8
Layer_1
 62
7
100
AcDbSpline
 70
8
 71
3
 72
8
 73
4
 74
0
 40
0
 40
0
 40
0
 40
0
 40
1
 40
1
 40
1
 40
1
 10
64.494565
 20
149.828810
 30
0.0
 10
64.737454
 20
149.909689
 30
0.0
 10
64.839159
 20
149.773988
 30
0.0
 10
64.776787
 20
149.452249
 30
0.0
  0
SPLINE
  5
1ab
100
AcDbEntity
  8
Layer_1
 62
7
100
AcDbSpline
 70
8
 71
3
 72
8
 73
4
 74
0
 40
0
 40
0
 40
0
 40
0
 40
1
 40
1
 40
1
 40
1
 10
64.776787
 20
149.452249
 30
0.0
 10
64.723160
 20
149.175598
 30
0.0
 10
64.508400
 20
148.892346
 30
0.0
 10
64.299550
 20
148.822801
 30
0.0
  0
SPLINE
  5
1ac
100
AcDbEntity
  8
Layer_1
 62
7
100
AcDbSpline
 70
8
 71
3
 72
8
 73
4
 74
0
 40
0
 40
0
 40
0
 40
0
 40
1
 40
1
 40
1
 40
1
 10
64.299550
 20
148.822801
 30
0.0
 10
64.056661
 20
148.741922
 30
0.0
 10
63.954956
 20
148.877622
 30
0.0
 10
64.017327
 20
149.199361
 30
0.0
  0
LWPOLYLINE
  5
1ad
100
AcDbEntity
  8
Layer_1
 62
7
100
AcDbPolyline
 90
2
 70
0
 10
46.475946
 20
149.043583
 30
0.0
 10
46.475946
 20
149.043583
 30
0.0
  0
SPLINE
  5
1ae
100
AcDbEntity
  8
Layer_1
 62
7
100
AcDbSpline
 70
8
 71
3
 72
8
 73
4
 74
0
 40
0
 40
0
 40
0
 40
0
 40
1
 40
1
 40
1
 40
1
 10
65.102613
 20
149.164002
 30
0.0
 10
65.102613
 20
149.425800
 30
0.0
 10
65.343913
 20
149.608028
 30
0.0
 10
65.690575
 20
149.608028
 30
0.0
  0
SPLINE
  5
1af
100
AcDbEntity
  8
Layer_1
 62
7
100
AcDbSpline
 70
8
 71
3
 72
8
 73
4
 74
0
 40
0
 40
0
 40
0
 40
0
 40
1
 40
1
 40
1
 40
1
 10
65.690575
 20
149.608028
 30
0.0
 10
66.378365
 20
149.608028
 30
0.0
 10
66.281145
 20
148.948539
 30
0.0
 10
65.573114
 20
148.811224
 30
0.0
  0
SPLINE
  5
1b0
100
AcDbEntity
  8
Layer_1
 62
7
100
AcDbSpline
 70
8
 71
3
 72
8
 73
4
 74
0
 40
0
 40
0
 40
0
 40
0
 40
1
 40
1
 40
1
 40
1
 10
65.573114
 20
148.811224
 30
0.0
 10
65.294629
 20
148.757212
 30
0.0
 10
65.102613
 20
148.901185
 30
0.0
 10
65.102613
 20
149.164002
 30
0.0
  0
LWPOLYLINE
  5
1b1
100
AcDbEntity
  8
Layer_1
 62
7
100
AcDbPolyline
 90
2
 70
0
 10
64.017327
 20
149.199361
 30
0.0
 10
64.017327
 20
149.199361
 30
0.0
  0
SPLINE
  5
1b2
100
AcDbEntity
  8
Layer_1
 62
7
100
AcDbSpline
 70
8
 71
3
 72
8
 73
4
 74
0
 40
0
 40
0
 40
0
 40
0
 40
1
 40
1
 40
1
 40
1
 10
45.911502
 20
150.031361
 30
0.0
 10
45.911502
 20
150.264194
 30
0.0
 10
46.038502
 20
150.454694
 30
0.0
 10
46.193724
 20
150.454694
 30
0.0
  0
SPLINE
  5
1b3
100
AcDbEntity
  8
Layer_1
 62
7
100
AcDbSpline
 70
8
 71
3
 72
8
 73
4
 74
0
 40
0
 40
0
 40
0
 40
0
 40
1
 40
1
 40
1
 40
1
 10
46.193724
 20
150.454694
 30
0.0
 10
46.348946
 20
150.454694
 30
0.0
 10
46.475946
 20
150.264194
 30
0.0
 10
46.475946
 20
150.031361
 30
0.0
  0
SPLINE
  5
1b4
100
AcDbEntity
  8
Layer_1
 62
7
100
AcDbSpline
 70
8
 71
3
 72
8
 73
4
 74
0
 40
0
 40
0
 40
0
 40
0
 40
1
 40
1
 40
1
 40
1
 10
46.475946
 20
150.031361
 30
0.0
 10
46.475946
 20
149.798528
 30
0.0
 10
46.348946
 20
149.608028
 30
0.0
 10
46.193724
 20
149.608028
 30
0.0
  0
SPLINE
  5
1b5
100
AcDbEntity
  8
Layer_1
 62
7
100
AcDbSpline
 70
8
 71
3
 72
8
 73
4
 74
0
 40
0
 40
0
 40
0
 40
0
 40
1
 40
1
 40
1
 40
1
 10
46.193724
 20
149.608028
 30
0.0
 10
46.038502
 20
149.608028
 30
0.0
 10
45.911502
 20
149.798528
 30
0.0
 10
45.911502
 20
150.031361
 30
0.0
  0
LWPOLYLINE
  5
1b6
100
AcDbEntity
  8
Layer_1
 62
7
100
AcDbPolyline
 90
2
 70
0
 10
65.102613
 20
149.164002
 30
0.0
 10
65.102613
 20
149.164002
 30
0.0
  0
SPLINE
  5
1b7
100
AcDbEntity
  8
Layer_1
 62
7
100
AcDbSpline
 70
8
 71
3
 72
8
 73
4
 74
0
 40
0
 40
0
 40
0
 40
0
 40
1
 40
1
 40
1
 40
1
 10
65.209259
 20
152.292926
 30
0.0
 10
65.771491
 20
152.527842
 30
0.0
 10
66.231502
 20
152.845342
 30
0.0
 10
66.231502
 20
152.998482
 30
0.0
  0
SPLINE
  5
1b8
100
AcDbEntity
  8
Layer_1
 62
7
100
AcDbSpline
 70
8
 71
3
 72
8
 73
4
 74
0
 40
0
 40
0
 40
0
 40
0
 40
1
 40
1
 40
1
 40
1
 10
66.231502
 20
152.998482
 30
0.0
 10
66.231502
 20
153.447029
 30
0.0
 10
67.908624
 20
153.318406
 30
0.0
 10
68.781244
 20
152.802936
 30
0.0
  0
SPLINE
  5
1b9
100
AcDbEntity
  8
Layer_1
 62
7
100
AcDbSpline
 70
8
 71
3
 72
8
 73
4
 74
0
 40
0
 40
0
 40
0
 40
0
 40
1
 40
1
 40
1
 40
1
 10
68.781244
 20
152.802936
 30
0.0
 10
69.538128
 20
152.355834
 30
0.0
 10
69.652636
 20
152.358836
 30
0.0
 10
70.800347
 20
152.855886
 30
0.0
  0
SPLINE
  5
1ba
100
AcDbEntity
  8
Layer_1
 62
7
100
AcDbSpline
 70
8
 71
3
 72
8
 73
4
 74
0
 40
0
 40
0
 40
0
 40
0
 40
1
 40
1
 40
1
 40
1
 10
70.800347
 20
152.855886
 30
0.0
 10
73.634857
 20
154.083460
 30
0.0
 10
73.923062
 20
155.097479
 30
0.0
 10
72.723677
 20
159.622903
 30
0.0
  0
SPLINE
  5
1bb
100
AcDbEntity
  8
Layer_1
 62
7
100
AcDbSpline
 70
8
 71
3
 72
8
 73
4
 74
0
 40
0
 40
0
 40
0
 40
0
 40
1
 40
1
 40
1
 40
1
 10
72.723677
 20
159.622903
 30
0.0
 10
71.812503
 20
163.060867
 30
0.0
 10
71.361088
 20
164.283583
 30
0.0
 10
71.002996
 20
164.283583
 30
0.0
  0
SPLINE
  5
1bc
100
AcDbEntity
  8
Layer_1
 62
7
100
AcDbSpline
 70
8
 71
3
 72
8
 73
4
 74
0
 40
0
 40
0
 40
0
 40
0
 40
1
 40
1
 40
1
 40
1
 10
71.002996
 20
164.283583
 30
0.0
 10
70.883151
 20
164.283583
 30
0.0
 10
70.714438
 20
164.505833
 30
0.0
 10
70.628078
 20
164.777472
 30
0.0
  0
SPLINE
  5
1bd
100
AcDbEntity
  8
Layer_1
 62
7
100
AcDbSpline
 70
8
 71
3
 72
8
 73
4
 74
0
 40
0
 40
0
 40
0
 40
0
 40
1
 40
1
 40
1
 40
1
 10
70.628078
 20
164.777472
 30
0.0
 10
70.541721
 20
165.049111
 30
0.0
 10
70.182746
 20
165.588861
 30
0.0
 10
69.830355
 20
165.976917
 30
0.0
  0
SPLINE
  5
1be
100
AcDbEntity
  8
Layer_1
 62
7
100
AcDbSpline
 70
8
 71
3
 72
8
 73
4
 74
0
 40
0
 40
0
 40
0
 40
0
 40
1
 40
1
 40
1
 40
1
 10
69.830355
 20
165.976917
 30
0.0
 10
69.477963
 20
166.364972
 30
0.0
 10
68.965634
 20
167.031722
 30
0.0
 10
68.691845
 20
167.458583
 30
0.0
  0
SPLINE
  5
1bf
100
AcDbEntity
  8
Layer_1
 62
7
100
AcDbSpline
 70
8
 71
3
 72
8
 73
4
 74
0
 40
0
 40
0
 40
0
 40
0
 40
1
 40
1
 40
1
 40
1
 10
68.691845
 20
167.458583
 30
0.0
 10
68.418055
 20
167.885444
 30
0.0
 10
68.010941
 20
168.234694
 30
0.0
 10
67.787147
 20
168.234694
 30
0.0
  0
SPLINE
  5
1c0
100
AcDbEntity
  8
Layer_1
 62
7
100
AcDbSpline
 70
8
 71
3
 72
8
 73
4
 74
0
 40
0
 40
0
 40
0
 40
0
 40
1
 40
1
 40
1
 40
1
 10
67.787147
 20
168.234694
 30
0.0
 10
67.563354
 20
168.234694
 30
0.0
 10
67.248382
 20
168.481088
 30
0.0
 10
67.087214
 20
168.782239
 30
0.0
  0
SPLINE
  5
1c1
100
AcDbEntity
  8
Layer_1
 62
7
100
AcDbSpline
 70
8
 71
3
 72
8
 73
4
 74
0
 40
0
 40
0
 40
0
 40
0
 40
1
 40
1
 40
1
 40
1
 10
67.087214
 20
168.782239
 30
0.0
 10
66.926042
 20
169.083387
 30
0.0
 10
66.210849
 20
169.748695
 30
0.0
 10
65.497891
 20
170.260703
 30
0.0
  0
SPLINE
  5
1c2
100
AcDbEntity
  8
Layer_1
 62
7
100
AcDbSpline
 70
8
 71
3
 72
8
 73
4
 74
0
 40
0
 40
0
 40
0
 40
0
 40
1
 40
1
 40
1
 40
1
 10
65.497891
 20
170.260703
 30
0.0
 10
64.015739
 20
171.325104
 30
0.0
 10
61.669315
 20
174.127746
 30
0.0
 10
60.486993
 20
176.245871
 30
0.0
  0
SPLINE
  5
1c3
100
AcDbEntity
  8
Layer_1
 62
7
100
AcDbSpline
 70
8
 71
3
 72
8
 73
4
 74
0
 40
0
 40
0
 40
0
 40
0
 40
1
 40
1
 40
1
 40
1
 10
60.486993
 20
176.245871
 30
0.0
 10
57.911972
 20
180.859025
 30
0.0
 10
57.923275
 20
188.135332
 30
0.0
 10
60.510841
 20
191.599768
 30
0.0
  0
SPLINE
  5
1c4
100
AcDbEntity
  8
Layer_1
 62
7
100
AcDbSpline
 70
8
 71
3
 72
8
 73
4
 74
0
 40
0
 40
0
 40
0
 40
0
 40
1
 40
1
 40
1
 40
1
 10
60.510841
 20
191.599768
 30
0.0
 10
61.607025
 20
193.067422
 30
0.0
 10
61.959163
 20
193.409250
 30
0.0
 10
63.472071
 20
194.474305
 30
0.0
  0
SPLINE
  5
1c5
100
AcDbEntity
  8
Layer_1
 62
7
100
AcDbSpline
 70
8
 71
3
 72
8
 73
4
 74
0
 40
0
 40
0
 40
0
 40
0
 40
1
 40
1
 40
1
 40
1
 10
63.472071
 20
194.474305
 30
0.0
 10
64.659787
 20
195.310431
 30
0.0
 10
65.073239
 20
195.431008
 30
0.0
 10
67.270246
 20
195.581963
 30
0.0
  0
SPLINE
  5
1c6
100
AcDbEntity
  8
Layer_1
 62
7
100
AcDbSpline
 70
8
 71
3
 72
8
 73
4
 74
0
 40
0
 40
0
 40
0
 40
0
 40
1
 40
1
 40
1
 40
1
 10
67.270246
 20
195.581963
 30
0.0
 10
69.607577
 20
195.742564
 30
0.0
 10
69.744169
 20
195.788008
 30
0.0
 10
69.900131
 20
196.456917
 30
0.0
  0
SPLINE
  5
1c7
100
AcDbEntity
  8
Layer_1
 62
7
100
AcDbSpline
 70
8
 71
3
 72
8
 73
4
 74
0
 40
0
 40
0
 40
0
 40
0
 40
1
 40
1
 40
1
 40
1
 10
69.900131
 20
196.456917
 30
0.0
 10
70.122802
 20
197.411926
 30
0.0
 10
71.037611
 20
197.485213
 30
0.0
 10
71.675554
 20
196.599151
 30
0.0
  0
SPLINE
  5
1c8
100
AcDbEntity
  8
Layer_1
 62
7
100
AcDbSpline
 70
8
 71
3
 72
8
 73
4
 74
0
 40
0
 40
0
 40
0
 40
0
 40
1
 40
1
 40
1
 40
1
 10
71.675554
 20
196.599151
 30
0.0
 10
72.067584
 20
196.054645
 30
0.0
 10
72.113244
 20
195.771430
 30
0.0
 10
71.879437
 20
195.334558
 30
0.0
  0
SPLINE
  5
1c9
100
AcDbEntity
  8
Layer_1
 62
7
100
AcDbSpline
 70
8
 71
3
 72
8
 73
4
 74
0
 40
0
 40
0
 40
0
 40
0
 40
1
 40
1
 40
1
 40
1
 10
71.879437
 20
195.334558
 30
0.0
 10
71.645667
 20
194.897755
 30
0.0
 10
71.706382
 20
194.520263
 30
0.0
 10
72.150382
 20
193.649948
 30
0.0
  0
SPLINE
  5
1ca
100
AcDbEntity
  8
Layer_1
 62
7
100
AcDbSpline
 70
8
 71
3
 72
8
 73
4
 74
0
 40
0
 40
0
 40
0
 40
0
 40
1
 40
1
 40
1
 40
1
 10
72.150382
 20
193.649948
 30
0.0
 10
72.465108
 20
193.033039
 30
0.0
 10
72.722610
 20
192.328265
 30
0.0
 10
72.722610
 20
192.083784
 30
0.0
  0
SPLINE
  5
1cb
100
AcDbEntity
  8
Layer_1
 62
7
100
AcDbSpline
 70
8
 71
3
 72
8
 73
4
 74
0
 40
0
 40
0
 40
0
 40
0
 40
1
 40
1
 40
1
 40
1
 10
72.722610
 20
192.083784
 30
0.0
 10
72.722610
 20
191.723988
 30
0.0
 10
72.832206
 20
191.697933
 30
0.0
 10
73.297714
 20
191.947065
 30
0.0
  0
SPLINE
  5
1cc
100
AcDbEntity
  8
Layer_1
 62
7
100
AcDbSpline
 70
8
 71
3
 72
8
 73
4
 74
0
 40
0
 40
0
 40
0
 40
0
 40
1
 40
1
 40
1
 40
1
 10
73.297714
 20
191.947065
 30
0.0
 10
74.178205
 20
192.418291
 30
0.0
 10
74.981141
 20
192.035163
 30
0.0
 10
74.976067
 20
191.146231
 30
0.0
  0
SPLINE
  5
1cd
100
AcDbEntity
  8
Layer_1
 62
7
100
AcDbSpline
 70
8
 71
3
 72
8
 73
4
 74
0
 40
0
 40
0
 40
0
 40
0
 40
1
 40
1
 40
1
 40
1
 10
74.976067
 20
191.146231
 30
0.0
 10
74.969322
 20
189.964758
 30
0.0
 10
74.591514
 20
189.577914
 30
0.0
 10
73.631837
 20
189.769850
 30
0.0
  0
SPLINE
  5
1ce
100
AcDbEntity
  8
Layer_1
 62
7
100
AcDbSpline
 70
8
 71
3
 72
8
 73
4
 74
0
 40
0
 40
0
 40
0
 40
0
 40
1
 40
1
 40
1
 40
1
 10
73.631837
 20
189.769850
 30
0.0
 10
72.799806
 20
189.936254
 30
0.0
 10
72.786999
 20
189.919820
 30
0.0
 10
72.462195
 20
188.268871
 30
0.0
  0
SPLINE
  5
1cf
100
AcDbEntity
  8
Layer_1
 62
7
100
AcDbSpline
 70
8
 71
3
 72
8
 73
4
 74
0
 40
0
 40
0
 40
0
 40
0
 40
1
 40
1
 40
1
 40
1
 10
72.462195
 20
188.268871
 30
0.0
 10
72.060294
 20
186.226045
 30
0.0
 10
70.562044
 20
183.891689
 30
0.0
 10
69.022894
 20
182.910250
 30
0.0
  0
SPLINE
  5
1d0
100
AcDbEntity
  8
Layer_1
 62
7
100
AcDbSpline
 70
8
 71
3
 72
8
 73
4
 74
0
 40
0
 40
0
 40
0
 40
0
 40
1
 40
1
 40
1
 40
1
 10
69.022894
 20
182.910250
 30
0.0
 10
67.543852
 20
181.967139
 30
0.0
 10
66.640532
 20
180.173456
 30
0.0
 10
67.117460
 20
179.126714
 30
0.0
  0
SPLINE
  5
1d1
100
AcDbEntity
  8
Layer_1
 62
7
100
AcDbSpline
 70
8
 71
3
 72
8
 73
4
 74
0
 40
0
 40
0
 40
0
 40
0
 40
1
 40
1
 40
1
 40
1
 10
67.117460
 20
179.126714
 30
0.0
 10
67.469137
 20
178.354864
 30
0.0
 10
68.627580
 20
177.854620
 30
0.0
 10
69.058889
 20
178.288359
 30
0.0
  0
SPLINE
  5
1d2
100
AcDbEntity
  8
Layer_1
 62
7
100
AcDbSpline
 70
8
 71
3
 72
8
 73
4
 74
0
 40
0
 40
0
 40
0
 40
0
 40
1
 40
1
 40
1
 40
1
 10
69.058889
 20
178.288359
 30
0.0
 10
69.194223
 20
178.424455
 30
0.0
 10
69.343674
 20
179.297566
 30
0.0
 10
69.391002
 20
180.228605
 30
0.0
  0
LWPOLYLINE
  5
1d3
100
AcDbEntity
  8
Layer_1
 62
7
100
AcDbPolyline
 90
2
 70
0
 10
45.911502
 20
150.031361
 30
0.0
 10
45.911502
 20
150.031361
 30
0.0
  0
SPLINE
  5
1d4
100
AcDbEntity
  8
Layer_1
 62
7
100
AcDbSpline
 70
8
 71
3
 72
8
 73
4
 74
0
 40
0
 40
0
 40
0
 40
0
 40
1
 40
1
 40
1
 40
1
 10
71.452610
 20
182.445599
 30
0.0
 10
74.951697
 20
183.374040
 30
0.0
 10
75.181183
 20
183.531057
 30
0.0
 10
75.713062
 20
185.360653
 30
0.0
  0
SPLINE
  5
1d5
100
AcDbEntity
  8
Layer_1
 62
7
100
AcDbSpline
 70
8
 71
3
 72
8
 73
4
 74
0
 40
0
 40
0
 40
0
 40
0
 40
1
 40
1
 40
1
 40
1
 10
75.713062
 20
185.360653
 30
0.0
 10
76.504055
 20
188.081574
 30
0.0
 10
75.923264
 20
193.024891
 30
0.0
 10
74.492254
 20
195.751361
 30
0.0
  0
SPLINE
  5
1d6
100
AcDbEntity
  8
Layer_1
 62
7
100
AcDbSpline
 70
8
 71
3
 72
8
 73
4
 74
0
 40
0
 40
0
 40
0
 40
0
 40
1
 40
1
 40
1
 40
1
 10
74.492254
 20
195.751361
 30
0.0
 10
73.980463
 20
196.726467
 30
0.0
 10
71.997550
 20
198.638063
 30
0.0
 10
71.252596
 20
198.874500
 30
0.0
  0
SPLINE
  5
1d7
100
AcDbEntity
  8
Layer_1
 62
7
100
AcDbSpline
 70
8
 71
3
 72
8
 73
4
 74
0
 40
0
 40
0
 40
0
 40
0
 40
1
 40
1
 40
1
 40
1
 10
71.252596
 20
198.874500
 30
0.0
 10
70.974548
 20
198.962748
 30
0.0
 10
70.747055
 20
199.137469
 30
0.0
 10
70.747055
 20
199.262767
 30
0.0
  0
SPLINE
  5
1d8
100
AcDbEntity
  8
Layer_1
 62
7
100
AcDbSpline
 70
8
 71
3
 72
8
 73
4
 74
0
 40
0
 40
0
 40
0
 40
0
 40
1
 40
1
 40
1
 40
1
 10
70.747055
 20
199.262767
 30
0.0
 10
70.747055
 20
199.388062
 30
0.0
 10
69.856045
 20
199.777078
 30
0.0
 10
68.767031
 20
200.127242
 30
0.0
  0
SPLINE
  5
1d9
100
AcDbEntity
  8
Layer_1
 62
7
100
AcDbSpline
 70
8
 71
3
 72
8
 73
4
 74
0
 40
0
 40
0
 40
0
 40
0
 40
1
 40
1
 40
1
 40
1
 10
68.767031
 20
200.127242
 30
0.0
 10
66.252894
 20
200.935645
 30
0.0
 10
63.407880
 20
200.821624
 30
0.0
 10
61.292610
 20
199.827691
 30
0.0
  0
SPLINE
  5
1da
100
AcDbEntity
  8
Layer_1
 62
7
100
AcDbSpline
 70
8
 71
3
 72
8
 73
4
 74
0
 40
0
 40
0
 40
0
 40
0
 40
1
 40
1
 40
1
 40
1
 10
61.292610
 20
199.827691
 30
0.0
 10
60.516499
 20
199.463007
 30
0.0
 10
59.839166
 20
199.063394
 30
0.0
 10
59.787426
 20
198.939662
 30
0.0
  0
SPLINE
  5
1db
100
AcDbEntity
  8
Layer_1
 62
7
100
AcDbSpline
 70
8
 71
3
 72
8
 73
4
 74
0
 40
0
 40
0
 40
0
 40
0
 40
1
 40
1
 40
1
 40
1
 10
59.787426
 20
198.939662
 30
0.0
 10
59.735683
 20
198.815930
 30
0.0
 10
59.573549
 20
198.714694
 30
0.0
 10
59.427127
 20
198.714694
 30
0.0
  0
SPLINE
  5
1dc
100
AcDbEntity
  8
Layer_1
 62
7
100
AcDbSpline
 70
8
 71
3
 72
8
 73
4
 74
0
 40
0
 40
0
 40
0
 40
0
 40
1
 40
1
 40
1
 40
1
 10
59.427127
 20
198.714694
 30
0.0
 10
59.280702
 20
198.714694
 30
0.0
 10
58.697201
 20
198.301944
 30
0.0
 10
58.130457
 20
197.797472
 30
0.0
  0
SPLINE
  5
1dd
100
AcDbEntity
  8
Layer_1
 62
7
100
AcDbSpline
 70
8
 71
3
 72
8
 73
4
 74
0
 40
0
 40
0
 40
0
 40
0
 40
1
 40
1
 40
1
 40
1
 10
58.130457
 20
197.797472
 30
0.0
 10
53.948928
 20
194.075393
 30
0.0
 10
52.559077
 20
191.108086
 30
0.0
 10
52.214972
 20
185.168028
 30
0.0
  0
SPLINE
  5
1de
100
AcDbEntity
  8
Layer_1
 62
7
100
AcDbSpline
 70
8
 71
3
 72
8
 73
4
 74
0
 40
0
 40
0
 40
0
 40
0
 40
1
 40
1
 40
1
 40
1
 10
52.214972
 20
185.168028
 30
0.0
 10
51.986891
 20
181.230858
 30
0.0
 10
52.805694
 20
177.143107
 30
0.0
 10
54.582449
 20
173.348744
 30
0.0
  0
SPLINE
  5
1df
100
AcDbEntity
  8
Layer_1
 62
7
100
AcDbSpline
 70
8
 71
3
 72
8
 73
4
 74
0
 40
0
 40
0
 40
0
 40
0
 40
1
 40
1
 40
1
 40
1
 10
54.582449
 20
173.348744
 30
0.0
 10
55.264185
 20
171.892862
 30
0.0
 10
55.996792
 20
170.526861
 30
0.0
 10
56.210468
 20
170.313185
 30
0.0
  0
SPLINE
  5
1e0
100
AcDbEntity
  8
Layer_1
 62
7
100
AcDbSpline
 70
8
 71
3
 72
8
 73
4
 74
0
 40
0
 40
0
 40
0
 40
0
 40
1
 40
1
 40
1
 40
1
 10
56.210468
 20
170.313185
 30
0.0
 10
56.424141
 20
170.099512
 30
0.0
 10
56.679346
 20
169.671437
 30
0.0
 10
56.777585
 20
169.361912
 30
0.0
  0
SPLINE
  5
1e1
100
AcDbEntity
  8
Layer_1
 62
7
100
AcDbSpline
 70
8
 71
3
 72
8
 73
4
 74
0
 40
0
 40
0
 40
0
 40
0
 40
1
 40
1
 40
1
 40
1
 10
56.777585
 20
169.361912
 30
0.0
 10
56.875824
 20
169.052388
 30
0.0
 10
57.071381
 20
168.799139
 30
0.0
 10
57.212159
 20
168.799139
 30
0.0
  0
SPLINE
  5
1e2
100
AcDbEntity
  8
Layer_1
 62
7
100
AcDbSpline
 70
8
 71
3
 72
8
 73
4
 74
0
 40
0
 40
0
 40
0
 40
0
 40
1
 40
1
 40
1
 40
1
 10
57.212159
 20
168.799139
 30
0.0
 10
57.352935
 20
168.799139
 30
0.0
 10
57.657760
 20
168.432405
 30
0.0
 10
57.889549
 20
167.984174
 30
0.0
  0
SPLINE
  5
1e3
100
AcDbEntity
  8
Layer_1
 62
7
100
AcDbSpline
 70
8
 71
3
 72
8
 73
4
 74
0
 40
0
 40
0
 40
0
 40
0
 40
1
 40
1
 40
1
 40
1
 10
57.889549
 20
167.984174
 30
0.0
 10
58.121338
 20
167.535940
 30
0.0
 10
58.886375
 20
166.805690
 30
0.0
 10
59.589628
 20
166.361396
 30
0.0
  0
SPLINE
  5
1e4
100
AcDbEntity
  8
Layer_1
 62
7
100
AcDbSpline
 70
8
 71
3
 72
8
 73
4
 74
0
 40
0
 40
0
 40
0
 40
0
 40
1
 40
1
 40
1
 40
1
 10
59.589628
 20
166.361396
 30
0.0
 10
60.292880
 20
165.917100
 30
0.0
 10
60.868495
 20
165.458333
 30
0.0
 10
60.868772
 20
165.341917
 30
0.0
  0
SPLINE
  5
1e5
100
AcDbEntity
  8
Layer_1
 62
7
100
AcDbSpline
 70
8
 71
3
 72
8
 73
4
 74
0
 40
0
 40
0
 40
0
 40
0
 40
1
 40
1
 40
1
 40
1
 10
60.868772
 20
165.341917
 30
0.0
 10
60.869048
 20
165.225500
 30
0.0
 10
61.002048
 20
165.130250
 30
0.0
 10
61.164326
 20
165.130250
 30
0.0
  0
SPLINE
  5
1e6
100
AcDbEntity
  8
Layer_1
 62
7
100
AcDbSpline
 70
8
 71
3
 72
8
 73
4
 74
0
 40
0
 40
0
 40
0
 40
0
 40
1
 40
1
 40
1
 40
1
 10
61.164326
 20
165.130250
 30
0.0
 10
61.767855
 20
165.130250
 30
0.0
 10
62.861529
 20
163.696818
 30
0.0
 10
63.468301
 20
162.110529
 30
0.0
  0
SPLINE
  5
1e7
100
AcDbEntity
  8
Layer_1
 62
7
100
AcDbSpline
 70
8
 71
3
 72
8
 73
4
 74
0
 40
0
 40
0
 40
0
 40
0
 40
1
 40
1
 40
1
 40
1
 10
63.468301
 20
162.110529
 30
0.0
 10
64.432818
 20
159.588989
 30
0.0
 10
64.330080
 20
156.535660
 30
0.0
 10
63.197740
 20
154.069366
 30
0.0
  0
SPLINE
  5
1e8
100
AcDbEntity
  8
Layer_1
 62
7
100
AcDbSpline
 70
8
 71
3
 72
8
 73
4
 74
0
 40
0
 40
0
 40
0
 40
0
 40
1
 40
1
 40
1
 40
1
 10
63.197740
 20
154.069366
 30
0.0
 10
62.335977
 20
152.192413
 30
0.0
 10
62.334383
 20
152.179967
 30
0.0
 10
62.940494
 20
152.061687
 30
0.0
  0
SPLINE
  5
1e9
100
AcDbEntity
  8
Layer_1
 62
7
100
AcDbSpline
 70
8
 71
3
 72
8
 73
4
 74
0
 40
0
 40
0
 40
0
 40
0
 40
1
 40
1
 40
1
 40
1
 10
62.940494
 20
152.061687
 30
0.0
 10
64.039169
 20
151.847292
 30
0.0
 10
64.176103
 20
151.861248
 30
0.0
 10
65.209256
 20
152.292926
 30
0.0
  0
LWPOLYLINE
  5
1ea
100
AcDbEntity
  8
Layer_1
 62
7
100
AcDbPolyline
 90
3
 70
0
 10
69.391002
 20
180.228605
 30
0.0
 10
69.477055
 20
181.921408
 30
0.0
 10
71.452610
 20
182.445599
 30
0.0
  0
SPLINE
  5
1eb
100
AcDbEntity
  8
Layer_1
 62
7
100
AcDbSpline
 70
8
 71
3
 72
8
 73
4
 74
0
 40
0
 40
0
 40
0
 40
0
 40
1
 40
1
 40
1
 40
1
 10
65.994582
 20
155.124640
 30
0.0
 10
65.552681
 20
156.094505
 30
0.0
 10
65.582312
 20
157.325550
 30
0.0
 10
66.075989
 20
158.507093
 30
0.0
  0
SPLINE
  5
1ec
100
AcDbEntity
  8
Layer_1
 62
7
100
AcDbSpline
 70
8
 71
3
 72
8
 73
4
 74
0
 40
0
 40
0
 40
0
 40
0
 40
1
 40
1
 40
1
 40
1
 10
66.075989
 20
158.507093
 30
0.0
 10
66.408255
 20
159.302313
 30
0.0
 10
66.637134
 20
159.485805
 30
0.0
 10
67.296795
 20
159.485805
 30
0.0
  0
SPLINE
  5
1ed
100
AcDbEntity
  8
Layer_1
 62
7
100
AcDbSpline
 70
8
 71
3
 72
8
 73
4
 74
0
 40
0
 40
0
 40
0
 40
0
 40
1
 40
1
 40
1
 40
1
 10
67.296795
 20
159.485805
 30
0.0
 10
68.568432
 20
159.485805
 30
0.0
 10
69.483399
 20
158.320513
 30
0.0
 10
69.449115
 20
156.744635
 30
0.0
  0
SPLINE
  5
1ee
100
AcDbEntity
  8
Layer_1
 62
7
100
AcDbSpline
 70
8
 71
3
 72
8
 73
4
 74
0
 40
0
 40
0
 40
0
 40
0
 40
1
 40
1
 40
1
 40
1
 10
69.449115
 20
156.744635
 30
0.0
 10
69.427299
 20
155.741219
 30
0.0
 10
69.272960
 20
155.346348
 30
0.0
 10
68.743559
 20
154.939327
 30
0.0
  0
SPLINE
  5
1ef
100
AcDbEntity
  8
Layer_1
 62
7
100
AcDbSpline
 70
8
 71
3
 72
8
 73
4
 74
0
 40
0
 40
0
 40
0
 40
0
 40
1
 40
1
 40
1
 40
1
 10
68.743559
 20
154.939327
 30
0.0
 10
67.719812
 20
154.152237
 30
0.0
 10
66.397008
 20
154.241408
 30
0.0
 10
65.994582
 20
155.124640
 30
0.0
  0
LWPOLYLINE
  5
1f0
100
AcDbEntity
  8
Layer_1
 62
7
100
AcDbPolyline
 90
2
 70
0
 10
65.209256
 20
152.292926
 30
0.0
 10
65.209259
 20
152.292926
 30
0.0
  0
SPLINE
  5
1f1
100
AcDbEntity
  8
Layer_1
 62
7
100
AcDbSpline
 70
8
 71
3
 72
8
 73
4
 74
0
 40
0
 40
0
 40
0
 40
0
 40
1
 40
1
 40
1
 40
1
 10
67.996734
 20
155.464139
 30
0.0
 10
68.554809
 20
156.088290
 30
0.0
 10
68.657922
 20
156.609755
 30
0.0
 10
68.409126
 20
157.549676
 30
0.0
  0
SPLINE
  5
1f2
100
AcDbEntity
  8
Layer_1
 62
7
100
AcDbSpline
 70
8
 71
3
 72
8
 73
4
 74
0
 40
0
 40
0
 40
0
 40
0
 40
1
 40
1
 40
1
 40
1
 10
68.409126
 20
157.549676
 30
0.0
 10
67.968690
 20
159.213591
 30
0.0
 10
66.513724
 20
158.618034
 30
0.0
 10
66.513724
 20
156.773836
 30
0.0
  0
SPLINE
  5
1f3
100
AcDbEntity
  8
Layer_1
 62
7
100
AcDbSpline
 70
8
 71
3
 72
8
 73
4
 74
0
 40
0
 40
0
 40
0
 40
0
 40
1
 40
1
 40
1
 40
1
 10
66.513724
 20
156.773836
 30
0.0
 10
66.513724
 20
155.008542
 30
0.0
 10
67.114764
 20
154.477744
 30
0.0
 10
67.996734
 20
155.464139
 30
0.0
  0
LWPOLYLINE
  5
1f4
100
AcDbEntity
  8
Layer_1
 62
7
100
AcDbPolyline
 90
2
 70
0
 10
65.994582
 20
155.124640
 30
0.0
 10
65.994582
 20
155.124640
 30
0.0
  0
SPLINE
  5
1f5
100
AcDbEntity
  8
Layer_1
 62
7
100
AcDbSpline
 70
8
 71
3
 72
8
 73
4
 74
0
 40
0
 40
0
 40
0
 40
0
 40
1
 40
1
 40
1
 40
1
 10
66.800267
 20
162.435028
 30
0.0
 10
66.802525
 20
162.598011
 30
0.0
 10
66.921386
 20
162.915991
 30
0.0
 10
67.064136
 20
163.141653
 30
0.0
  0
SPLINE
  5
1f6
100
AcDbEntity
  8
Layer_1
 62
7
100
AcDbSpline
 70
8
 71
3
 72
8
 73
4
 74
0
 40
0
 40
0
 40
0
 40
0
 40
1
 40
1
 40
1
 40
1
 10
67.064136
 20
163.141653
 30
0.0
 10
67.286590
 20
163.493310
 30
0.0
 10
67.427134
 20
163.496578
 30
0.0
 10
68.047591
 20
163.164513
 30
0.0
  0
SPLINE
  5
1f7
100
AcDbEntity
  8
Layer_1
 62
7
100
AcDbSpline
 70
8
 71
3
 72
8
 73
4
 74
0
 40
0
 40
0
 40
0
 40
0
 40
1
 40
1
 40
1
 40
1
 10
68.047591
 20
163.164513
 30
0.0
 10
69.070118
 20
162.617273
 30
0.0
 10
68.947013
 20
162.138689
 30
0.0
 10
67.783724
 20
162.138689
 30
0.0
  0
SPLINE
  5
1f8
100
AcDbEntity
  8
Layer_1
 62
7
100
AcDbSpline
 70
8
 71
3
 72
8
 73
4
 74
0
 40
0
 40
0
 40
0
 40
0
 40
1
 40
1
 40
1
 40
1
 10
67.783724
 20
162.138689
 30
0.0
 10
67.240446
 20
162.138689
 30
0.0
 10
66.797891
 20
162.272039
 30
0.0
 10
66.800267
 20
162.435022
 30
0.0
  0
LWPOLYLINE
  5
1f9
100
AcDbEntity
  8
Layer_1
 62
7
100
AcDbPolyline
 90
2
 70
0
 10
67.996734
 20
155.464139
 30
0.0
 10
67.996734
 20
155.464139
 30
0.0
  0
SPLINE
  5
1fa
100
AcDbEntity
  8
Layer_1
 62
7
100
AcDbSpline
 70
8
 71
3
 72
8
 73
4
 74
0
 40
0
 40
0
 40
0
 40
0
 40
1
 40
1
 40
1
 40
1
 10
63.123964
 20
166.329694
 30
0.0
 10
62.075164
 20
168.049853
 30
0.0
 10
62.581434
 20
169.232818
 30
0.0
 10
64.225667
 20
168.903973
 30
0.0
  0
SPLINE
  5
1fb
100
AcDbEntity
  8
Layer_1
 62
7
100
AcDbSpline
 70
8
 71
3
 72
8
 73
4
 74
0
 40
0
 40
0
 40
0
 40
0
 40
1
 40
1
 40
1
 40
1
 10
64.225667
 20
168.903973
 30
0.0
 10
65.357474
 20
168.677611
 30
0.0
 10
65.949280
 20
167.844841
 30
0.0
 10
65.949280
 20
166.478564
 30
0.0
  0
SPLINE
  5
1fc
100
AcDbEntity
  8
Layer_1
 62
7
100
AcDbSpline
 70
8
 71
3
 72
8
 73
4
 74
0
 40
0
 40
0
 40
0
 40
0
 40
1
 40
1
 40
1
 40
1
 10
65.949280
 20
166.478564
 30
0.0
 10
65.949280
 20
165.422288
 30
0.0
 10
65.938837
 20
165.412472
 30
0.0
 10
64.816242
 20
165.412472
 30
0.0
  0
SPLINE
  5
1fd
100
AcDbEntity
  8
Layer_1
 62
7
100
AcDbSpline
 70
8
 71
3
 72
8
 73
4
 74
0
 40
0
 40
0
 40
0
 40
0
 40
1
 40
1
 40
1
 40
1
 10
64.816242
 20
165.412472
 30
0.0
 10
63.840809
 20
165.412472
 30
0.0
 10
63.605416
 20
165.540056
 30
0.0
 10
63.123964
 20
166.329694
 30
0.0
  0
LWPOLYLINE
  5
1fe
100
AcDbEntity
  8
Layer_1
 62
7
100
AcDbPolyline
 90
2
 70
0
 10
66.800267
 20
162.435022
 30
0.0
 10
66.800267
 20
162.435028
 30
0.0
  0
SPLINE
  5
1ff
100
AcDbEntity
  8
Layer_1
 62
7
100
AcDbSpline
 70
8
 71
3
 72
8
 73
4
 74
0
 40
0
 40
0
 40
0
 40
0
 40
1
 40
1
 40
1
 40
1
 10
65.240120
 20
166.253305
 30
0.0
 10
65.430541
 20
166.561416
 30
0.0
 10
64.906138
 20
167.697685
 30
0.0
 10
64.425364
 20
168.018707
 30
0.0
  0
SPLINE
  5
200
100
AcDbEntity
  8
Layer_1
 62
7
100
AcDbSpline
 70
8
 71
3
 72
8
 73
4
 74
0
 40
0
 40
0
 40
0
 40
0
 40
1
 40
1
 40
1
 40
1
 10
64.425364
 20
168.018707
 30
0.0
 10
63.420244
 20
168.689843
 30
0.0
 10
63.078061
 20
167.808601
 30
0.0
 10
63.903169
 20
166.673873
 30
0.0
  0
SPLINE
  5
201
100
AcDbEntity
  8
Layer_1
 62
7
100
AcDbSpline
 70
8
 71
3
 72
8
 73
4
 74
0
 40
0
 40
0
 40
0
 40
0
 40
1
 40
1
 40
1
 40
1
 10
63.903169
 20
166.673873
 30
0.0
 10
64.423561
 20
165.958205
 30
0.0
 10
64.954511
 20
165.791183
 30
0.0
 10
65.240120
 20
166.253305
 30
0.0
  0
LWPOLYLINE
  5
202
100
AcDbEntity
  8
Layer_1
 62
7
100
AcDbPolyline
 90
2
 70
0
 10
63.123964
 20
166.329694
 30
0.0
 10
63.123964
 20
166.329694
 30
0.0
  0
SPLINE
  5
203
100
AcDbEntity
  8
Layer_1
 62
7
100
AcDbSpline
 70
8
 71
3
 72
8
 73
4
 74
0
 40
0
 40
0
 40
0
 40
0
 40
1
 40
1
 40
1
 40
1
 10
58.637359
 20
172.223070
 30
0.0
 10
57.798397
 20
173.123588
 30
0.0
 10
57.803350
 20
175.174863
 30
0.0
 10
58.645120
 20
175.442035
 30
0.0
  0
SPLINE
  5
204
100
AcDbEntity
  8
Layer_1
 62
7
100
AcDbSpline
 70
8
 71
3
 72
8
 73
4
 74
0
 40
0
 40
0
 40
0
 40
0
 40
1
 40
1
 40
1
 40
1
 10
58.645120
 20
175.442035
 30
0.0
 10
59.955517
 20
175.857940
 30
0.0
 10
61.299107
 20
174.287114
 30
0.0
 10
61.102607
 20
172.568919
 30
0.0
  0
SPLINE
  5
205
100
AcDbEntity
  8
Layer_1
 62
7
100
AcDbSpline
 70
8
 71
3
 72
8
 73
4
 74
0
 40
0
 40
0
 40
0
 40
0
 40
1
 40
1
 40
1
 40
1
 10
61.102607
 20
172.568919
 30
0.0
 10
61.025445
 20
171.894202
 30
0.0
 10
60.864778
 20
171.748341
 30
0.0
 10
60.119012
 20
171.675963
 30
0.0
  0
SPLINE
  5
206
100
AcDbEntity
  8
Layer_1
 62
7
100
AcDbSpline
 70
8
 71
3
 72
8
 73
4
 74
0
 40
0
 40
0
 40
0
 40
0
 40
1
 40
1
 40
1
 40
1
 10
60.119012
 20
171.675963
 30
0.0
 10
59.483004
 20
171.614238
 30
0.0
 10
59.058539
 20
171.770973
 30
0.0
 10
58.637345
 20
172.223070
 30
0.0
  0
LWPOLYLINE
  5
207
100
AcDbEntity
  8
Layer_1
 62
7
100
AcDbPolyline
 90
2
 70
0
 10
65.240120
 20
166.253305
 30
0.0
 10
65.240120
 20
166.253305
 30
0.0
  0
SPLINE
  5
208
100
AcDbEntity
  8
Layer_1
 62
7
100
AcDbSpline
 70
8
 71
3
 72
8
 73
4
 74
0
 40
0
 40
0
 40
0
 40
0
 40
1
 40
1
 40
1
 40
1
 10
60.453617
 20
172.762662
 30
0.0
 10
60.734835
 20
173.217680
 30
0.0
 10
59.770064
 20
174.491558
 30
0.0
 10
59.228685
 20
174.380058
 30
0.0
  0
SPLINE
  5
209
100
AcDbEntity
  8
Layer_1
 62
7
100
AcDbSpline
 70
8
 71
3
 72
8
 73
4
 74
0
 40
0
 40
0
 40
0
 40
0
 40
1
 40
1
 40
1
 40
1
 10
59.228685
 20
174.380058
 30
0.0
 10
58.420587
 20
174.213629
 30
0.0
 10
59.032922
 20
172.468028
 30
0.0
 10
59.899403
 20
172.468028
 30
0.0
  0
SPLINE
  5
20a
100
AcDbEntity
  8
Layer_1
 62
7
100
AcDbSpline
 70
8
 71
3
 72
8
 73
4
 74
0
 40
0
 40
0
 40
0
 40
0
 40
1
 40
1
 40
1
 40
1
 10
59.899403
 20
172.468028
 30
0.0
 10
60.104068
 20
172.468028
 30
0.0
 10
60.353465
 20
172.600613
 30
0.0
 10
60.453617
 20
172.762662
 30
0.0
  0
LWPOLYLINE
  5
20b
100
AcDbEntity
  8
Layer_1
 62
7
100
AcDbPolyline
 90
2
 70
0
 10
58.637345
 20
172.223070
 30
0.0
 10
58.637359
 20
172.223070
 30
0.0
  0
SPLINE
  5
20c
100
AcDbEntity
  8
Layer_1
 62
7
100
AcDbSpline
 70
8
 71
3
 72
8
 73
4
 74
0
 40
0
 40
0
 40
0
 40
0
 40
1
 40
1
 40
1
 40
1
 10
54.566318
 20
174.349510
 30
0.0
 10
54.233403
 20
174.682422
 30
0.0
 10
54.365852
 20
175.290250
 30
0.0
 10
54.771307
 20
175.290250
 30
0.0
  0
SPLINE
  5
20d
100
AcDbEntity
  8
Layer_1
 62
7
100
AcDbSpline
 70
8
 71
3
 72
8
 73
4
 74
0
 40
0
 40
0
 40
0
 40
0
 40
1
 40
1
 40
1
 40
1
 10
54.771307
 20
175.290250
 30
0.0
 10
55.099314
 20
175.290250
 30
0.0
 10
55.507057
 20
174.730047
 30
0.0
 10
55.507057
 20
174.279389
 30
0.0
  0
SPLINE
  5
20e
100
AcDbEntity
  8
Layer_1
 62
7
100
AcDbSpline
 70
8
 71
3
 72
8
 73
4
 74
0
 40
0
 40
0
 40
0
 40
0
 40
1
 40
1
 40
1
 40
1
 10
55.507057
 20
174.279389
 30
0.0
 10
55.507057
 20
174.089171
 30
0.0
 10
54.771854
 20
174.143970
 30
0.0
 10
54.566318
 20
174.349510
 30
0.0
  0
LWPOLYLINE
  5
20f
100
AcDbEntity
  8
Layer_1
 62
7
100
AcDbPolyline
 90
2
 70
0
 10
60.453617
 20
172.762662
 30
0.0
 10
60.453617
 20
172.762662
 30
0.0
  0
SPLINE
  5
210
100
AcDbEntity
  8
Layer_1
 62
7
100
AcDbSpline
 70
8
 71
3
 72
8
 73
4
 74
0
 40
0
 40
0
 40
0
 40
0
 40
1
 40
1
 40
1
 40
1
 10
55.678364
 20
175.454444
 30
0.0
 10
55.436307
 20
176.085228
 30
0.0
 10
55.455397
 20
176.136917
 30
0.0
 10
55.930391
 20
176.136917
 30
0.0
  0
SPLINE
  5
211
100
AcDbEntity
  8
Layer_1
 62
7
100
AcDbSpline
 70
8
 71
3
 72
8
 73
4
 74
0
 40
0
 40
0
 40
0
 40
0
 40
1
 40
1
 40
1
 40
1
 10
55.930391
 20
176.136917
 30
0.0
 10
56.165575
 20
176.136917
 30
0.0
 10
56.353724
 20
175.886052
 30
0.0
 10
56.353724
 20
175.572472
 30
0.0
  0
SPLINE
  5
212
100
AcDbEntity
  8
Layer_1
 62
7
100
AcDbSpline
 70
8
 71
3
 72
8
 73
4
 74
0
 40
0
 40
0
 40
0
 40
0
 40
1
 40
1
 40
1
 40
1
 10
56.353724
 20
175.572472
 30
0.0
 10
56.353724
 20
174.899584
 30
0.0
 10
55.920346
 20
174.823847
 30
0.0
 10
55.678364
 20
175.454444
 30
0.0
  0
LWPOLYLINE
  5
213
100
AcDbEntity
  8
Layer_1
 62
7
100
AcDbPolyline
 90
2
 70
0
 10
54.566318
 20
174.349510
 30
0.0
 10
54.566318
 20
174.349510
 30
0.0
  0
SPLINE
  5
214
100
AcDbEntity
  8
Layer_1
 62
7
100
AcDbSpline
 70
8
 71
3
 72
8
 73
4
 74
0
 40
0
 40
0
 40
0
 40
0
 40
1
 40
1
 40
1
 40
1
 10
55.381948
 20
179.304158
 30
0.0
 10
54.582145
 20
180.446038
 30
0.0
 10
55.024212
 20
182.910250
 30
0.0
 10
56.028864
 20
182.910250
 30
0.0
  0
SPLINE
  5
215
100
AcDbEntity
  8
Layer_1
 62
7
100
AcDbSpline
 70
8
 71
3
 72
8
 73
4
 74
0
 40
0
 40
0
 40
0
 40
0
 40
1
 40
1
 40
1
 40
1
 10
56.028864
 20
182.910250
 30
0.0
 10
56.294584
 20
182.910250
 30
0.0
 10
57.566405
 20
182.032451
 30
0.0
 10
57.845235
 20
181.656608
 30
0.0
  0
SPLINE
  5
216
100
AcDbEntity
  8
Layer_1
 62
7
100
AcDbSpline
 70
8
 71
3
 72
8
 73
4
 74
0
 40
0
 40
0
 40
0
 40
0
 40
1
 40
1
 40
1
 40
1
 10
57.845235
 20
181.656608
 30
0.0
 10
58.151209
 20
181.244176
 30
0.0
 10
57.814396
 20
179.165531
 30
0.0
 10
57.398793
 20
178.901362
 30
0.0
  0
SPLINE
  5
217
100
AcDbEntity
  8
Layer_1
 62
7
100
AcDbSpline
 70
8
 71
3
 72
8
 73
4
 74
0
 40
0
 40
0
 40
0
 40
0
 40
1
 40
1
 40
1
 40
1
 10
57.398793
 20
178.901362
 30
0.0
 10
56.754790
 20
178.492019
 30
0.0
 10
55.820033
 20
178.678706
 30
0.0
 10
55.381948
 20
179.304158
 30
0.0
  0
LWPOLYLINE
  5
218
100
AcDbEntity
  8
Layer_1
 62
7
100
AcDbPolyline
 90
2
 70
0
 10
55.678364
 20
175.454444
 30
0.0
 10
55.678364
 20
175.454444
 30
0.0
  0
SPLINE
  5
219
100
AcDbEntity
  8
Layer_1
 62
7
100
AcDbSpline
 70
8
 71
3
 72
8
 73
4
 74
0
 40
0
 40
0
 40
0
 40
0
 40
1
 40
1
 40
1
 40
1
 10
56.895424
 20
179.785776
 30
0.0
 10
57.205338
 20
179.981935
 30
0.0
 10
57.234890
 20
180.252448
 30
0.0
 10
57.025972
 20
180.980900
 30
0.0
  0
SPLINE
  5
21a
100
AcDbEntity
  8
Layer_1
 62
7
100
AcDbSpline
 70
8
 71
3
 72
8
 73
4
 74
0
 40
0
 40
0
 40
0
 40
0
 40
1
 40
1
 40
1
 40
1
 10
57.025972
 20
180.980900
 30
0.0
 10
56.693283
 20
182.140915
 30
0.0
 10
55.965347
 20
182.227752
 30
0.0
 10
55.838790
 20
181.122522
 30
0.0
  0
SPLINE
  5
21b
100
AcDbEntity
  8
Layer_1
 62
7
100
AcDbSpline
 70
8
 71
3
 72
8
 73
4
 74
0
 40
0
 40
0
 40
0
 40
0
 40
1
 40
1
 40
1
 40
1
 10
55.838790
 20
181.122522
 30
0.0
 10
55.679010
 20
179.727187
 30
0.0
 10
56.053781
 20
179.253065
 30
0.0
 10
56.895424
 20
179.785776
 30
0.0
  0
LWPOLYLINE
  5
21c
100
AcDbEntity
  8
Layer_1
 62
7
100
AcDbPolyline
 90
2
 70
0
 10
55.381948
 20
179.304158
 30
0.0
 10
55.381948
 20
179.304158
 30
0.0
  0
SPLINE
  5
21d
100
AcDbEntity
  8
Layer_1
 62
7
100
AcDbSpline
 70
8
 71
3
 72
8
 73
4
 74
0
 40
0
 40
0
 40
0
 40
0
 40
1
 40
1
 40
1
 40
1
 10
72.444712
 20
184.956361
 30
0.0
 10
72.450610
 20
186.207997
 30
0.0
 10
72.797261
 20
186.683059
 30
0.0
 10
73.534044
 20
186.449209
 30
0.0
  0
SPLINE
  5
21e
100
AcDbEntity
  8
Layer_1
 62
7
100
AcDbSpline
 70
8
 71
3
 72
8
 73
4
 74
0
 40
0
 40
0
 40
0
 40
0
 40
1
 40
1
 40
1
 40
1
 10
73.534044
 20
186.449209
 30
0.0
 10
74.607773
 20
186.108423
 30
0.0
 10
74.248625
 20
184.039139
 30
0.0
 10
73.115751
 20
184.039139
 30
0.0
  0
SPLINE
  5
21f
100
AcDbEntity
  8
Layer_1
 62
7
100
AcDbSpline
 70
8
 71
3
 72
8
 73
4
 74
0
 40
0
 40
0
 40
0
 40
0
 40
1
 40
1
 40
1
 40
1
 10
73.115751
 20
184.039139
 30
0.0
 10
72.541068
 20
184.039139
 30
0.0
 10
72.441034
 20
184.175870
 30
0.0
 10
72.444712
 20
184.956361
 30
0.0
  0
LWPOLYLINE
  5
220
100
AcDbEntity
  8
Layer_1
 62
7
100
AcDbPolyline
 90
2
 70
0
 10
56.895424
 20
179.785776
 30
0.0
 10
56.895424
 20
179.785776
 30
0.0
  0
SPLINE
  5
221
100
AcDbEntity
  8
Layer_1
 62
7
100
AcDbSpline
 70
8
 71
3
 72
8
 73
4
 74
0
 40
0
 40
0
 40
0
 40
0
 40
1
 40
1
 40
1
 40
1
 10
56.353724
 20
184.603583
 30
0.0
 10
56.353724
 20
184.758805
 30
0.0
 10
56.153911
 20
184.885805
 30
0.0
 10
55.909698
 20
184.885805
 30
0.0
  0
SPLINE
  5
222
100
AcDbEntity
  8
Layer_1
 62
7
100
AcDbSpline
 70
8
 71
3
 72
8
 73
4
 74
0
 40
0
 40
0
 40
0
 40
0
 40
1
 40
1
 40
1
 40
1
 10
55.909698
 20
184.885805
 30
0.0
 10
55.646882
 20
184.885805
 30
0.0
 10
55.502909
 20
185.077821
 30
0.0
 10
55.556920
 20
185.356307
 30
0.0
  0
SPLINE
  5
223
100
AcDbEntity
  8
Layer_1
 62
7
100
AcDbSpline
 70
8
 71
3
 72
8
 73
4
 74
0
 40
0
 40
0
 40
0
 40
0
 40
1
 40
1
 40
1
 40
1
 10
55.556920
 20
185.356307
 30
0.0
 10
55.676518
 20
185.972982
 30
0.0
 10
56.353724
 20
186.192743
 30
0.0
 10
56.353724
 20
185.614879
 30
0.0
  0
SPLINE
  5
224
100
AcDbEntity
  8
Layer_1
 62
7
100
AcDbSpline
 70
8
 71
3
 72
8
 73
4
 74
0
 40
0
 40
0
 40
0
 40
0
 40
1
 40
1
 40
1
 40
1
 10
56.353724
 20
185.614879
 30
0.0
 10
56.353724
 20
185.369111
 30
0.0
 10
56.480724
 20
185.168028
 30
0.0
 10
56.635946
 20
185.168028
 30
0.0
  0
SPLINE
  5
225
100
AcDbEntity
  8
Layer_1
 62
7
100
AcDbSpline
 70
8
 71
3
 72
8
 73
4
 74
0
 40
0
 40
0
 40
0
 40
0
 40
1
 40
1
 40
1
 40
1
 10
56.635946
 20
185.168028
 30
0.0
 10
56.791169
 20
185.168028
 30
0.0
 10
56.918169
 20
184.977528
 30
0.0
 10
56.918169
 20
184.744694
 30
0.0
  0
SPLINE
  5
226
100
AcDbEntity
  8
Layer_1
 62
7
100
AcDbSpline
 70
8
 71
3
 72
8
 73
4
 74
0
 40
0
 40
0
 40
0
 40
0
 40
1
 40
1
 40
1
 40
1
 10
56.918169
 20
184.744694
 30
0.0
 10
56.918169
 20
184.511861
 30
0.0
 10
56.791169
 20
184.321361
 30
0.0
 10
56.635946
 20
184.321361
 30
0.0
  0
SPLINE
  5
227
100
AcDbEntity
  8
Layer_1
 62
7
100
AcDbSpline
 70
8
 71
3
 72
8
 73
4
 74
0
 40
0
 40
0
 40
0
 40
0
 40
1
 40
1
 40
1
 40
1
 10
56.635946
 20
184.321361
 30
0.0
 10
56.480724
 20
184.321361
 30
0.0
 10
56.353724
 20
184.448361
 30
0.0
 10
56.353724
 20
184.603583
 30
0.0
  0
LWPOLYLINE
  5
228
100
AcDbEntity
  8
Layer_1
 62
7
100
AcDbPolyline
 90
2
 70
0
 10
72.444712
 20
184.956361
 30
0.0
 10
72.444712
 20
184.956361
 30
0.0
  0
SPLINE
  5
229
100
AcDbEntity
  8
Layer_1
 62
7
100
AcDbSpline
 70
8
 71
3
 72
8
 73
4
 74
0
 40
0
 40
0
 40
0
 40
0
 40
1
 40
1
 40
1
 40
1
 10
55.946393
 20
188.335269
 30
0.0
 10
55.369282
 20
189.159212
 30
0.0
 10
55.393395
 20
189.634812
 30
0.0
 10
56.068409
 20
190.741917
 30
0.0
  0
SPLINE
  5
22a
100
AcDbEntity
  8
Layer_1
 62
7
100
AcDbSpline
 70
8
 71
3
 72
8
 73
4
 74
0
 40
0
 40
0
 40
0
 40
0
 40
1
 40
1
 40
1
 40
1
 10
56.068409
 20
190.741917
 30
0.0
 10
56.679217
 20
191.743712
 30
0.0
 10
57.852750
 20
192.008126
 30
0.0
 10
58.157974
 20
191.212723
 30
0.0
  0
SPLINE
  5
22b
100
AcDbEntity
  8
Layer_1
 62
7
100
AcDbSpline
 70
8
 71
3
 72
8
 73
4
 74
0
 40
0
 40
0
 40
0
 40
0
 40
1
 40
1
 40
1
 40
1
 10
58.157974
 20
191.212723
 30
0.0
 10
58.493474
 20
190.338423
 30
0.0
 10
58.320562
 20
189.184177
 30
0.0
 10
57.744352
 20
188.451644
 30
0.0
  0
SPLINE
  5
22c
100
AcDbEntity
  8
Layer_1
 62
7
100
AcDbSpline
 70
8
 71
3
 72
8
 73
4
 74
0
 40
0
 40
0
 40
0
 40
0
 40
1
 40
1
 40
1
 40
1
 10
57.744352
 20
188.451644
 30
0.0
 10
57.029878
 20
187.543337
 30
0.0
 10
56.524017
 20
187.510593
 30
0.0
 10
55.946393
 20
188.335269
 30
0.0
  0
LWPOLYLINE
  5
22d
100
AcDbEntity
  8
Layer_1
 62
7
100
AcDbPolyline
 90
2
 70
0
 10
56.353724
 20
184.603583
 30
0.0
 10
56.353724
 20
184.603583
 30
0.0
  0
SPLINE
  5
22e
100
AcDbEntity
  8
Layer_1
 62
7
100
AcDbSpline
 70
8
 71
3
 72
8
 73
4
 74
0
 40
0
 40
0
 40
0
 40
0
 40
1
 40
1
 40
1
 40
1
 10
57.482613
 20
190.000361
 30
0.0
 10
57.482613
 20
190.447023
 30
0.0
 10
57.377073
 20
190.812472
 30
0.0
 10
57.248081
 20
190.812472
 30
0.0
  0
SPLINE
  5
22f
100
AcDbEntity
  8
Layer_1
 62
7
100
AcDbSpline
 70
8
 71
3
 72
8
 73
4
 74
0
 40
0
 40
0
 40
0
 40
0
 40
1
 40
1
 40
1
 40
1
 10
57.248081
 20
190.812472
 30
0.0
 10
56.845017
 20
190.812472
 30
0.0
 10
56.269726
 20
189.462885
 30
0.0
 10
56.460675
 20
188.965283
 30
0.0
  0
SPLINE
  5
230
100
AcDbEntity
  8
Layer_1
 62
7
100
AcDbSpline
 70
8
 71
3
 72
8
 73
4
 74
0
 40
0
 40
0
 40
0
 40
0
 40
1
 40
1
 40
1
 40
1
 10
56.460675
 20
188.965283
 30
0.0
 10
56.738585
 20
188.241058
 30
0.0
 10
57.482613
 20
188.994653
 30
0.0
 10
57.482613
 20
190.000361
 30
0.0
  0
LWPOLYLINE
  5
231
100
AcDbEntity
  8
Layer_1
 62
7
100
AcDbPolyline
 90
2
 70
0
 10
55.946393
 20
188.335269
 30
0.0
 10
55.946393
 20
188.335269
 30
0.0
  0
SPLINE
  5
232
100
AcDbEntity
  8
Layer_1
 62
7
100
AcDbSpline
 70
8
 71
3
 72
8
 73
4
 74
0
 40
0
 40
0
 40
0
 40
0
 40
1
 40
1
 40
1
 40
1
 10
57.929498
 20
194.662867
 30
0.0
 10
57.831626
 20
194.917916
 30
0.0
 10
57.812562
 20
195.187605
 30
0.0
 10
57.887131
 20
195.262177
 30
0.0
  0
SPLINE
  5
233
100
AcDbEntity
  8
Layer_1
 62
7
100
AcDbSpline
 70
8
 71
3
 72
8
 73
4
 74
0
 40
0
 40
0
 40
0
 40
0
 40
1
 40
1
 40
1
 40
1
 10
57.887131
 20
195.262177
 30
0.0
 10
58.149640
 20
195.524683
 30
0.0
 10
58.893724
 20
195.058356
 30
0.0
 10
58.893724
 20
194.631328
 30
0.0
  0
SPLINE
  5
234
100
AcDbEntity
  8
Layer_1
 62
7
100
AcDbSpline
 70
8
 71
3
 72
8
 73
4
 74
0
 40
0
 40
0
 40
0
 40
0
 40
1
 40
1
 40
1
 40
1
 10
58.893724
 20
194.631328
 30
0.0
 10
58.893724
 20
194.053535
 30
0.0
 10
58.154037
 20
194.077727
 30
0.0
 10
57.929498
 20
194.662867
 30
0.0
  0
LWPOLYLINE
  5
235
100
AcDbEntity
  8
Layer_1
 62
7
100
AcDbPolyline
 90
2
 70
0
 10
57.482613
 20
190.000361
 30
0.0
 10
57.482613
 20
190.000361
 30
0.0
  0
SPLINE
  5
236
100
AcDbEntity
  8
Layer_1
 62
7
100
AcDbSpline
 70
8
 71
3
 72
8
 73
4
 74
0
 40
0
 40
0
 40
0
 40
0
 40
1
 40
1
 40
1
 40
1
 10
59.175946
 20
195.186917
 30
0.0
 10
59.175946
 20
195.574972
 30
0.0
 10
59.302946
 20
195.892472
 30
0.0
 10
59.458169
 20
195.892472
 30
0.0
  0
SPLINE
  5
237
100
AcDbEntity
  8
Layer_1
 62
7
100
AcDbSpline
 70
8
 71
3
 72
8
 73
4
 74
0
 40
0
 40
0
 40
0
 40
0
 40
1
 40
1
 40
1
 40
1
 10
59.458169
 20
195.892472
 30
0.0
 10
59.613391
 20
195.892472
 30
0.0
 10
59.740391
 20
195.775858
 30
0.0
 10
59.740391
 20
195.633333
 30
0.0
  0
SPLINE
  5
238
100
AcDbEntity
  8
Layer_1
 62
7
100
AcDbSpline
 70
8
 71
3
 72
8
 73
4
 74
0
 40
0
 40
0
 40
0
 40
0
 40
1
 40
1
 40
1
 40
1
 10
59.740391
 20
195.633333
 30
0.0
 10
59.740391
 20
195.490805
 30
0.0
 10
59.817477
 20
195.173305
 30
0.0
 10
59.911697
 20
194.927777
 30
0.0
  0
SPLINE
  5
239
100
AcDbEntity
  8
Layer_1
 62
7
100
AcDbSpline
 70
8
 71
3
 72
8
 73
4
 74
0
 40
0
 40
0
 40
0
 40
0
 40
1
 40
1
 40
1
 40
1
 10
59.911697
 20
194.927777
 30
0.0
 10
60.024109
 20
194.634833
 30
0.0
 10
59.927078
 20
194.481361
 30
0.0
 10
59.629475
 20
194.481361
 30
0.0
  0
SPLINE
  5
23a
100
AcDbEntity
  8
Layer_1
 62
7
100
AcDbSpline
 70
8
 71
3
 72
8
 73
4
 74
0
 40
0
 40
0
 40
0
 40
0
 40
1
 40
1
 40
1
 40
1
 10
59.629475
 20
194.481361
 30
0.0
 10
59.333858
 20
194.481361
 30
0.0
 10
59.175946
 20
194.727027
 30
0.0
 10
59.175946
 20
195.186917
 30
0.0
  0
LWPOLYLINE
  5
23b
100
AcDbEntity
  8
Layer_1
 62
7
100
AcDbPolyline
 90
2
 70
0
 10
57.929498
 20
194.662867
 30
0.0
 10
57.929498
 20
194.662867
 30
0.0
  0
SPLINE
  5
23c
100
AcDbEntity
  8
Layer_1
 62
7
100
AcDbSpline
 70
8
 71
3
 72
8
 73
4
 74
0
 40
0
 40
0
 40
0
 40
0
 40
1
 40
1
 40
1
 40
1
 10
61.724769
 20
195.311546
 30
0.0
 10
61.495330
 20
195.740253
 30
0.0
 10
61.501488
 20
196.058862
 30
0.0
 10
61.748278
 20
196.527472
 30
0.0
  0
SPLINE
  5
23d
100
AcDbEntity
  8
Layer_1
 62
7
100
AcDbSpline
 70
8
 71
3
 72
8
 73
4
 74
0
 40
0
 40
0
 40
0
 40
0
 40
1
 40
1
 40
1
 40
1
 10
61.748278
 20
196.527472
 30
0.0
 10
62.196893
 20
197.379354
 30
0.0
 10
62.540775
 20
197.576365
 30
0.0
 10
63.588042
 20
197.581485
 30
0.0
  0
SPLINE
  5
23e
100
AcDbEntity
  8
Layer_1
 62
7
100
AcDbSpline
 70
8
 71
3
 72
8
 73
4
 74
0
 40
0
 40
0
 40
0
 40
0
 40
1
 40
1
 40
1
 40
1
 10
63.588042
 20
197.581485
 30
0.0
 10
64.268432
 20
197.584815
 30
0.0
 10
64.511614
 20
197.439377
 30
0.0
 10
64.642636
 20
196.950805
 30
0.0
  0
SPLINE
  5
23f
100
AcDbEntity
  8
Layer_1
 62
7
100
AcDbSpline
 70
8
 71
3
 72
8
 73
4
 74
0
 40
0
 40
0
 40
0
 40
0
 40
1
 40
1
 40
1
 40
1
 10
64.642636
 20
196.950805
 30
0.0
 10
65.052253
 20
195.423337
 30
0.0
 10
62.447972
 20
193.960243
 30
0.0
 10
61.724780
 20
195.311546
 30
0.0
  0
LWPOLYLINE
  5
240
100
AcDbEntity
  8
Layer_1
 62
7
100
AcDbPolyline
 90
2
 70
0
 10
59.175946
 20
195.186917
 30
0.0
 10
59.175946
 20
195.186917
 30
0.0
  0
SPLINE
  5
241
100
AcDbEntity
  8
Layer_1
 62
7
100
AcDbSpline
 70
8
 71
3
 72
8
 73
4
 74
0
 40
0
 40
0
 40
0
 40
0
 40
1
 40
1
 40
1
 40
1
 10
63.691502
 20
196.207610
 30
0.0
 10
63.691502
 20
196.540976
 30
0.0
 10
63.492326
 20
196.739139
 30
0.0
 10
63.157252
 20
196.739139
 30
0.0
  0
SPLINE
  5
242
100
AcDbEntity
  8
Layer_1
 62
7
100
AcDbSpline
 70
8
 71
3
 72
8
 73
4
 74
0
 40
0
 40
0
 40
0
 40
0
 40
1
 40
1
 40
1
 40
1
 10
63.157252
 20
196.739139
 30
0.0
 10
62.617517
 20
196.739139
 30
0.0
 10
62.158403
 20
196.035951
 30
0.0
 10
62.420867
 20
195.611277
 30
0.0
  0
SPLINE
  5
243
100
AcDbEntity
  8
Layer_1
 62
7
100
AcDbSpline
 70
8
 71
3
 72
8
 73
4
 74
0
 40
0
 40
0
 40
0
 40
0
 40
1
 40
1
 40
1
 40
1
 10
62.420867
 20
195.611277
 30
0.0
 10
62.680410
 20
195.191331
 30
0.0
 10
63.691502
 20
195.665856
 30
0.0
 10
63.691502
 20
196.207610
 30
0.0
  0
LWPOLYLINE
  5
244
100
AcDbEntity
  8
Layer_1
 62
7
100
AcDbPolyline
 90
2
 70
0
 10
61.724780
 20
195.311546
 30
0.0
 10
61.724769
 20
195.311546
 30
0.0
  0
SPLINE
  5
245
100
AcDbEntity
  8
Layer_1
 62
7
100
AcDbSpline
 70
8
 71
3
 72
8
 73
4
 74
0
 40
0
 40
0
 40
0
 40
0
 40
1
 40
1
 40
1
 40
1
 10
63.241753
 20
156.290852
 30
0.0
 10
63.743199
 20
157.762523
 30
0.0
 10
63.832497
 20
160.207103
 30
0.0
 10
63.424051
 20
161.281402
 30
0.0
  0
SPLINE
  5
246
100
AcDbEntity
  8
Layer_1
 62
7
100
AcDbSpline
 70
8
 71
3
 72
8
 73
4
 74
0
 40
0
 40
0
 40
0
 40
0
 40
1
 40
1
 40
1
 40
1
 10
63.424051
 20
161.281402
 30
0.0
 10
62.982162
 20
162.443655
 30
0.0
 10
62.218748
 20
163.295450
 30
0.0
 10
58.583381
 20
166.682472
 30
0.0
  0
SPLINE
  5
247
100
AcDbEntity
  8
Layer_1
 62
7
100
AcDbSpline
 70
8
 71
3
 72
8
 73
4
 74
0
 40
0
 40
0
 40
0
 40
0
 40
1
 40
1
 40
1
 40
1
 10
58.583381
 20
166.682472
 30
0.0
 10
54.921370
 20
170.094319
 30
0.0
 10
53.092912
 20
173.708496
 30
0.0
 10
51.827252
 20
180.036818
 30
0.0
  0
SPLINE
  5
248
100
AcDbEntity
  8
Layer_1
 62
7
100
AcDbSpline
 70
8
 71
3
 72
8
 73
4
 74
0
 40
0
 40
0
 40
0
 40
0
 40
1
 40
1
 40
1
 40
1
 10
51.827252
 20
180.036818
 30
0.0
 10
51.362839
 20
182.358895
 30
0.0
 10
51.632493
 20
188.491623
 30
0.0
 10
52.283651
 20
190.416630
 30
0.0
  0
SPLINE
  5
249
100
AcDbEntity
  8
Layer_1
 62
7
100
AcDbSpline
 70
8
 71
3
 72
8
 73
4
 74
0
 40
0
 40
0
 40
0
 40
0
 40
1
 40
1
 40
1
 40
1
 10
52.283651
 20
190.416630
 30
0.0
 10
52.881688
 20
192.184600
 30
0.0
 10
54.407023
 20
195.328028
 30
0.0
 10
54.666888
 20
195.328028
 30
0.0
  0
SPLINE
  5
24a
100
AcDbEntity
  8
Layer_1
 62
7
100
AcDbSpline
 70
8
 71
3
 72
8
 73
4
 74
0
 40
0
 40
0
 40
0
 40
0
 40
1
 40
1
 40
1
 40
1
 10
54.666888
 20
195.328028
 30
0.0
 10
54.776316
 20
195.328028
 30
0.0
 10
55.211015
 20
195.826105
 30
0.0
 10
55.632886
 20
196.434864
 30
0.0
  0
SPLINE
  5
24b
100
AcDbEntity
  8
Layer_1
 62
7
100
AcDbSpline
 70
8
 71
3
 72
8
 73
4
 74
0
 40
0
 40
0
 40
0
 40
0
 40
1
 40
1
 40
1
 40
1
 10
55.632886
 20
196.434864
 30
0.0
 10
57.047875
 20
198.476691
 30
0.0
 10
61.563747
 20
200.993100
 30
0.0
 10
64.555737
 20
201.406998
 30
0.0
  0
SPLINE
  5
24c
100
AcDbEntity
  8
Layer_1
 62
7
100
AcDbSpline
 70
8
 71
3
 72
8
 73
4
 74
0
 40
0
 40
0
 40
0
 40
0
 40
1
 40
1
 40
1
 40
1
 10
64.555737
 20
201.406998
 30
0.0
 10
66.217969
 20
201.636942
 30
0.0
 10
68.598373
 20
201.189507
 30
0.0
 10
70.505433
 20
200.288653
 30
0.0
  0
LWPOLYLINE
  5
24d
100
AcDbEntity
  8
Layer_1
 62
7
100
AcDbPolyline
 90
2
 70
0
 10
63.691502
 20
196.207610
 30
0.0
 10
63.691502
 20
196.207610
 30
0.0
  0
SPLINE
  5
24e
100
AcDbEntity
  8
Layer_1
 62
7
100
AcDbSpline
 70
8
 71
3
 72
8
 73
4
 74
0
 40
0
 40
0
 40
0
 40
0
 40
1
 40
1
 40
1
 40
1
 10
71.170391
 20
200.276577
 30
0.0
 10
69.732593
 20
201.468672
 30
0.0
 10
68.259339
 20
202.095985
 30
0.0
 10
66.217332
 20
202.385593
 30
0.0
  0
SPLINE
  5
24f
100
AcDbEntity
  8
Layer_1
 62
7
100
AcDbSpline
 70
8
 71
3
 72
8
 73
4
 74
0
 40
0
 40
0
 40
0
 40
0
 40
1
 40
1
 40
1
 40
1
 10
66.217332
 20
202.385593
 30
0.0
 10
62.777881
 20
202.873394
 30
0.0
 10
59.881361
 20
202.156744
 30
0.0
 10
57.204410
 20
200.155639
 30
0.0
  0
SPLINE
  5
250
100
AcDbEntity
  8
Layer_1
 62
7
100
AcDbSpline
 70
8
 71
3
 72
8
 73
4
 74
0
 40
0
 40
0
 40
0
 40
0
 40
1
 40
1
 40
1
 40
1
 10
57.204410
 20
200.155639
 30
0.0
 10
56.107934
 20
199.335990
 30
0.0
 10
52.888159
 20
196.079331
 30
0.0
 10
51.910965
 20
194.801559
 30
0.0
  0
SPLINE
  5
251
100
AcDbEntity
  8
Layer_1
 62
7
100
AcDbSpline
 70
8
 71
3
 72
8
 73
4
 74
0
 40
0
 40
0
 40
0
 40
0
 40
1
 40
1
 40
1
 40
1
 10
51.910965
 20
194.801559
 30
0.0
 10
50.195401
 20
192.558296
 30
0.0
 10
49.338769
 20
189.332716
 30
0.0
 10
49.127695
 20
184.321361
 30
0.0
  0
SPLINE
  5
252
100
AcDbEntity
  8
Layer_1
 62
7
100
AcDbSpline
 70
8
 71
3
 72
8
 73
4
 74
0
 40
0
 40
0
 40
0
 40
0
 40
1
 40
1
 40
1
 40
1
 10
49.127695
 20
184.321361
 30
0.0
 10
48.982105
 20
180.864819
 30
0.0
 10
49.032643
 20
180.259167
 30
0.0
 10
49.672457
 20
177.792903
 30
0.0
  0
SPLINE
  5
253
100
AcDbEntity
  8
Layer_1
 62
7
100
AcDbSpline
 70
8
 71
3
 72
8
 73
4
 74
0
 40
0
 40
0
 40
0
 40
0
 40
1
 40
1
 40
1
 40
1
 10
49.672457
 20
177.792903
 30
0.0
 10
50.447931
 20
174.803721
 30
0.0
 10
52.046553
 20
171.241131
 30
0.0
 10
53.378760
 20
169.533264
 30
0.0
  0
SPLINE
  5
254
100
AcDbEntity
  8
Layer_1
 62
7
100
AcDbSpline
 70
8
 71
3
 72
8
 73
4
 74
0
 40
0
 40
0
 40
0
 40
0
 40
1
 40
1
 40
1
 40
1
 10
53.378760
 20
169.533264
 30
0.0
 10
54.191174
 20
168.491768
 30
0.0
 10
55.049062
 20
167.606521
 30
0.0
 10
58.556892
 20
164.189993
 30
0.0
  0
SPLINE
  5
255
100
AcDbEntity
  8
Layer_1
 62
7
100
AcDbSpline
 70
8
 71
3
 72
8
 73
4
 74
0
 40
0
 40
0
 40
0
 40
0
 40
1
 40
1
 40
1
 40
1
 10
58.556892
 20
164.189993
 30
0.0
 10
60.378780
 20
162.415526
 30
0.0
 10
61.418414
 20
160.492026
 30
0.0
 10
61.607102
 20
158.546584
 30
0.0
  0
SPLINE
  5
256
100
AcDbEntity
  8
Layer_1
 62
7
100
AcDbSpline
 70
8
 71
3
 72
8
 73
4
 74
0
 40
0
 40
0
 40
0
 40
0
 40
1
 40
1
 40
1
 40
1
 10
61.607102
 20
158.546584
 30
0.0
 10
61.796044
 20
156.598542
 30
0.0
 10
62.298174
 20
154.665707
 30
0.0
 10
62.571438
 20
154.834594
 30
0.0
  0
SPLINE
  5
257
100
AcDbEntity
  8
Layer_1
 62
7
100
AcDbSpline
 70
8
 71
3
 72
8
 73
4
 74
0
 40
0
 40
0
 40
0
 40
0
 40
1
 40
1
 40
1
 40
1
 10
62.571438
 20
154.834594
 30
0.0
 10
62.692748
 20
154.909566
 30
0.0
 10
62.994388
 20
155.564884
 30
0.0
 10
63.241753
 20
156.290852
 30
0.0
  0
LWPOLYLINE
  5
258
100
AcDbEntity
  8
Layer_1
 62
7
100
AcDbPolyline
 90
3
 70
0
 10
70.505433
 20
200.288653
 30
0.0
 10
72.017057
 20
199.574594
 30
0.0
 10
71.170391
 20
200.276577
 30
0.0
  0
SPLINE
  5
259
100
AcDbEntity
  8
Layer_1
 62
7
100
AcDbSpline
 70
8
 71
3
 72
8
 73
4
 74
0
 40
0
 40
0
 40
0
 40
0
 40
1
 40
1
 40
1
 40
1
 10
74.133724
 20
190.812472
 30
0.0
 10
74.133724
 20
190.967694
 30
0.0
 10
74.006724
 20
191.094694
 30
0.0
 10
73.851502
 20
191.094694
 30
0.0
  0
SPLINE
  5
25a
100
AcDbEntity
  8
Layer_1
 62
7
100
AcDbSpline
 70
8
 71
3
 72
8
 73
4
 74
0
 40
0
 40
0
 40
0
 40
0
 40
1
 40
1
 40
1
 40
1
 10
73.851502
 20
191.094694
 30
0.0
 10
73.696280
 20
191.094694
 30
0.0
 10
73.569280
 20
190.967694
 30
0.0
 10
73.569280
 20
190.812472
 30
0.0
  0
SPLINE
  5
25b
100
AcDbEntity
  8
Layer_1
 62
7
100
AcDbSpline
 70
8
 71
3
 72
8
 73
4
 74
0
 40
0
 40
0
 40
0
 40
0
 40
1
 40
1
 40
1
 40
1
 10
73.569280
 20
190.812472
 30
0.0
 10
73.569280
 20
190.657250
 30
0.0
 10
73.696280
 20
190.530250
 30
0.0
 10
73.851502
 20
190.530250
 30
0.0
  0
SPLINE
  5
25c
100
AcDbEntity
  8
Layer_1
 62
7
100
AcDbSpline
 70
8
 71
3
 72
8
 73
4
 74
0
 40
0
 40
0
 40
0
 40
0
 40
1
 40
1
 40
1
 40
1
 10
73.851502
 20
190.530250
 30
0.0
 10
74.006724
 20
190.530250
 30
0.0
 10
74.133724
 20
190.657250
 30
0.0
 10
74.133724
 20
190.812472
 30
0.0
  0
LWPOLYLINE
  5
25d
100
AcDbEntity
  8
Layer_1
 62
7
100
AcDbPolyline
 90
2
 70
0
 10
63.241753
 20
156.290852
 30
0.0
 10
63.241753
 20
156.290852
 30
0.0
  0
LWPOLYLINE
  5
25e
100
AcDbEntity
  8
Layer_1
 62
7
100
AcDbPolyline
 90
2
 70
0
 10
74.133724
 20
190.812472
 30
0.0
 10
74.133724
 20
190.812472
 30
0.0
  0
ENDSEC
  0
SECTION
  2
OBJECTS
  0
DICTIONARY
  5
C
330
0
100
AcDbDictionary
  3
ACAD_GROUP
350
D
  3
ACAD_MLINESTYLE
350
17
  0
DICTIONARY
  5
D
330
C
100
AcDbDictionary
  0
DICTIONARY
  5
1A
330
C
100
AcDbDictionary
  0
DICTIONARY
  5
17
330
C
100
AcDbDictionary
  3
STANDARD
350
18
  0
DICTIONARY
  5
19
330
C
100
AcDbDictionary
  0
ENDSEC
  0
EOF
